<svg version="1.1" viewBox="0.0 0.0 1280.0 720.0" fill="none" stroke="none" stroke-linecap="square" stroke-miterlimit="10" xmlns:xlink="http://www.w3.org/1999/xlink" xmlns="http://www.w3.org/2000/svg"><clipPath id="p6.0"><path d="m0 0l1280.0 0l0 720.0l-1280.0 0l0 -720.0z" clip-rule="nonzero"/></clipPath><g clip-path="url(#p6.0)"><path fill="#4b4b4b" d="m0 0l1280.0 0l0 720.0l-1280.0 0z" fill-rule="evenodd"/><path fill="#000000" fill-opacity="0.0" d="m88.0 83.72095l1104.0 0l0 474.36053l-1104.0 0z" fill-rule="evenodd"/><path fill="#000000" d="m312.9961 212.98077q-0.03125 0.234375 -0.15625 0.421875q-0.109375 0.1875 -0.40625 0.3125q-0.28125 0.125 -0.796875 0.203125q-0.5 0.0625 -1.21875 0.0625q-0.75 0 -1.25 -0.0625q-0.484375 -0.078125 -0.78125 -0.203125q-0.296875 -0.125 -0.421875 -0.3125q-0.109375 -0.1875 -0.125 -0.421875l-0.609375 -21.28125q0 -0.3125 0.140625 -0.546875q0.140625 -0.234375 0.5 -0.375q0.359375 -0.15625 0.984375 -0.21875q0.625 -0.078125 1.5625 -0.078125q0.9375 0 1.546875 0.078125q0.609375 0.078125 0.96875 0.234375q0.359375 0.15625 0.515625 0.375q0.15625 0.21875 0.15625 0.53125l-0.609375 21.28125zm0.71875 6.859375q0 0.96875 -0.15625 1.625q-0.140625 0.65625 -0.53125 1.0625q-0.390625 0.390625 -1.03125 0.5625q-0.625 0.1875 -1.578125 0.1875q-0.96875 0 -1.609375 -0.1875q-0.640625 -0.171875 -1.015625 -0.5625q-0.375 -0.40625 -0.53125 -1.0625q-0.15625 -0.65625 -0.15625 -1.625q0 -0.984375 0.15625 -1.640625q0.15625 -0.671875 0.53125 -1.078125q0.375 -0.421875 1.015625 -0.59375q0.640625 -0.171875 1.609375 -0.171875q0.953125 0 1.578125 0.171875q0.640625 0.171875 1.03125 0.59375q0.390625 0.40625 0.53125 1.078125q0.15625 0.65625 0.15625 1.640625z" fill-rule="nonzero"/><path fill="#000000" d="m327.28516 198.04327l0 13.875l-6.765625 0l0 -13.875l6.765625 0zm13.1015625 0l0 24.875l-6.765625 0l0 -24.875l6.765625 0zm5.0390625 12.640625q0 -5.9375 3.53125 -9.5625q3.546875 -3.640625 9.296875 -3.640625q3.859375 0 6.71875 1.65625q2.859375 1.65625 4.5 4.546875q1.640625 2.875 1.640625 6.6875q0 5.53125 -3.5625 9.34375q-3.5625 3.796875 -9.25 3.796875q-5.703125 0 -9.296875 -3.546875q-3.578125 -3.5625 -3.578125 -9.28125zm6.78125 -0.1875q0 3.4375 1.65625 5.53125q1.671875 2.078125 4.4375 2.078125q2.765625 0 4.40625 -2.078125q1.640625 -2.09375 1.640625 -5.578125q0 -3.46875 -1.65625 -5.53125q-1.65625 -2.0625 -4.390625 -2.0625q-3.03125 0 -4.5625 2.234375q-1.53125 2.21875 -1.53125 5.40625zm30.71875 -12.453125l0 13.875l-6.765625 0l0 -13.875l6.765625 0zm18.757812 24.875l-13.484375 0l0 -5.671875l6.921875 0l0 -9.3125q0 -2.8125 -1.296875 -3.796875q-1.28125 -1.0 -3.5625 -1.0q-1.359375 0 -1.921875 0.140625l-0.484375 -5.09375q1.828125 -0.421875 4.65625 -0.421875q4.734375 0 6.953125 2.296875q2.21875 2.296875 2.21875 7.34375l0 15.515625zm29.484375 0l-6.5625 0l0 -11.71875q0 -4.578125 -2.265625 -6.3125q-2.265625 -1.75 -6.8125 -1.75q-3.390625 0 -7.40625 0.578125l-0.46875 -5.265625q3.828125 -0.6875 9.03125 -0.6875q5.640625 0 8.734375 1.640625q3.09375 1.625 4.421875 4.078125q1.328125 2.4375 1.328125 6.75l0 12.6875zm-16.640625 -12.921875l0 12.921875l-6.59375 0l0 -12.921875l6.59375 0z" fill-rule="nonzero"/><path fill="#000000" d="m466.30078 198.04327l0 6.40625q0 3.515625 -0.3125 5.15625q-0.296875 1.640625 -1.28125 3.046875l-1.0625 1.515625q-0.984375 1.453125 -1.34375 2.359375q-0.34375 0.90625 -0.34375 2.265625l0 4.125l-6.5625 0l0 -4.453125q0 -1.921875 0.5 -3.25q0.515625 -1.34375 1.984375 -3.390625l0.640625 -0.859375q1.1875 -1.671875 1.1875 -4.125l0 -3.125l-13.234375 0l0 -15.15625l6.5625 0l0 9.484375l13.265625 0zm12.34375 16.078125q0.46875 1.921875 2.40625 3.234375q1.9375 1.296875 4.296875 1.296875q4.015625 0 6.09375 -2.421875q2.09375 -2.4375 2.609375 -9.0625l0.671875 -9.125l6.46875 0l-0.8125 9.515625q-0.515625 6.046875 -1.921875 8.9375q-1.390625 2.875 -4.65625 5.0q-3.265625 2.109375 -8.359375 2.109375q-6.578125 0 -10.4375 -4.265625q-3.859375 -4.28125 -3.859375 -12.875l-0.28125 -8.421875l6.515625 0l0.046875 6.59375q0.03125 1.3125 0.1875 3.796875q0.078125 1.078125 0.078125 1.515625q1.59375 0 2.8125 -0.78125q1.21875 -0.78125 1.59375 -2.09375q0.375 -1.3125 0.53125 -4.59375l0.234375 -4.4375l6.375 0l-0.328125 6.140625q-0.140625 2.421875 -0.453125 3.75q-0.3125 1.3125 -1.3125 2.671875q-1.0 1.34375 -3.078125 2.296875q-2.0625 0.9375 -5.421875 1.21875z" fill-rule="nonzero"/><path fill="#000000" d="m523.85547 198.04327l0 34.4375l-6.765625 0l0 -34.4375l6.765625 0zm13.1015625 0l0 24.875l-6.765625 0l0 -24.875l6.765625 0zm13.0546875 16.078125q0.46875 1.921875 2.40625 3.234375q1.9375 1.296875 4.296875 1.296875q4.015625 0 6.09375 -2.421875q2.09375 -2.4375 2.609375 -9.0625l0.671875 -9.125l6.46875 0l-0.8125 9.515625q-0.515625 6.046875 -1.921875 8.9375q-1.390625 2.875 -4.65625 5.0q-3.265625 2.109375 -8.359375 2.109375q-6.578125 0 -10.4375 -4.265625q-3.859375 -4.28125 -3.859375 -12.875l-0.28125 -8.421875l6.515625 0l0.046875 6.59375q0.03125 1.3125 0.1875 3.796875q0.078125 1.078125 0.078125 1.515625q1.59375 0 2.8125 -0.78125q1.21875 -0.78125 1.59375 -2.09375q0.375 -1.3125 0.53125 -4.59375l0.234375 -4.4375l6.375 0l-0.328125 6.140625q-0.140625 2.421875 -0.453125 3.75q-0.3125 1.3125 -1.3125 2.671875q-1.0 1.34375 -3.078125 2.296875q-2.0625 0.9375 -5.421875 1.21875zm44.296875 -1.78125l7.5 10.578125l-7.734375 0l-8.6875 -12.28125q-1.640625 1.609375 -2.0625 7.328125l-0.375 4.953125l-6.375 0l0.46875 -5.28125q0.46875 -5.359375 1.828125 -7.703125q1.359375 -2.34375 3.4375 -3.640625l-5.78125 -8.25l7.703125 0l7.203125 10.171875q1.828125 -1.328125 2.21875 -6.09375l0.328125 -4.078125l6.09375 0l-0.28125 3.03125q-0.484375 5.265625 -1.828125 7.515625q-1.328125 2.234375 -3.65625 3.75zm30.195312 10.578125l-6.5625 0l0 -12.234375q0 -3.984375 -1.984375 -5.6875q-1.984375 -1.71875 -6.296875 -1.71875q-2.203125 0 -5.828125 0.4375l-0.5 -5.171875q3.375 -0.78125 7.78125 -0.78125q6.6875 0 10.03125 2.796875q3.359375 2.78125 3.359375 8.921875l0 13.4375zm29.484375 0l-6.5625 0l0 -11.71875q0 -4.578125 -2.265625 -6.3125q-2.265625 -1.75 -6.8125 -1.75q-3.390625 0 -7.40625 0.578125l-0.46875 -5.265625q3.828125 -0.6875 9.03125 -0.6875q5.640625 0 8.734375 1.640625q3.09375 1.625 4.421875 4.078125q1.328125 2.4375 1.328125 6.75l0 12.6875zm-16.640625 -12.921875l0 12.921875l-6.59375 0l0 -12.921875l6.59375 0z" fill-rule="nonzero"/><path fill="#000000" d="m670.8086 203.71515l0 -5.671875l21.984375 0l0 6.40625q0 3.515625 -0.3125 5.15625q-0.296875 1.640625 -1.28125 3.046875l-1.046875 1.515625q-1.125 1.671875 -1.40625 2.578125q-0.265625 0.890625 -0.265625 2.046875l0 4.125l-6.578125 0l0 -4.453125q0 -1.921875 0.5 -3.25q0.5 -1.34375 1.984375 -3.390625l0.625 -0.859375q1.203125 -1.671875 1.203125 -4.125l0 -3.125l-15.40625 0zm0 28.765625l0 -22.484375l6.5625 0l0 22.484375l-6.5625 0zm45.804688 -34.4375l0 6.40625q0 3.515625 -0.3125 5.15625q-0.296875 1.640625 -1.28125 3.046875l-1.0625 1.515625q-0.984375 1.453125 -1.34375 2.359375q-0.34375 0.90625 -0.34375 2.265625l0 4.125l-6.5625 0l0 -4.453125q0 -1.921875 0.5 -3.25q0.515625 -1.34375 1.984375 -3.390625l0.640625 -0.859375q1.1875 -1.671875 1.1875 -4.125l0 -3.125l-13.234375 0l0 -15.15625l6.5625 0l0 9.484375l13.265625 0zm28.84375 24.875l-6.5625 0l0 -13.0625q0 -3.25 -1.4375 -4.9375q-1.421875 -1.6875 -5.234375 -1.6875q-2.046875 0 -3.40625 0.25l0 19.4375l-6.578125 0l0 -24.375q4.515625 -0.78125 9.15625 -0.78125q5.9375 0 8.796875 1.453125q2.875 1.453125 4.0625 3.859375q1.203125 2.40625 1.203125 6.40625l0 13.4375zm29.726562 0l-6.5625 0l0 -11.71875q0 -4.578125 -2.265625 -6.3125q-2.265625 -1.75 -6.8125 -1.75q-3.390625 0 -7.40625 0.578125l-0.46875 -5.265625q3.828125 -0.6875 9.03125 -0.6875q5.640625 0 8.734375 1.640625q3.09375 1.625 4.421875 4.078125q1.328125 2.4375 1.328125 6.75l0 12.6875zm-16.640625 -12.921875l0 12.921875l-6.59375 0l0 -12.921875l6.59375 0z" fill-rule="nonzero"/><path fill="#000000" d="m791.01953 217.96515q1.4375 0.46875 2.5625 0.46875q1.40625 0 1.84375 -0.6875q0.453125 -0.6875 0.453125 -2.609375l0 -11.90625q-1.640625 0 -5.0 0.390625l-0.515625 -5.078125q6.046875 -0.78125 12.5625 -0.78125q5.515625 0 8.71875 0.96875q3.21875 0.953125 4.84375 3.515625q1.625 2.546875 1.625 7.234375l0 13.4375l-6.578125 0l0 -12.234375q0 -4.734375 -1.578125 -6.203125q-1.5625 -1.484375 -7.5 -1.484375l0 12.4375q0 3.171875 -0.484375 4.546875q-0.46875 1.359375 -1.96875 2.25q-1.5 0.875 -4.265625 0.875q-3.0 0 -5.71875 -0.875l1.0 -4.265625zm50.132812 -5.625l7.5 10.578125l-7.734375 0l-8.6875 -12.28125q-1.640625 1.609375 -2.0625 7.328125l-0.375 4.953125l-6.375 0l0.46875 -5.28125q0.46875 -5.359375 1.828125 -7.703125q1.359375 -2.34375 3.4375 -3.640625l-5.78125 -8.25l7.703125 0l7.203125 10.171875q1.828125 -1.328125 2.21875 -6.09375l0.328125 -4.078125l6.09375 0l-0.28125 3.03125q-0.484375 5.265625 -1.828125 7.515625q-1.328125 2.234375 -3.65625 3.75z" fill-rule="nonzero"/><path fill="#000000" d="m862.15234 217.96515q1.4375 0.46875 2.5625 0.46875q1.40625 0 1.84375 -0.6875q0.453125 -0.6875 0.453125 -2.609375l0 -11.90625q-1.640625 0 -5.0 0.390625l-0.515625 -5.078125q6.046875 -0.78125 12.5625 -0.78125q5.515625 0 8.71875 0.96875q3.21875 0.953125 4.84375 3.515625q1.625 2.546875 1.625 7.234375l0 13.4375l-6.578125 0l0 -12.234375q0 -4.734375 -1.578125 -6.203125q-1.5625 -1.484375 -7.5 -1.484375l0 12.4375q0 3.171875 -0.484375 4.546875q-0.46875 1.359375 -1.96875 2.25q-1.5 0.875 -4.265625 0.875q-3.0 0 -5.71875 -0.875l1.0 -4.265625zm38.976562 -14.59375q3.703125 -5.609375 8.984375 -5.609375q4.40625 0 7.0 3.515625q2.609375 3.5 2.609375 11.328125l0 10.3125l-12.6875 0l0 -5.671875l6.09375 0l0 -5.0q0 -4.890625 -0.828125 -6.84375q-0.8125 -1.96875 -2.84375 -1.96875q-2.15625 0 -3.5625 2.34375q-1.40625 2.328125 -2.578125 8.75l-1.5 8.390625l-6.96875 0l1.15625 -5.421875q1.03125 -4.796875 1.875 -7.046875l-4.171875 -12.40625l5.953125 0l1.46875 5.328125zm31.453125 -5.328125l0 13.875l-6.765625 0l0 -13.875l6.765625 0zm13.1015625 0l0 13.875l-6.765625 0l0 -13.875l6.765625 0zm5.0390625 12.640625q0 -5.9375 3.53125 -9.5625q3.546875 -3.640625 9.296875 -3.640625q3.859375 0 6.71875 1.65625q2.859375 1.65625 4.5 4.546875q1.640625 2.875 1.640625 6.6875q0 5.53125 -3.5625 9.34375q-3.5625 3.796875 -9.25 3.796875q-5.703125 0 -9.296875 -3.546875q-3.578125 -3.5625 -3.578125 -9.28125zm6.78125 -0.1875q0 3.4375 1.65625 5.53125q1.671875 2.078125 4.4375 2.078125q2.765625 0 4.40625 -2.078125q1.640625 -2.09375 1.640625 -5.578125q0 -3.46875 -1.65625 -5.53125q-1.65625 -2.0625 -4.390625 -2.0625q-3.03125 0 -4.5625 2.234375q-1.53125 2.21875 -1.53125 5.40625z" fill-rule="nonzero"/><path fill="#000000" d="m152.33594 316.04327l0 13.875l-6.765625 0l0 -13.875l6.765625 0z" fill-rule="nonzero"/><path fill="#000000" d="m161.40625 346.9964q-0.109375 0.296875 -0.296875 0.484375q-0.1875 0.1875 -0.53125 0.296875q-0.34375 0.125 -0.84375 0.1875q-0.5 0.0625 -1.28125 0.0625q-0.953125 0 -1.5625 -0.09375q-0.609375 -0.09375 -0.9375 -0.28125q-0.3125 -0.1875 -0.359375 -0.484375q-0.046875 -0.296875 0.09375 -0.6875l14.015625 -39.359375q0.09375 -0.3125 0.28125 -0.5q0.1875 -0.203125 0.515625 -0.3125q0.328125 -0.125 0.859375 -0.1875q0.53125 -0.0625 1.28125 -0.0625q0.984375 0 1.578125 0.09375q0.59375 0.09375 0.890625 0.28125q0.3125 0.1875 0.359375 0.484375q0.046875 0.296875 -0.0625 0.6875l-14.0 39.390625z" fill-rule="nonzero"/><path fill="#000000" d="m177.89062 340.54327l0.90625 -5.15625q2.34375 0.8125 4.40625 0.8125q3.5625 0 5.625 -2.078125q2.0625 -2.09375 2.0625 -5.625q0 -3.5625 -2.03125 -5.640625q-2.015625 -2.09375 -5.65625 -2.09375q-2.125 0 -4.40625 0.8125l-0.90625 -5.125q2.453125 -0.78125 5.859375 -0.78125q4.46875 0 7.4375 1.453125q2.96875 1.453125 4.796875 4.203125q1.828125 2.734375 1.828125 7.171875q0 4.234375 -1.71875 6.96875q-1.703125 2.734375 -4.734375 4.28125q-3.015625 1.546875 -7.609375 1.546875q-3.328125 0 -5.859375 -0.75zm31.726562 -24.5l0 13.875l-6.765625 0l0 -13.875l6.765625 0zm13.0546875 16.078125q0.46875 1.921875 2.40625 3.234375q1.9375 1.296875 4.296875 1.296875q4.015625 0 6.09375 -2.421875q2.09375 -2.4375 2.609375 -9.0625l0.671875 -9.125l6.46875 0l-0.8125 9.515625q-0.515625 6.046875 -1.921875 8.9375q-1.390625 2.875 -4.65625 5.0q-3.265625 2.109375 -8.359375 2.109375q-6.578125 0 -10.4375 -4.265625q-3.859375 -4.28125 -3.859375 -12.875l-0.28125 -8.421875l6.515625 0l0.046875 6.59375q0.03125 1.3125 0.1875 3.796875q0.078125 1.078125 0.078125 1.515625q1.59375 0 2.8125 -0.78125q1.21875 -0.78125 1.59375 -2.09375q0.375 -1.3125 0.53125 -4.59375l0.234375 -4.4375l6.375 0l-0.328125 6.140625q-0.140625 2.421875 -0.453125 3.75q-0.3125 1.3125 -1.3125 2.671875q-1.0 1.34375 -3.078125 2.296875q-2.0625 0.9375 -5.421875 1.21875zm33.140625 -10.75q3.703125 -5.609375 8.984375 -5.609375q4.40625 0 7.0 3.515625q2.609375 3.5 2.609375 11.328125l0 10.3125l-12.6875 0l0 -5.671875l6.09375 0l0 -5.0q0 -4.890625 -0.828125 -6.84375q-0.8125 -1.96875 -2.84375 -1.96875q-2.15625 0 -3.5625 2.34375q-1.40625 2.328125 -2.578125 8.75l-1.5 8.390625l-6.96875 0l1.15625 -5.421875q1.03125 -4.796875 1.875 -7.046875l-4.171875 -12.40625l5.953125 0l1.46875 5.328125zm23.578125 14.59375q1.4375 0.46875 2.5625 0.46875q1.40625 0 1.84375 -0.6875q0.453125 -0.6875 0.453125 -2.609375l0 -11.90625q-1.640625 0 -5.0 0.390625l-0.515625 -5.078125q6.046875 -0.78125 12.5625 -0.78125q5.515625 0 8.71875 0.96875q3.21875 0.953125 4.84375 3.515625q1.625 2.546875 1.625 7.234375l0 13.4375l-6.578125 0l0 -12.234375q0 -4.734375 -1.578125 -6.203125q-1.5625 -1.484375 -7.5 -1.484375l0 12.4375q0 3.171875 -0.484375 4.546875q-0.46875 1.359375 -1.96875 2.25q-1.5 0.875 -4.265625 0.875q-3.0 0 -5.71875 -0.875l1.0 -4.265625zm40.148438 -3.84375q0.46875 1.921875 2.40625 3.234375q1.9375 1.296875 4.296875 1.296875q4.015625 0 6.09375 -2.421875q2.09375 -2.4375 2.609375 -9.0625l0.671875 -9.125l6.46875 0l-0.8125 9.515625q-0.515625 6.046875 -1.921875 8.9375q-1.390625 2.875 -4.65625 5.0q-3.265625 2.109375 -8.359375 2.109375q-6.578125 0 -10.4375 -4.265625q-3.859375 -4.28125 -3.859375 -12.875l-0.28125 -8.421875l6.515625 0l0.046875 6.59375q0.03125 1.3125 0.1875 3.796875q0.078125 1.078125 0.078125 1.515625q1.59375 0 2.8125 -0.78125q1.21875 -0.78125 1.59375 -2.09375q0.375 -1.3125 0.53125 -4.59375l0.234375 -4.4375l6.375 0l-0.328125 6.140625q-0.140625 2.421875 -0.453125 3.75q-0.3125 1.3125 -1.3125 2.671875q-1.0 1.34375 -3.078125 2.296875q-2.0625 0.9375 -5.421875 1.21875z" fill-rule="nonzero"/><path fill="#000000" d="m364.75 316.04327l0 13.875l-6.765625 0l0 -13.875l6.765625 0zm18.757812 24.875l-13.484375 0l0 -5.671875l6.921875 0l0 -9.3125q0 -2.8125 -1.296875 -3.796875q-1.28125 -1.0 -3.5625 -1.0q-1.359375 0 -1.921875 0.140625l-0.484375 -5.09375q1.828125 -0.421875 4.65625 -0.421875q4.734375 0 6.953125 2.296875q2.21875 2.296875 2.21875 7.34375l0 15.515625zm5.90625 -24.09375q4.421875 -1.203125 9.015625 -1.203125q6.546875 0 10.421875 3.4375q3.875 3.4375 3.875 8.890625q0 6.359375 -4.21875 9.859375q-4.21875 3.484375 -11.03125 3.484375q-4.296875 0 -8.703125 -1.578125l1.296875 -4.421875q3.5625 1.359375 6.765625 1.359375q4.109375 0 6.5625 -2.125q2.46875 -2.125 2.46875 -6.296875q0 -3.8125 -2.0 -5.984375q-1.984375 -2.1875 -5.59375 -2.1875q-1.3125 0 -2.671875 0.25l0 2.890625q0 3.421875 2.734375 3.421875q0.375 0 0.84375 -0.046875l1.109375 4.078125q-1.671875 0.703125 -3.640625 0.703125q-1.828125 0 -3.4375 -0.65625q-1.59375 -0.65625 -2.703125 -2.3125q-1.09375 -1.671875 -1.09375 -5.75l0 -5.8125zm46.546875 -0.78125l0 6.40625q0 3.515625 -0.3125 5.15625q-0.296875 1.640625 -1.28125 3.046875l-1.0625 1.515625q-0.984375 1.453125 -1.34375 2.359375q-0.34375 0.90625 -0.34375 2.265625l0 4.125l-6.5625 0l0 -4.453125q0 -1.921875 0.5 -3.25q0.515625 -1.34375 1.984375 -3.390625l0.640625 -0.859375q1.1875 -1.671875 1.1875 -4.125l0 -3.125l-13.234375 0l0 -15.15625l6.5625 0l0 9.484375l13.265625 0z" fill-rule="nonzero"/><path fill="#000000" d="m475.82812 340.91827l-6.5625 0l0 -11.71875q0 -4.578125 -2.265625 -6.3125q-2.265625 -1.75 -6.8125 -1.75q-3.390625 0 -7.40625 0.578125l-0.46875 -5.265625q3.828125 -0.6875 9.03125 -0.6875q5.640625 0 8.734375 1.640625q3.09375 1.625 4.421875 4.078125q1.328125 2.4375 1.328125 6.75l0 12.6875zm-16.640625 -12.921875l0 12.921875l-6.59375 0l0 -12.921875l6.59375 0zm32.0625 8.015625q2.640625 -1.0 3.4375 -2.796875q0.796875 -1.8125 0.875 -5.40625l0.28125 -11.765625l6.53125 0l-0.34375 8.9375q-0.140625 4.078125 -0.4375 6.171875q-0.296875 2.09375 -1.34375 4.15625q-1.03125 2.0625 -3.234375 3.734375q-2.1875 1.65625 -6.671875 3.125q-4.484375 1.46875 -10.53125 2.453125l-0.828125 -5.390625q3.75 -0.5625 6.5 -1.25l-4.3125 -21.9375l6.65625 0l3.421875 19.96875zm23.476562 -3.890625q0.46875 1.921875 2.40625 3.234375q1.9375 1.296875 4.296875 1.296875q4.015625 0 6.09375 -2.421875q2.09375 -2.4375 2.609375 -9.0625l0.671875 -9.125l6.46875 0l-0.8125 9.515625q-0.515625 6.046875 -1.921875 8.9375q-1.390625 2.875 -4.65625 5.0q-3.265625 2.109375 -8.359375 2.109375q-6.578125 0 -10.4375 -4.265625q-3.859375 -4.28125 -3.859375 -12.875l-0.28125 -8.421875l6.515625 0l0.046875 6.59375q0.03125 1.3125 0.1875 3.796875q0.078125 1.078125 0.078125 1.515625q1.59375 0 2.8125 -0.78125q1.21875 -0.78125 1.59375 -2.09375q0.375 -1.3125 0.53125 -4.59375l0.234375 -4.4375l6.375 0l-0.328125 6.140625q-0.140625 2.421875 -0.453125 3.75q-0.3125 1.3125 -1.3125 2.671875q-1.0 1.34375 -3.078125 2.296875q-2.0625 0.9375 -5.421875 1.21875z" fill-rule="nonzero"/><path fill="#000000" d="m562.5 336.01202q2.640625 -1.0 3.4375 -2.796875q0.796875 -1.8125 0.875 -5.40625l0.28125 -11.765625l6.53125 0l-0.34375 8.9375q-0.140625 4.078125 -0.4375 6.171875q-0.296875 2.09375 -1.34375 4.15625q-1.03125 2.0625 -3.234375 3.734375q-2.1875 1.65625 -6.671875 3.125q-4.484375 1.46875 -10.53125 2.453125l-0.828125 -5.390625q3.75 -0.5625 6.5 -1.25l-4.3125 -21.9375l6.65625 0l3.421875 19.96875zm35.664062 -0.765625l4.5 0l0 5.671875l-24.75 0l0 -5.671875l13.671875 0l0 -6.5625q0 -4.078125 -1.765625 -5.765625q-1.75 -1.6875 -6.046875 -1.6875q-2.53125 0 -5.671875 0.484375l-0.484375 -5.171875q3.65625 -0.78125 7.3125 -0.78125q6.8125 0 10.015625 2.8125q3.21875 2.796875 3.21875 8.90625l0 7.765625zm27.664062 5.671875l-6.5625 0l0 -12.234375q0 -3.984375 -1.984375 -5.6875q-1.984375 -1.71875 -6.296875 -1.71875q-2.203125 0 -5.828125 0.4375l-0.5 -5.171875q3.375 -0.78125 7.78125 -0.78125q6.6875 0 10.03125 2.796875q3.359375 2.78125 3.359375 8.921875l0 13.4375zm4.6875 -0.375l0.90625 -5.15625q2.34375 0.8125 4.40625 0.8125q3.5625 0 5.625 -2.078125q2.0625 -2.09375 2.0625 -5.625q0 -3.5625 -2.03125 -5.640625q-2.015625 -2.09375 -5.65625 -2.09375q-2.125 0 -4.40625 0.8125l-0.90625 -5.125q2.453125 -0.78125 5.859375 -0.78125q4.46875 0 7.4375 1.453125q2.96875 1.453125 4.796875 4.203125q1.828125 2.734375 1.828125 7.171875q0 4.234375 -1.71875 6.96875q-1.703125 2.734375 -4.734375 4.28125q-3.015625 1.546875 -7.609375 1.546875q-3.328125 0 -5.859375 -0.75z" fill-rule="nonzero"/><path fill="#000000" d="m684.5156 316.04327l0 6.40625q0 3.515625 -0.3125 5.15625q-0.296875 1.640625 -1.28125 3.046875l-1.0625 1.515625q-0.984375 1.453125 -1.34375 2.359375q-0.34375 0.90625 -0.34375 2.265625l0 4.125l-6.5625 0l0 -4.453125q0 -1.921875 0.5 -3.25q0.515625 -1.34375 1.984375 -3.390625l0.640625 -0.859375q1.1875 -1.671875 1.1875 -4.125l0 -3.125l-13.234375 0l0 -15.15625l6.5625 0l0 9.484375l13.265625 0zm12.34375 16.078125q0.46875 1.921875 2.40625 3.234375q1.9375 1.296875 4.296875 1.296875q4.015625 0 6.09375 -2.421875q2.09375 -2.4375 2.609375 -9.0625l0.671875 -9.125l6.46875 0l-0.8125 9.515625q-0.515625 6.046875 -1.921875 8.9375q-1.390625 2.875 -4.65625 5.0q-3.265625 2.109375 -8.359375 2.109375q-6.578125 0 -10.4375 -4.265625q-3.859375 -4.28125 -3.859375 -12.875l-0.28125 -8.421875l6.515625 0l0.046875 6.59375q0.03125 1.3125 0.1875 3.796875q0.078125 1.078125 0.078125 1.515625q1.59375 0 2.8125 -0.78125q1.21875 -0.78125 1.59375 -2.09375q0.375 -1.3125 0.53125 -4.59375l0.234375 -4.4375l6.375 0l-0.328125 6.140625q-0.140625 2.421875 -0.453125 3.75q-0.3125 1.3125 -1.3125 2.671875q-1.0 1.34375 -3.078125 2.296875q-2.0625 0.9375 -5.421875 1.21875z" fill-rule="nonzero"/><path fill="#000000" d="m758.6953 340.91827l-6.5625 0l0 -11.71875q0 -4.578125 -2.265625 -6.3125q-2.265625 -1.75 -6.8125 -1.75q-3.390625 0 -7.40625 0.578125l-0.46875 -5.265625q3.828125 -0.6875 9.03125 -0.6875q5.640625 0 8.734375 1.640625q3.09375 1.625 4.421875 4.078125q1.328125 2.4375 1.328125 6.75l0 12.6875zm-16.640625 -12.921875l0 12.921875l-6.59375 0l0 -12.921875l6.59375 0zm22.609375 -6.28125l0 -5.671875l21.984375 0l0 6.40625q0 3.515625 -0.3125 5.15625q-0.296875 1.640625 -1.28125 3.046875l-1.046875 1.515625q-1.125 1.671875 -1.40625 2.578125q-0.265625 0.890625 -0.265625 2.046875l0 4.125l-6.578125 0l0 -4.453125q0 -1.921875 0.5 -3.25q0.5 -1.34375 1.984375 -3.390625l0.625 -0.859375q1.203125 -1.671875 1.203125 -4.125l0 -3.125l-15.40625 0zm0 28.765625l0 -22.484375l6.5625 0l0 22.484375l-6.5625 0zm26.320312 -21.796875q0 -5.9375 3.53125 -9.5625q3.546875 -3.640625 9.296875 -3.640625q3.859375 0 6.71875 1.65625q2.859375 1.65625 4.5 4.546875q1.640625 2.875 1.640625 6.6875q0 5.53125 -3.5625 9.34375q-3.5625 3.796875 -9.25 3.796875q-5.703125 0 -9.296875 -3.546875q-3.578125 -3.5625 -3.578125 -9.28125zm6.78125 -0.1875q0 3.4375 1.65625 5.53125q1.671875 2.078125 4.4375 2.078125q2.765625 0 4.40625 -2.078125q1.640625 -2.09375 1.640625 -5.578125q0 -3.46875 -1.65625 -5.53125q-1.65625 -2.0625 -4.390625 -2.0625q-3.03125 0 -4.5625 2.234375q-1.53125 2.21875 -1.53125 5.40625zm23.765625 -11.671875q4.421875 -1.203125 9.015625 -1.203125q6.546875 0 10.421875 3.4375q3.875 3.4375 3.875 8.890625q0 6.359375 -4.21875 9.859375q-4.21875 3.484375 -11.03125 3.484375q-4.296875 0 -8.703125 -1.578125l1.296875 -4.421875q3.5625 1.359375 6.765625 1.359375q4.109375 0 6.5625 -2.125q2.46875 -2.125 2.46875 -6.296875q0 -3.8125 -2.0 -5.984375q-1.984375 -2.1875 -5.59375 -2.1875q-1.3125 0 -2.671875 0.25l0 2.890625q0 3.421875 2.734375 3.421875q0.375 0 0.84375 -0.046875l1.109375 4.078125q-1.671875 0.703125 -3.640625 0.703125q-1.828125 0 -3.4375 -0.65625q-1.59375 -0.65625 -2.703125 -2.3125q-1.09375 -1.671875 -1.09375 -5.75l0 -5.8125zm51.75 24.09375l-6.5625 0l0 -11.71875q0 -4.578125 -2.265625 -6.3125q-2.265625 -1.75 -6.8125 -1.75q-3.390625 0 -7.40625 0.578125l-0.46875 -5.265625q3.828125 -0.6875 9.03125 -0.6875q5.640625 0 8.734375 1.640625q3.09375 1.625 4.421875 4.078125q1.328125 2.4375 1.328125 6.75l0 12.6875zm-16.640625 -12.921875l0 12.921875l-6.59375 0l0 -12.921875l6.59375 0z" fill-rule="nonzero"/><path fill="#000000" d="m889.1172 335.96515q1.4375 0.46875 2.5625 0.46875q1.40625 0 1.84375 -0.6875q0.453125 -0.6875 0.453125 -2.609375l0 -11.90625q-1.640625 0 -5.0 0.390625l-0.515625 -5.078125q6.046875 -0.78125 12.5625 -0.78125q5.515625 0 8.71875 0.96875q3.21875 0.953125 4.84375 3.515625q1.625 2.546875 1.625 7.234375l0 13.4375l-6.578125 0l0 -12.234375q0 -4.734375 -1.578125 -6.203125q-1.5625 -1.484375 -7.5 -1.484375l0 12.4375q0 3.171875 -0.484375 4.546875q-0.46875 1.359375 -1.96875 2.25q-1.5 0.875 -4.265625 0.875q-3.0 0 -5.71875 -0.875l1.0 -4.265625zm56.648438 4.953125l-6.5625 0l0 -13.0625q0 -3.25 -1.4375 -4.9375q-1.421875 -1.6875 -5.234375 -1.6875q-2.046875 0 -3.40625 0.25l0 19.4375l-6.578125 0l0 -24.375q4.515625 -0.78125 9.15625 -0.78125q5.9375 0 8.796875 1.453125q2.875 1.453125 4.0625 3.859375q1.203125 2.40625 1.203125 6.40625l0 13.4375zm6.2109375 -19.203125l0 -5.671875l21.984375 0l0 6.40625q0 3.515625 -0.3125 5.15625q-0.296875 1.640625 -1.28125 3.046875l-1.046875 1.515625q-1.125 1.671875 -1.40625 2.578125q-0.265625 0.890625 -0.265625 2.046875l0 4.125l-6.578125 0l0 -4.453125q0 -1.921875 0.5 -3.25q0.5 -1.34375 1.984375 -3.390625l0.625 -0.859375q1.203125 -1.671875 1.203125 -4.125l0 -3.125l-15.40625 0zm0 28.765625l0 -22.484375l6.5625 0l0 22.484375l-6.5625 0zm45.804688 -34.4375l0 6.40625q0 3.515625 -0.3125 5.15625q-0.296875 1.640625 -1.28125 3.046875l-1.0625 1.515625q-0.984375 1.453125 -1.34375 2.359375q-0.34375 0.90625 -0.34375 2.265625l0 4.125l-6.5625 0l0 -4.453125q0 -1.921875 0.5 -3.25q0.515625 -1.34375 1.984375 -3.390625l0.640625 -0.859375q1.1875 -1.671875 1.1875 -4.125l0 -3.125l-13.234375 0l0 -15.15625l6.5625 0l0 9.484375l13.265625 0z" fill-rule="nonzero"/><path fill="#000000" d="m1021.02344 316.04327l0 13.875l-6.765625 0l0 -13.875l6.765625 0z" fill-rule="nonzero"/><path fill="#000000" d="m1030.0938 346.9964q-0.109375 0.296875 -0.296875 0.484375q-0.1875 0.1875 -0.53125 0.296875q-0.34375 0.125 -0.84375 0.1875q-0.5 0.0625 -1.28125 0.0625q-0.953125 0 -1.5625 -0.09375q-0.609375 -0.09375 -0.9375 -0.28125q-0.3125 -0.1875 -0.359375 -0.484375q-0.046875 -0.296875 0.09375 -0.6875l14.015625 -39.359375q0.09375 -0.3125 0.28125 -0.5q0.1875 -0.203125 0.515625 -0.3125q0.328125 -0.125 0.859375 -0.1875q0.53125 -0.0625 1.28125 -0.0625q0.984375 0 1.578125 0.09375q0.59375 0.09375 0.890625 0.28125q0.3125 0.1875 0.359375 0.484375q0.046875 0.296875 -0.0625 0.6875l-14.0 39.390625z" fill-rule="nonzero"/><path fill="#000000" d="m1066.1719 316.04327l0 6.40625q0 3.515625 -0.3125 5.15625q-0.296875 1.640625 -1.28125 3.046875l-1.0625 1.515625q-0.984375 1.453125 -1.34375 2.359375q-0.34375 0.90625 -0.34375 2.265625l0 4.125l-6.5625 0l0 -4.453125q0 -1.921875 0.5 -3.25q0.515625 -1.34375 1.984375 -3.390625l0.640625 -0.859375q1.1875 -1.671875 1.1875 -4.125l0 -3.125l-13.234375 0l0 -15.15625l6.5625 0l0 9.484375l13.265625 0zm4.21875 24.5l0.90625 -5.15625q2.34375 0.8125 4.40625 0.8125q3.5625 0 5.625 -2.078125q2.0625 -2.09375 2.0625 -5.625q0 -3.5625 -2.03125 -5.640625q-2.015625 -2.09375 -5.65625 -2.09375q-2.125 0 -4.40625 0.8125l-0.90625 -5.125q2.453125 -0.78125 5.859375 -0.78125q4.46875 0 7.4375 1.453125q2.96875 1.453125 4.796875 4.203125q1.828125 2.734375 1.828125 7.171875q0 4.234375 -1.71875 6.96875q-1.703125 2.734375 -4.734375 4.28125q-3.015625 1.546875 -7.609375 1.546875q-3.328125 0 -5.859375 -0.75zm31.726562 -24.5l0 24.875l-6.765625 0l0 -24.875l6.765625 0zm5.2265625 19.921875q1.4375 0.46875 2.5625 0.46875q1.40625 0 1.84375 -0.6875q0.453125 -0.6875 0.453125 -2.609375l0 -11.90625q-1.640625 0 -5.0 0.390625l-0.515625 -5.078125q6.046875 -0.78125 12.5625 -0.78125q5.515625 0 8.71875 0.96875q3.21875 0.953125 4.84375 3.515625q1.625 2.546875 1.625 7.234375l0 13.4375l-6.578125 0l0 -12.234375q0 -4.734375 -1.578125 -6.203125q-1.5625 -1.484375 -7.5 -1.484375l0 12.4375q0 3.171875 -0.484375 4.546875q-0.46875 1.359375 -1.96875 2.25q-1.5 0.875 -4.265625 0.875q-3.0 0 -5.71875 -0.875l1.0 -4.265625z" fill-rule="nonzero"/><path fill="#000000" d="m439.72656 383.20996q0 2.171875 -0.765625 2.9375q-0.75 0.75 -2.71875 0.75q-1.96875 0 -2.71875 -0.734375q-0.75 -0.75 -0.75 -2.8125q0 -2.203125 0.75 -2.953125q0.765625 -0.75 2.765625 -0.75q1.9375 0 2.6875 0.734375q0.75 0.734375 0.75 2.828125z" fill-rule="nonzero"/><path fill="#000000" d="m452.59375 361.70996l0 13.875l-6.765625 0l0 -13.875l6.765625 0zm13.1015625 0l0 24.875l-6.765625 0l0 -24.875l6.765625 0zm5.0390625 12.640625q0 -5.9375 3.53125 -9.5625q3.546875 -3.640625 9.296875 -3.640625q3.859375 0 6.71875 1.65625q2.859375 1.65625 4.5 4.546875q1.640625 2.875 1.640625 6.6875q0 5.53125 -3.5625 9.34375q-3.5625 3.796875 -9.25 3.796875q-5.703125 0 -9.296875 -3.546875q-3.578125 -3.5625 -3.578125 -9.28125zm6.78125 -0.1875q0 3.4375 1.65625 5.53125q1.671875 2.078125 4.4375 2.078125q2.765625 0 4.40625 -2.078125q1.640625 -2.09375 1.640625 -5.578125q0 -3.46875 -1.65625 -5.53125q-1.65625 -2.0625 -4.390625 -2.0625q-3.03125 0 -4.5625 2.234375q-1.53125 2.21875 -1.53125 5.40625zm30.71875 -12.453125l0 13.875l-6.765625 0l0 -13.875l6.765625 0zm18.757812 24.875l-13.484375 0l0 -5.671875l6.921875 0l0 -9.3125q0 -2.8125 -1.296875 -3.796875q-1.28125 -1.0 -3.5625 -1.0q-1.359375 0 -1.921875 0.140625l-0.484375 -5.09375q1.828125 -0.421875 4.65625 -0.421875q4.734375 0 6.953125 2.296875q2.21875 2.296875 2.21875 7.34375l0 15.515625zm29.484375 0l-6.5625 0l0 -11.71875q0 -4.578125 -2.265625 -6.3125q-2.265625 -1.75 -6.8125 -1.75q-3.390625 0 -7.40625 0.578125l-0.46875 -5.265625q3.828125 -0.6875 9.03125 -0.6875q5.640625 0 8.734375 1.640625q3.09375 1.625 4.421875 4.078125q1.328125 2.4375 1.328125 6.75l0 12.6875zm-16.640625 -12.921875l0 12.921875l-6.59375 0l0 -12.921875l6.59375 0z" fill-rule="nonzero"/><path fill="#000000" d="m591.6094 361.70996l0 6.40625q0 3.515625 -0.3125 5.15625q-0.296875 1.640625 -1.28125 3.046875l-1.0625 1.515625q-0.984375 1.453125 -1.34375 2.359375q-0.34375 0.90625 -0.34375 2.265625l0 4.125l-6.5625 0l0 -4.453125q0 -1.921875 0.5 -3.25q0.515625 -1.34375 1.984375 -3.390625l0.640625 -0.859375q1.1875 -1.671875 1.1875 -4.125l0 -3.125l-13.234375 0l0 -15.15625l6.5625 0l0 9.484375l13.265625 0zm12.34375 16.078125q0.46875 1.921875 2.40625 3.234375q1.9375 1.296875 4.296875 1.296875q4.015625 0 6.09375 -2.421875q2.09375 -2.4375 2.609375 -9.0625l0.671875 -9.125l6.46875 0l-0.8125 9.515625q-0.515625 6.046875 -1.921875 8.9375q-1.390625 2.875 -4.65625 5.0q-3.265625 2.109375 -8.359375 2.109375q-6.578125 0 -10.4375 -4.265625q-3.859375 -4.28125 -3.859375 -12.875l-0.28125 -8.421875l6.515625 0l0.046875 6.59375q0.03125 1.3125 0.1875 3.796875q0.078125 1.078125 0.078125 1.515625q1.59375 0 2.8125 -0.78125q1.21875 -0.78125 1.59375 -2.09375q0.375 -1.3125 0.53125 -4.59375l0.234375 -4.4375l6.375 0l-0.328125 6.140625q-0.140625 2.421875 -0.453125 3.75q-0.3125 1.3125 -1.3125 2.671875q-1.0 1.34375 -3.078125 2.296875q-2.0625 0.9375 -5.421875 1.21875z" fill-rule="nonzero"/><path fill="#000000" d="m649.16406 361.70996l0 13.875l-6.765625 0l0 -13.875l6.765625 0zm18.757812 24.875l-13.484375 0l0 -5.671875l6.921875 0l0 -9.3125q0 -2.8125 -1.296875 -3.796875q-1.28125 -1.0 -3.5625 -1.0q-1.359375 0 -1.921875 0.140625l-0.484375 -5.09375q1.828125 -0.421875 4.65625 -0.421875q4.734375 0 6.953125 2.296875q2.21875 2.296875 2.21875 7.34375l0 15.515625zm12.8125 -8.796875q0.46875 1.921875 2.40625 3.234375q1.9375 1.296875 4.296875 1.296875q4.015625 0 6.09375 -2.421875q2.09375 -2.4375 2.609375 -9.0625l0.671875 -9.125l6.46875 0l-0.8125 9.515625q-0.515625 6.046875 -1.921875 8.9375q-1.390625 2.875 -4.65625 5.0q-3.265625 2.109375 -8.359375 2.109375q-6.578125 0 -10.4375 -4.265625q-3.859375 -4.28125 -3.859375 -12.875l-0.28125 -8.421875l6.515625 0l0.046875 6.59375q0.03125 1.3125 0.1875 3.796875q0.078125 1.078125 0.078125 1.515625q1.59375 0 2.8125 -0.78125q1.21875 -0.78125 1.59375 -2.09375q0.375 -1.3125 0.53125 -4.59375l0.234375 -4.4375l6.375 0l-0.328125 6.140625q-0.140625 2.421875 -0.453125 3.75q-0.3125 1.3125 -1.3125 2.671875q-1.0 1.34375 -3.078125 2.296875q-2.0625 0.9375 -5.421875 1.21875zm50.984375 8.796875l-6.5625 0l0 -11.71875q0 -4.578125 -2.265625 -6.3125q-2.265625 -1.75 -6.8125 -1.75q-3.390625 0 -7.40625 0.578125l-0.46875 -5.265625q3.828125 -0.6875 9.03125 -0.6875q5.640625 0 8.734375 1.640625q3.09375 1.625 4.421875 4.078125q1.328125 2.4375 1.328125 6.75l0 12.6875zm-16.640625 -12.921875l0 12.921875l-6.59375 0l0 -12.921875l6.59375 0z" fill-rule="nonzero"/><path fill="#000000" d="m748.53906 367.38184l0 -5.671875l21.984375 0l0 6.40625q0 3.515625 -0.3125 5.15625q-0.296875 1.640625 -1.28125 3.046875l-1.046875 1.515625q-1.125 1.671875 -1.40625 2.578125q-0.265625 0.890625 -0.265625 2.046875l0 4.125l-6.578125 0l0 -4.453125q0 -1.921875 0.5 -3.25q0.5 -1.34375 1.984375 -3.390625l0.625 -0.859375q1.203125 -1.671875 1.203125 -4.125l0 -3.125l-15.40625 0zm0 28.765625l0 -22.484375l6.5625 0l0 22.484375l-6.5625 0zm45.804688 -34.4375l0 6.40625q0 3.515625 -0.3125 5.15625q-0.296875 1.640625 -1.28125 3.046875l-1.0625 1.515625q-0.984375 1.453125 -1.34375 2.359375q-0.34375 0.90625 -0.34375 2.265625l0 4.125l-6.5625 0l0 -4.453125q0 -1.921875 0.5 -3.25q0.515625 -1.34375 1.984375 -3.390625l0.640625 -0.859375q1.1875 -1.671875 1.1875 -4.125l0 -3.125l-13.234375 0l0 -15.15625l6.5625 0l0 9.484375l13.265625 0zm28.84375 24.875l-6.5625 0l0 -13.0625q0 -3.25 -1.4375 -4.9375q-1.421875 -1.6875 -5.234375 -1.6875q-2.046875 0 -3.40625 0.25l0 19.4375l-6.578125 0l0 -24.375q4.515625 -0.78125 9.15625 -0.78125q5.9375 0 8.796875 1.453125q2.875 1.453125 4.0625 3.859375q1.203125 2.40625 1.203125 6.40625l0 13.4375zm24.523438 -24.875l0 6.40625q0 3.515625 -0.3125 5.15625q-0.296875 1.640625 -1.28125 3.046875l-1.0625 1.515625q-0.984375 1.453125 -1.34375 2.359375q-0.34375 0.90625 -0.34375 2.265625l0 4.125l-6.5625 0l0 -4.453125q0 -1.921875 0.5 -3.25q0.515625 -1.34375 1.984375 -3.390625l0.640625 -0.859375q1.1875 -1.671875 1.1875 -4.125l0 -3.125l-13.234375 0l0 -15.15625l6.5625 0l0 9.484375l13.265625 0z" fill-rule="nonzero"/><path fill="#000000" d="m248.7461 501.54327q0 2.171875 -0.765625 2.9375q-0.75 0.75 -2.71875 0.75q-1.96875 0 -2.71875 -0.734375q-0.75 -0.75 -0.75 -2.8125q0 -2.203125 0.75 -2.953125q0.765625 -0.75 2.765625 -0.75q1.9375 0 2.6875 0.734375q0.75 0.734375 0.75 2.828125z" fill-rule="nonzero"/><path fill="#000000" d="m278.0664 504.91827l-6.5625 0l0 -13.0625q0 -3.25 -1.4375 -4.9375q-1.421875 -1.6875 -5.234375 -1.6875q-2.046875 0 -3.40625 0.25l0 19.4375l-6.578125 0l0 -24.375q4.515625 -0.78125 9.15625 -0.78125q5.9375 0 8.796875 1.453125q2.875 1.453125 4.0625 3.859375q1.203125 2.40625 1.203125 6.40625l0 13.4375zm13.1015625 -24.875l0 24.875l-6.765625 0l0 -24.875l6.765625 0zm13.1015625 0l0 24.875l-6.765625 0l0 -24.875l6.765625 0zm25.273438 24.875l-6.5625 0l0 -12.234375q0 -3.984375 -1.984375 -5.6875q-1.984375 -1.71875 -6.296875 -1.71875q-2.203125 0 -5.828125 0.4375l-0.5 -5.171875q3.375 -0.78125 7.78125 -0.78125q6.6875 0 10.03125 2.796875q3.359375 2.78125 3.359375 8.921875l0 13.4375zm29.484375 0l-6.5625 0l0 -11.71875q0 -4.578125 -2.265625 -6.3125q-2.265625 -1.75 -6.8125 -1.75q-3.390625 0 -7.40625 0.578125l-0.46875 -5.265625q3.828125 -0.6875 9.03125 -0.6875q5.640625 0 8.734375 1.640625q3.09375 1.625 4.421875 4.078125q1.328125 2.4375 1.328125 6.75l0 12.6875zm-16.640625 -12.921875l0 12.921875l-6.59375 0l0 -12.921875l6.59375 0z" fill-rule="nonzero"/><path fill="#000000" d="m382.6914 496.1214q0.46875 1.921875 2.40625 3.234375q1.9375 1.296875 4.296875 1.296875q4.015625 0 6.09375 -2.421875q2.09375 -2.4375 2.609375 -9.0625l0.671875 -9.125l6.46875 0l-0.8125 9.515625q-0.515625 6.046875 -1.921875 8.9375q-1.390625 2.875 -4.65625 5.0q-3.265625 2.109375 -8.359375 2.109375q-6.578125 0 -10.4375 -4.265625q-3.859375 -4.28125 -3.859375 -12.875l-0.28125 -8.421875l6.515625 0l0.046875 6.59375q0.03125 1.3125 0.1875 3.796875q0.078125 1.078125 0.078125 1.515625q1.59375 0 2.8125 -0.78125q1.21875 -0.78125 1.59375 -2.09375q0.375 -1.3125 0.53125 -4.59375l0.234375 -4.4375l6.375 0l-0.328125 6.140625q-0.140625 2.421875 -0.453125 3.75q-0.3125 1.3125 -1.3125 2.671875q-1.0 1.34375 -3.078125 2.296875q-2.0625 0.9375 -5.421875 1.21875zm27.46875 -10.40625l0 -5.671875l21.984375 0l0 6.40625q0 3.515625 -0.3125 5.15625q-0.296875 1.640625 -1.28125 3.046875l-1.046875 1.515625q-1.125 1.671875 -1.40625 2.578125q-0.265625 0.890625 -0.265625 2.046875l0 4.125l-6.578125 0l0 -4.453125q0 -1.921875 0.5 -3.25q0.5 -1.34375 1.984375 -3.390625l0.625 -0.859375q1.203125 -1.671875 1.203125 -4.125l0 -3.125l-15.40625 0zm0 28.765625l0 -22.484375l6.5625 0l0 22.484375l-6.5625 0zm33.164062 -29.109375q3.703125 -5.609375 8.984375 -5.609375q4.40625 0 7.0 3.515625q2.609375 3.5 2.609375 11.328125l0 10.3125l-12.6875 0l0 -5.671875l6.09375 0l0 -5.0q0 -4.890625 -0.828125 -6.84375q-0.8125 -1.96875 -2.84375 -1.96875q-2.15625 0 -3.5625 2.34375q-1.40625 2.328125 -2.578125 8.75l-1.5 8.390625l-6.96875 0l1.15625 -5.421875q1.03125 -4.796875 1.875 -7.046875l-4.171875 -12.40625l5.953125 0l1.46875 5.328125z" fill-rule="nonzero"/><path fill="#000000" d="m497.05078 480.04327l0 6.40625q0 3.515625 -0.3125 5.15625q-0.296875 1.640625 -1.28125 3.046875l-1.0625 1.515625q-0.984375 1.453125 -1.34375 2.359375q-0.34375 0.90625 -0.34375 2.265625l0 4.125l-6.5625 0l0 -4.453125q0 -1.921875 0.5 -3.25q0.515625 -1.34375 1.984375 -3.390625l0.640625 -0.859375q1.1875 -1.671875 1.1875 -4.125l0 -3.125l-13.234375 0l0 -15.15625l6.5625 0l0 9.484375l13.265625 0zm14.953125 19.96875q2.640625 -1.0 3.4375 -2.796875q0.796875 -1.8125 0.875 -5.40625l0.28125 -11.765625l6.53125 0l-0.34375 8.9375q-0.140625 4.078125 -0.4375 6.171875q-0.296875 2.09375 -1.34375 4.15625q-1.03125 2.0625 -3.234375 3.734375q-2.1875 1.65625 -6.671875 3.125q-4.484375 1.46875 -10.53125 2.453125l-0.828125 -5.390625q3.75 -0.5625 6.5 -1.25l-4.3125 -21.9375l6.65625 0l3.421875 19.96875z" fill-rule="nonzero"/><path fill="#000000" d="m546.3789 480.04327l0 13.875l-6.765625 0l0 -13.875l6.765625 0z" fill-rule="nonzero"/><path fill="#000000" d="m555.4492 510.9964q-0.109375 0.296875 -0.296875 0.484375q-0.1875 0.1875 -0.53125 0.296875q-0.34375 0.125 -0.84375 0.1875q-0.5 0.0625 -1.28125 0.0625q-0.953125 0 -1.5625 -0.09375q-0.609375 -0.09375 -0.9375 -0.28125q-0.3125 -0.1875 -0.359375 -0.484375q-0.046875 -0.296875 0.09375 -0.6875l14.015625 -39.359375q0.09375 -0.3125 0.28125 -0.5q0.1875 -0.203125 0.515625 -0.3125q0.328125 -0.125 0.859375 -0.1875q0.53125 -0.0625 1.28125 -0.0625q0.984375 0 1.578125 0.09375q0.59375 0.09375 0.890625 0.28125q0.3125 0.1875 0.359375 0.484375q0.046875 0.296875 -0.0625 0.6875l-14.0 39.390625z" fill-rule="nonzero"/><path fill="#000000" d="m592.3867 480.04327l-0.234375 3.84375l-0.15625 2.1875q-0.078125 1.046875 -0.390625 2.125q-0.296875 1.078125 -0.96875 2.15625q-0.65625 1.0625 -1.6875 1.984375q-1.03125 0.90625 -2.46875 1.671875l5.09375 7.96875l0 2.9375l-19.734375 0l0 -5.671875l11.078125 0l-12.515625 -19.203125l7.109375 0l6.234375 9.65625q1.140625 -0.328125 1.5 -1.171875q0.375 -0.859375 0.5625 -4.546875l0.203125 -3.9375l6.375 0zm28.734375 24.875l-6.5625 0l0 -13.0625q0 -3.25 -1.4375 -4.9375q-1.421875 -1.6875 -5.234375 -1.6875q-2.046875 0 -3.40625 0.25l0 19.4375l-6.578125 0l0 -24.375q4.515625 -0.78125 9.15625 -0.78125q5.9375 0 8.796875 1.453125q2.875 1.453125 4.0625 3.859375q1.203125 2.40625 1.203125 6.40625l0 13.4375zm24.523438 -24.875l0 6.40625q0 3.515625 -0.3125 5.15625q-0.296875 1.640625 -1.28125 3.046875l-1.0625 1.515625q-0.984375 1.453125 -1.34375 2.359375q-0.34375 0.90625 -0.34375 2.265625l0 4.125l-6.5625 0l0 -4.453125q0 -1.921875 0.5 -3.25q0.515625 -1.34375 1.984375 -3.390625l0.640625 -0.859375q1.1875 -1.671875 1.1875 -4.125l0 -3.125l-13.234375 0l0 -15.15625l6.5625 0l0 9.484375l13.265625 0z" fill-rule="nonzero"/><path fill="#000000" d="m668.83984 500.60577q0 0.9375 -0.09375 1.703125q-0.09375 0.75 -0.3125 1.4375q-0.203125 0.671875 -0.53125 1.3125q-0.328125 0.65625 -0.8125 1.34375l-3.140625 4.5q-0.171875 0.234375 -0.375 0.390625q-0.1875 0.171875 -0.46875 0.265625q-0.28125 0.09375 -0.6875 0.140625q-0.390625 0.0625 -1.0 0.0625q-0.6875 0 -1.109375 -0.0625q-0.421875 -0.046875 -0.609375 -0.171875q-0.1875 -0.109375 -0.203125 -0.296875q0 -0.1875 0.109375 -0.453125l2.859375 -6.46875l0 -3.703125q0 -0.796875 0.1875 -1.28125q0.1875 -0.5 0.578125 -0.75q0.40625 -0.265625 1.015625 -0.34375q0.609375 -0.09375 1.484375 -0.09375q0.8125 0 1.390625 0.09375q0.59375 0.078125 0.984375 0.34375q0.390625 0.25 0.5625 0.75q0.171875 0.484375 0.171875 1.28125z" fill-rule="nonzero"/><path fill="#000000" d="m693.4336 514.4808l-6.59375 0l0 -21.796875q0 -4.296875 -2.125 -5.84375q-2.109375 -1.5625 -6.125 -1.5625q-2.203125 0 -5.859375 0.4375l-0.46875 -5.171875q3.359375 -0.78125 7.765625 -0.78125q6.71875 0 10.0625 2.8125q3.34375 2.796875 3.34375 8.90625l0 23.0zm12.859375 -34.4375l0 13.875l-6.765625 0l0 -13.875l6.765625 0zm13.0546875 16.078125q0.46875 1.921875 2.40625 3.234375q1.9375 1.296875 4.296875 1.296875q4.015625 0 6.09375 -2.421875q2.09375 -2.4375 2.609375 -9.0625l0.671875 -9.125l6.46875 0l-0.8125 9.515625q-0.515625 6.046875 -1.921875 8.9375q-1.390625 2.875 -4.65625 5.0q-3.265625 2.109375 -8.359375 2.109375q-6.578125 0 -10.4375 -4.265625q-3.859375 -4.28125 -3.859375 -12.875l-0.28125 -8.421875l6.515625 0l0.046875 6.59375q0.03125 1.3125 0.1875 3.796875q0.078125 1.078125 0.078125 1.515625q1.59375 0 2.8125 -0.78125q1.21875 -0.78125 1.59375 -2.09375q0.375 -1.3125 0.53125 -4.59375l0.234375 -4.4375l6.375 0l-0.328125 6.140625q-0.140625 2.421875 -0.453125 3.75q-0.3125 1.3125 -1.3125 2.671875q-1.0 1.34375 -3.078125 2.296875q-2.0625 0.9375 -5.421875 1.21875zm33.140625 -10.75q3.703125 -5.609375 8.984375 -5.609375q4.40625 0 7.0 3.515625q2.609375 3.5 2.609375 11.328125l0 10.3125l-12.6875 0l0 -5.671875l6.09375 0l0 -5.0q0 -4.890625 -0.828125 -6.84375q-0.8125 -1.96875 -2.84375 -1.96875q-2.15625 0 -3.5625 2.34375q-1.40625 2.328125 -2.578125 8.75l-1.5 8.390625l-6.96875 0l1.15625 -5.421875q1.03125 -4.796875 1.875 -7.046875l-4.171875 -12.40625l5.953125 0l1.46875 5.328125zm48.078125 19.546875l-6.5625 0l0 -11.71875q0 -4.578125 -2.265625 -6.3125q-2.265625 -1.75 -6.8125 -1.75q-3.390625 0 -7.40625 0.578125l-0.46875 -5.265625q3.828125 -0.6875 9.03125 -0.6875q5.640625 0 8.734375 1.640625q3.09375 1.625 4.421875 4.078125q1.328125 2.4375 1.328125 6.75l0 12.6875zm-16.640625 -12.921875l0 12.921875l-6.59375 0l0 -12.921875l6.59375 0zm40.921875 -11.953125l0 6.40625q0 3.515625 -0.3125 5.15625q-0.296875 1.640625 -1.28125 3.046875l-1.0625 1.515625q-0.984375 1.453125 -1.34375 2.359375q-0.34375 0.90625 -0.34375 2.265625l0 4.125l-6.5625 0l0 -4.453125q0 -1.921875 0.5 -3.25q0.515625 -1.34375 1.984375 -3.390625l0.640625 -0.859375q1.1875 -1.671875 1.1875 -4.125l0 -3.125l-13.234375 0l0 -15.15625l6.5625 0l0 9.484375l13.265625 0z" fill-rule="nonzero"/><path fill="#000000" d="m848.08984 480.04327l0 13.875l-6.765625 0l0 -13.875l6.765625 0z" fill-rule="nonzero"/><path fill="#000000" d="m857.16016 510.9964q-0.109375 0.296875 -0.296875 0.484375q-0.1875 0.1875 -0.53125 0.296875q-0.34375 0.125 -0.84375 0.1875q-0.5 0.0625 -1.28125 0.0625q-0.953125 0 -1.5625 -0.09375q-0.609375 -0.09375 -0.9375 -0.28125q-0.3125 -0.1875 -0.359375 -0.484375q-0.046875 -0.296875 0.09375 -0.6875l14.015625 -39.359375q0.09375 -0.3125 0.28125 -0.5q0.1875 -0.203125 0.515625 -0.3125q0.328125 -0.125 0.859375 -0.1875q0.53125 -0.0625 1.28125 -0.0625q0.984375 0 1.578125 0.09375q0.59375 0.09375 0.890625 0.28125q0.3125 0.1875 0.359375 0.484375q0.046875 0.296875 -0.0625 0.6875l-14.0 39.390625z" fill-rule="nonzero"/><path fill="#000000" d="m898.4414 504.91827l-6.5625 0l0 -11.71875q0 -4.578125 -2.265625 -6.3125q-2.265625 -1.75 -6.8125 -1.75q-3.390625 0 -7.40625 0.578125l-0.46875 -5.265625q3.828125 -0.6875 9.03125 -0.6875q5.640625 0 8.734375 1.640625q3.09375 1.625 4.421875 4.078125q1.328125 2.4375 1.328125 6.75l0 12.6875zm-16.640625 -12.921875l0 12.921875l-6.59375 0l0 -12.921875l6.59375 0zm41.78125 -11.953125l-0.234375 3.84375l-0.15625 2.1875q-0.078125 1.046875 -0.390625 2.125q-0.296875 1.078125 -0.96875 2.15625q-0.65625 1.0625 -1.6875 1.984375q-1.03125 0.90625 -2.46875 1.671875l5.09375 7.96875l0 2.9375l-19.734375 0l0 -5.671875l11.078125 0l-12.515625 -19.203125l7.109375 0l6.234375 9.65625q1.140625 -0.328125 1.5 -1.171875q0.375 -0.859375 0.5625 -4.546875l0.203125 -3.9375l6.375 0zm24.453125 24.875l-6.5625 0l0 -12.234375q0 -3.984375 -1.984375 -5.6875q-1.984375 -1.71875 -6.296875 -1.71875q-2.203125 0 -5.828125 0.4375l-0.5 -5.171875q3.375 -0.78125 7.78125 -0.78125q6.6875 0 10.03125 2.796875q3.359375 2.78125 3.359375 8.921875l0 13.4375zm4.984375 -4.953125q1.4375 0.46875 2.5625 0.46875q1.40625 0 1.84375 -0.6875q0.453125 -0.6875 0.453125 -2.609375l0 -11.90625q-1.640625 0 -5.0 0.390625l-0.515625 -5.078125q6.046875 -0.78125 12.5625 -0.78125q5.515625 0 8.71875 0.96875q3.21875 0.953125 4.84375 3.515625q1.625 2.546875 1.625 7.234375l0 13.4375l-6.578125 0l0 -12.234375q0 -4.734375 -1.578125 -6.203125q-1.5625 -1.484375 -7.5 -1.484375l0 12.4375q0 3.171875 -0.484375 4.546875q-0.46875 1.359375 -1.96875 2.25q-1.5 0.875 -4.265625 0.875q-3.0 0 -5.71875 -0.875l1.0 -4.265625zm40.148438 -3.84375q0.46875 1.921875 2.40625 3.234375q1.9375 1.296875 4.296875 1.296875q4.015625 0 6.09375 -2.421875q2.09375 -2.4375 2.609375 -9.0625l0.671875 -9.125l6.46875 0l-0.8125 9.515625q-0.515625 6.046875 -1.921875 8.9375q-1.390625 2.875 -4.65625 5.0q-3.265625 2.109375 -8.359375 2.109375q-6.578125 0 -10.4375 -4.265625q-3.859375 -4.28125 -3.859375 -12.875l-0.28125 -8.421875l6.515625 0l0.046875 6.59375q0.03125 1.3125 0.1875 3.796875q0.078125 1.078125 0.078125 1.515625q1.59375 0 2.8125 -0.78125q1.21875 -0.78125 1.59375 -2.09375q0.375 -1.3125 0.53125 -4.59375l0.234375 -4.4375l6.375 0l-0.328125 6.140625q-0.140625 2.421875 -0.453125 3.75q-0.3125 1.3125 -1.3125 2.671875q-1.0 1.34375 -3.078125 2.296875q-2.0625 0.9375 -5.421875 1.21875zm26.1875 8.421875l0.90625 -5.15625q2.34375 0.8125 4.40625 0.8125q3.5625 0 5.625 -2.078125q2.0625 -2.09375 2.0625 -5.625q0 -3.5625 -2.03125 -5.640625q-2.015625 -2.09375 -5.65625 -2.09375q-2.125 0 -4.40625 0.8125l-0.90625 -5.125q2.453125 -0.78125 5.859375 -0.78125q4.46875 0 7.4375 1.453125q2.96875 1.453125 4.796875 4.203125q1.828125 2.734375 1.828125 7.171875q0 4.234375 -1.71875 6.96875q-1.703125 2.734375 -4.734375 4.28125q-3.015625 1.546875 -7.609375 1.546875q-3.328125 0 -5.859375 -0.75z" fill-rule="nonzero"/></g></svg>