<svg version="1.1" viewBox="0.0 0.0 1280.0 720.0" fill="none" stroke="none" stroke-linecap="square" stroke-miterlimit="10" xmlns:xlink="http://www.w3.org/1999/xlink" xmlns="http://www.w3.org/2000/svg"><clipPath id="p1.0"><path d="m0 0l1280.0 0l0 720.0l-1280.0 0l0 -720.0z" clip-rule="nonzero"/></clipPath><g clip-path="url(#p1.0)"><path fill="#4b4b4b"  d="m0 0l1280.0 0l0 720.0l-1280.0 0z" fill-rule="evenodd"/><path fill="#000000" fill-opacity="0.0" d="m69.67276 -8.372599l1104.0 0l0 511.99997l-1104.0 0z" fill-rule="evenodd"/><path fill="#000000" d="m455.49698 20.538519l0 19.296877l-6.859375 0l0 -19.296877l6.859375 0zm14.238281 0l20.671875 0l0 9.28125q0 3.937502 -0.75 6.375002q-0.734375 2.4375 -2.5625 4.9375l-1.890625 2.53125q-2.859375 3.828125 -2.859375 8.1875l0 5.984375l-6.703125 0l0 -5.03125q0 -4.53125 0.890625 -6.8125q0.890625 -2.296875 2.625 -4.5l2.109375 -2.671875q1.546875 -1.96875 1.984375 -3.546875q0.4375 -1.59375 0.4375 -4.093752l0 -5.015625l-20.640625 0l0 -19.875l6.6875 0l0 14.25zm33.109375 15.562502l-5.765625 -15.562502l6.578125 0l2.734375 8.21875q1.65625 -3.625 5.171875 -6.125q3.5155945 -2.515625 7.5624695 -2.515625q4.28125 0 7.390625 2.203125q3.125 2.1875 4.53125 6.40625q1.40625 4.218752 1.40625 12.687502l0 16.421875l-19.234375 0l0 -5.625l12.4375 0l0 -10.9375q0 -6.1875 -0.40625 -9.015625q-0.390625 -2.828127 -2.0625 -4.593752q-1.671875 -1.78125 -4.203125 -1.78125q-3.9375 0 -6.703125 4.0625q-2.7499695 4.046877 -4.6874695 14.078127l-2.640625 13.8125l-6.78125 0l2.953125 -14.5625q0.421875 -2.0625 1.71875 -7.171875zm47.01169 -15.562502l0 37.296875l-6.859375 0l0 -37.296875l6.859375 0zm40.45703 5.625l-6.359375 0l0 31.671877l-6.6875 0l0 -31.671877l-20.390625 0l0 -5.625l33.4375 0l0 5.625zm21.691406 31.671877l-18.0 0l0 -5.625l11.28125 0l0 -18.28125q0 -3.031252 -0.453125 -4.593752q-0.453125 -1.5625 -1.953125 -2.5q-1.484375 -0.953125 -3.984375 -0.953125q-2.140625 0 -3.828125 0.34375l-0.5 -5.34375q2.359375 -0.765625 5.765625 -0.765625q4.78125 0 7.3125 1.796875q2.53125 1.78125 3.4375 4.40625q0.921875 2.609375 0.921875 7.390627l0 24.125zm6.6796875 -36.953125q5.421875 -0.765625 9.953125 -0.765625q11.3125 0 15.765625 4.375q4.453125 4.375 4.453125 13.203127l0 20.140625l-6.6875 0l0 -18.359375q0 -5.09375 -1.09375 -7.687502q-1.078125 -2.609375 -4.171875 -4.21875q-3.09375 -1.625 -8.65625 -1.625q-3.765625 0 -9.0 0.703125l-0.5625 -5.765625z" fill-rule="nonzero"/><path fill="#000000" d="m682.536 20.538519l0 19.296877l-6.859375 0l0 -19.296877l6.859375 0zm44.05078 37.296875l-8.296875 0l-14.25 -20.140625q-3.296875 1.78125 -3.890625 7.234375l-1.515625 12.90625l-6.96875 0l1.515625 -12.90625q1.0625 -9.0 7.3125 -12.15625l-8.6875 -12.234377l8.265625 0l11.953125 16.687502q2.1875 -1.4375 3.046875 -3.25q0.859375 -1.8125 1.34375 -5.953127l0.890625 -7.484375l6.953125 0l-0.84375 7.6875q-0.5625 4.968752 -2.234375 8.156252q-1.671875 3.171875 -5.78125 5.671875l11.1875 15.78125zm22.035156 0l-18.0 0l0 -5.625l11.28125 0l0 -18.28125q0 -3.031252 -0.453125 -4.593752q-0.453125 -1.5625 -1.953125 -2.5q-1.484375 -0.953125 -3.984375 -0.953125q-2.140625 0 -3.828125 0.34375l-0.5 -5.34375q2.359375 -0.765625 5.765625 -0.765625q4.78125 0 7.3125 1.796875q2.53125 1.78125 3.4375 4.40625q0.921875 2.609375 0.921875 7.390627l0 24.125zm6.6796875 -0.875l1.15625 -5.03125q1.828125 0.625 3.984375 0.625q2.421875 0 3.328125 -1.0625q0.921875 -1.078125 0.921875 -3.890625l0 -21.515627q-3.03125 0 -7.421875 0.640625l-0.59375 -5.59375q8.015625 -1.015625 16.28125 -1.015625q8.359375 0 12.859375 1.40625q4.5 1.40625 6.875 5.15625q2.375 3.734375 2.375 11.015627l0 20.140625l-6.71875 0l0 -18.359375q0 -5.4375 -0.828125 -7.968752q-0.828125 -2.53125 -3.609375 -4.109375q-2.765625 -1.59375 -9.171875 -1.59375l-3.375 0.078125l0 22.593752q0 3.515625 -0.65625 5.390625q-0.640625 1.859375 -2.703125 3.0625q-2.046875 1.1875 -6.125 1.1875q-3.3125 0 -6.578125 -1.15625z" fill-rule="nonzero"/><path fill="#000000" d="m149.35669 104.63861q0 0.578125 -0.078125 0.984375q-0.078125 0.390625 -0.3125 0.640625q-0.234375 0.25 -0.59375 0.359375q-0.359375 0.09375 -0.921875 0.09375q-0.59375 0 -0.953125 -0.09375q-0.359375 -0.109375 -0.578125 -0.359375q-0.21875 -0.25 -0.3125 -0.640625q-0.078125 -0.40625 -0.078125 -0.984375q0 -0.625 0.078125 -1.03125q0.09375 -0.40625 0.3125 -0.65625q0.21875 -0.25 0.578125 -0.34375q0.359375 -0.109375 0.953125 -0.109375q0.5625 0 0.921875 0.109375q0.359375 0.09375 0.59375 0.34375q0.234375 0.25 0.3125 0.65625q0.078125 0.40625 0.078125 1.03125zm0 12.640625q0 0.609375 -0.078125 1.015625q-0.078125 0.390625 -0.3125 0.640625q-0.234375 0.25 -0.59375 0.34375q-0.359375 0.09375 -0.921875 0.09375q-0.59375 0 -0.953125 -0.09375q-0.359375 -0.09375 -0.578125 -0.34375q-0.21875 -0.25 -0.3125 -0.640625q-0.078125 -0.40625 -0.078125 -1.015625q0 -0.59375 0.078125 -1.0q0.09375 -0.421875 0.3125 -0.65625q0.21875 -0.234375 0.578125 -0.34375q0.359375 -0.109375 0.953125 -0.109375q0.5625 0 0.921875 0.109375q0.359375 0.109375 0.59375 0.34375q0.234375 0.234375 0.3125 0.65625q0.078125 0.40625 0.078125 1.0z" fill-rule="nonzero"/><path fill="#000000" d="m172.12613 119.216736l-4.296875 0l-7.390625 -10.4375q-1.71875 0.921875 -2.015625 3.75l-0.796875 6.6875l-3.609375 0l0.796875 -6.6875q0.546875 -4.671875 3.78125 -6.3125l-4.5 -6.34375l4.28125 0l6.203125 8.65625q1.125 -0.734375 1.5625 -1.671875q0.453125 -0.953125 0.71875 -3.09375l0.453125 -3.890625l3.609375 0l-0.4375 4.0q-0.296875 2.5625 -1.171875 4.21875q-0.859375 1.640625 -2.984375 2.9375l5.796875 8.1875zm17.327805 -2.921875l3.078125 0l0 2.921875l-18.5 0l0 -2.921875l11.9375 0l0 -6.59375q0 -2.703125 -0.609375 -4.046875q-0.59375 -1.359375 -2.171875 -2.15625q-1.5625 -0.8125 -4.90625 -0.8125q-1.1875 0 -3.65625 0.25l-0.296875 -2.875q2.453125 -0.40625 5.234375 -0.40625q5.203125 0 7.546875 2.265625q2.34375 2.265625 2.34375 6.859375l0 7.515625zm6.637802 -16.0625q3.296875 -0.578125 6.421875 -0.578125q6.046875 0 8.359375 2.25q2.3125 2.234375 2.3125 6.875l0 10.4375l-3.484375 0l0 -9.515625q0 -2.890625 -0.671875 -4.25q-0.671875 -1.359375 -2.328125 -2.0625q-1.640625 -0.703125 -4.796875 -0.703125q-2.484375 0 -5.515625 0.515625l-0.296875 -2.96875zm3.703125 8.078125l0 10.90625l-3.484375 0l0 -10.90625l3.484375 0z" fill-rule="nonzero"/><path fill="#000000" d="m225.0041 100.060486q2.796875 -0.40625 5.15625 -0.40625q5.859375 0 8.171875 2.28125q2.3125 2.265625 2.3125 6.84375l0 10.4375l-3.46875 0l0 -9.515625q0 -2.640625 -0.5625 -3.984375q-0.5625 -1.359375 -2.171875 -2.1875q-1.609375 -0.84375 -4.484375 -0.84375q-1.953125 0 -4.671875 0.359375l-0.28125 -2.984375zm36.432236 2.734375l-3.296875 0l0 16.421875l-3.4687347 0l0 -16.421875l-10.578125 0l0 -2.921875l17.343735 0l0 2.921875zm2.458313 6.828125q0 -4.625 2.484375 -7.4375q2.484375 -2.828125 6.59375 -2.828125q2.4375 0 4.40625 1.0625q1.96875 1.0625 3.3125 3.40625q1.359375 2.328125 1.359375 5.796875q0 2.875 -1.03125 5.140625q-1.015625 2.25 -3.078125 3.640625q-2.046875 1.3749924 -4.96875 1.3749924q-4.109375 0 -6.59375 -2.7812424q-2.484375 -2.78125 -2.484375 -7.375zm3.8125 0q0 3.4375 1.375 5.34375q1.390625 1.90625 3.890625 1.90625q2.703125 0 4.0 -2.0625q1.296875 -2.0625 1.296875 -5.21875q0 -3.5 -1.40625 -5.453125q-1.390625 -1.953125 -3.890625 -1.953125q-2.640625 0 -3.953125 2.109375q-1.3125 2.109375 -1.3125 5.328125zm32.30951 6.671875l3.078125 0l0 2.921875l-18.5 0l0 -2.921875l11.9375 0l0 -6.59375q0 -2.703125 -0.609375 -4.046875q-0.59375 -1.359375 -2.171875 -2.15625q-1.5625 -0.8125 -4.90625 -0.8125q-1.1875 0 -3.65625 0.25l-0.296875 -2.875q2.453125 -0.40625 5.234375 -0.40625q5.203125 0 7.546875 2.265625q2.34375 2.265625 2.34375 6.859375l0 7.515625z" fill-rule="nonzero"/><path fill="#000000" d="m330.5153 102.79486l-3.296875 0l0 16.421875l-3.4687805 0l0 -16.421875l-10.578125 0l0 -2.921875l17.34378 0l0 2.921875zm7.1926575 -2.921875l0 10.015625l-3.546875 0l0 -10.015625l3.546875 0zm7.2825623 8.078125l-3.0 -8.078125l3.40625 0l1.421875 4.265625q0.859375 -1.875 2.6875 -3.171875q1.828125 -1.3125 3.921875 -1.3125q2.21875 0 3.828125 1.140625q1.625 1.140625 2.34375 3.328125q0.734375 2.1875 0.734375 6.578125l0 8.515625l-9.96875 0l0 -2.921875l6.453125 0l0 -5.65625q0 -3.21875 -0.21875 -4.6875q-0.203125 -1.46875 -1.078125 -2.375q-0.859375 -0.921875 -2.171875 -0.921875q-2.046875 0 -3.484375 2.109375q-1.421875 2.09375 -2.421875 7.296875l-1.359375 7.15625l-3.53125 0l1.53125 -7.546875q0.21875 -1.078125 0.90625 -3.71875zm18.718262 10.8125l0.59375 -2.609375q0.953125 0.328125 2.0625 0.328125q1.25 0 1.71875 -0.546875q0.484375 -0.5625 0.484375 -2.015625l0 -11.15625q-1.5625 0 -3.84375 0.328125l-0.3125 -2.90625q4.15625 -0.53125 8.4375 -0.53125q4.34375 0 6.671875 0.734375q2.328125 0.734375 3.5625 2.671875q1.234375 1.9375 1.234375 5.71875l0 10.4375l-3.484375 0l0 -9.515625q0 -2.828125 -0.4375 -4.140625q-0.421875 -1.3125 -1.859375 -2.125q-1.4375 -0.828125 -4.75 -0.828125l-1.75 0.046875l0 11.71875q0 1.8125 -0.34375 2.78125q-0.328125 0.96875 -1.40625 1.59375q-1.0625 0.609375 -3.171875 0.609375q-1.71875 0 -3.40625 -0.59375z" fill-rule="nonzero"/><path fill="#000000" d="m401.77457 99.872986l0 19.34375l-3.546875 0l0 -19.34375l3.546875 0zm8.595093 17.0l-3.359375 -17.0l3.65625 0l2.875 15.921875q3.09375 -1.21875 3.875 -3.5q0.78125 -2.296875 0.78125 -5.765625l0.1875 -6.65625l3.515625 0l-0.1875 5.125q-0.140625 3.703125 -0.3125 5.203125q-0.171875 1.484375 -0.953125 3.28125q-0.765625 1.796875 -2.265625 3.125q-1.5 1.3125 -4.390625 2.40625q-2.875 1.0937424 -8.234375 1.9843674l-0.5 -3.0156174q3.265625 -0.484375 5.3125 -1.109375zm20.367004 -17.0l0 10.015625l-3.546875 0l0 -10.015625l3.546875 0zm5.048218 0.640625q3.15625 -0.96875 6.609375 -0.96875q4.234375 0 7.078125 2.5q2.84375 2.5 2.84375 7.234375q0 4.6875 -2.921875 7.46875q-2.90625 2.765625 -8.125 2.765625q-3.546875 0 -5.609375 -1.296875l0.84375 -2.875q1.78125 1.140625 4.53125 1.140625q3.125 0 5.375 -1.765625q2.25 -1.78125 2.25 -5.359375q0 -3.140625 -1.765625 -5.046875q-1.765625 -1.90625 -4.71875 -1.90625q-1.53125 0 -3.03125 0.359375l0 3.53125q0 2.234375 2.234375 2.234375q0.921875 0 1.53125 -0.21875l0.375 2.546875q-1.0625 0.453125 -2.46875 0.453125q-2.359375 0 -3.703125 -1.28125q-1.328125 -1.296875 -1.328125 -3.8125l0 -5.703125zm24.55185 -0.640625l0 19.34375l-3.546875 0l0 -19.34375l3.546875 0zm9.204437 0l0 10.015625l-3.546875 0l0 -10.015625l3.546875 0z" fill-rule="nonzero"/><path fill="#000000" d="m500.5127 119.216736l-16.875 0l0 -18.921875q3.890625 -0.640625 7.15625 -0.640625q3.578125 0 5.75 1.046875q2.1875 1.046875 3.078125 2.796875q0.890625 1.75 0.890625 4.890625l0 10.828125zm-3.484375 -2.921875l0 -7.5625q0 -2.125 -0.46875 -3.34375q-0.46875 -1.234375 -1.890625 -1.96875q-1.421875 -0.734375 -4.09375 -0.734375q-1.546875 0 -3.453125 0.25l0 13.359375l9.90625 0zm12.502106 -16.421875l0 10.015625l-3.546875 0l0 -10.015625l3.546875 0zm8.595062 17.0l-3.359375 -17.0l3.65625 0l2.875 15.921875q3.09375 -1.21875 3.875 -3.5q0.78125 -2.296875 0.78125 -5.765625l0.1875 -6.65625l3.515625 0l-0.1875 5.125q-0.140625 3.703125 -0.3125 5.203125q-0.171875 1.484375 -0.953125 3.28125q-0.765625 1.796875 -2.265625 3.125q-1.5 1.3125 -4.390625 2.40625q-2.875 1.0937424 -8.234375 1.9843674l-0.5 -3.0156174q3.265625 -0.484375 5.3125 -1.109375zm20.367004 -17.0l0 19.34375l-3.546875 0l0 -19.34375l3.546875 0zm19.157593 16.421875l3.078125 0l0 2.921875l-18.5 0l0 -2.921875l11.9375 0l0 -6.59375q0 -2.703125 -0.609375 -4.046875q-0.59375 -1.359375 -2.171875 -2.15625q-1.5625 -0.8125 -4.90625 -0.8125q-1.1875 0 -3.65625 0.25l-0.296875 -2.875q2.453125 -0.40625 5.234375 -0.40625q5.203125 0 7.546875 2.265625q2.34375 2.265625 2.34375 6.859375l0 7.515625zm10.278442 -16.421875l0 10.015625l-3.546875 0l0 -10.015625l3.546875 0zm3.5637817 0.1875q2.796875 -0.40625 5.15625 -0.40625q5.859375 0 8.171875 2.28125q2.3125 2.265625 2.3125 6.84375l0 10.4375l-3.46875 0l0 -9.515625q0 -2.640625 -0.5625 -3.984375q-0.5625 -1.359375 -2.171875 -2.1875q-1.609375 -0.84375 -4.484375 -0.84375q-1.953125 0 -4.671875 0.359375l-0.28125 -2.984375zm21.010376 0.171875q3.296875 -0.578125 6.421875 -0.578125q6.046875 0 8.359375 2.25q2.3125 2.234375 2.3125 6.875l0 10.4375l-3.484375 0l0 -9.515625q0 -2.890625 -0.671875 -4.25q-0.671875 -1.359375 -2.328125 -2.0625q-1.640625 -0.703125 -4.796875 -0.703125q-2.484375 0 -5.515625 0.515625l-0.296875 -2.96875zm3.703125 8.078125l0 10.90625l-3.484375 0l0 -10.90625l3.484375 0z" fill-rule="nonzero"/><path fill="#000000" d="m627.35254 117.23236q0 1.296875 -0.4375 1.71875q-0.421875 0.421875 -1.546875 0.421875q-1.09375 0 -1.515625 -0.40625q-0.421875 -0.421875 -0.421875 -1.6875q0 -1.28125 0.421875 -1.703125q0.4375 -0.4375 1.5625 -0.4375q1.09375 0 1.515625 0.421875q0.421875 0.40625 0.421875 1.671875z" fill-rule="nonzero"/><path fill="#000000" d="m649.807 119.216736l-16.875 0l0 -18.921875q3.890625 -0.640625 7.15625 -0.640625q3.578125 0 5.75 1.046875q2.1875 1.046875 3.078125 2.796875q0.890625 1.75 0.890625 4.890625l0 10.828125zm-3.484375 -2.921875l0 -7.5625q0 -2.125 -0.46875 -3.34375q-0.46875 -1.234375 -1.890625 -1.96875q-1.421875 -0.734375 -4.09375 -0.734375q-1.546875 0 -3.453125 0.25l0 13.359375l9.90625 0zm12.502075 -16.421875l0 10.015625l-3.546875 0l0 -10.015625l3.546875 0zm8.595093 17.0l-3.359375 -17.0l3.65625 0l2.875 15.921875q3.09375 -1.21875 3.875 -3.5q0.78125 -2.296875 0.78125 -5.765625l0.1875 -6.65625l3.515625 0l-0.1875 5.125q-0.140625 3.703125 -0.3125 5.203125q-0.171875 1.484375 -0.953125 3.28125q-0.765625 1.796875 -2.265625 3.125q-1.5 1.3125 -4.390625 2.40625q-2.875 1.0937424 -8.234375 1.9843674l-0.5 -3.0156174q3.265625 -0.484375 5.3125 -1.109375zm20.367065 -17.0l0 19.34375l-3.546875 0l0 -19.34375l3.546875 0zm19.157532 16.421875l3.078125 0l0 2.921875l-18.5 0l0 -2.921875l11.9375 0l0 -6.59375q0 -2.703125 -0.609375 -4.046875q-0.59375 -1.359375 -2.171875 -2.15625q-1.5625 -0.8125 -4.90625 -0.8125q-1.1875 0 -3.65625 0.25l-0.296875 -2.875q2.453125 -0.40625 5.234375 -0.40625q5.203125 0 7.546875 2.265625q2.34375 2.265625 2.34375 6.859375l0 7.515625zm10.278442 -16.421875l0 10.015625l-3.546875 0l0 -10.015625l3.546875 0zm3.5638428 0.1875q2.796875 -0.40625 5.15625 -0.40625q5.859375 0 8.171875 2.28125q2.3125 2.265625 2.3125 6.84375l0 10.4375l-3.46875 0l0 -9.515625q0 -2.640625 -0.5625 -3.984375q-0.5625 -1.359375 -2.171875 -2.1875q-1.609375 -0.84375 -4.484375 -0.84375q-1.953125 0 -4.671875 0.359375l-0.28125 -2.984375z" fill-rule="nonzero"/><path fill="#000000" d="m759.28284 106.716736l0 5.9375l1.78125 6.5625l-3.40625 0l-1.328125 -4.734375q-2.25 0 -3.75 2.71875l-1.0625 2.015625l-3.5625 0l1.53125 -2.984375q1.375 -2.671875 3.171875 -3.5q1.8125 -0.828125 3.140625 -0.828125l0 -5.078125q0 -1.578125 -0.234375 -2.375q-0.21875 -0.8125 -1.015625 -1.296875q-0.78125 -0.5 -2.078125 -0.5q-1.109375 0 -1.984375 0.171875l-0.25 -2.765625q1.21875 -0.40625 2.984375 -0.40625q2.484375 0 3.796875 0.9375q1.3125 0.921875 1.78125 2.28125q0.484375 1.359375 0.484375 3.84375zm18.9693 -6.84375l-0.1875 3.484375q-0.09375 1.734375 -0.390625 2.796875q-0.296875 1.0625 -1.265625 2.203125q-0.96875 1.125 -3.078125 2.34375l4.140625 6.453125l0 2.0625l-13.9375 0l0 -2.921875l9.71875 0l-10.671875 -16.421875l3.953125 0l5.375 8.59375q1.359375 -1.0 1.9375 -2.140625q0.59375 -1.140625 0.59375 -3.234375l0.1875 -3.21875l3.625 0zm4.7370605 0.359375q3.296875 -0.578125 6.421875 -0.578125q6.046875 0 8.359375 2.25q2.3125 2.234375 2.3125 6.875l0 10.4375l-3.484375 0l0 -9.515625q0 -2.890625 -0.671875 -4.25q-0.671875 -1.359375 -2.328125 -2.0625q-1.640625 -0.703125 -4.796875 -0.703125q-2.484375 0 -5.515625 0.515625l-0.296875 -2.96875zm3.703125 8.078125l0 10.90625l-3.484375 0l0 -10.90625l3.484375 0z" fill-rule="nonzero"/><path fill="#000000" d="m815.72974 99.872986l10.71875 0l0 4.8125q0 2.046875 -0.390625 3.3125q-0.375 1.265625 -1.328125 2.5625l-0.984375 1.3125q-1.484375 1.984375 -1.484375 4.25l0 3.09375l-3.46875 0l0 -2.609375q0 -2.34375 0.453125 -3.53125q0.46875 -1.1875 1.359375 -2.328125l1.09375 -1.390625q0.8125 -1.015625 1.03125 -1.828125q0.234375 -0.828125 0.234375 -2.125l0 -2.609375l-10.703125 0l0 -10.296875l3.46875 0l0 7.375zm18.481934 17.0l-3.359375 -17.0l3.65625 0l2.875 15.921875q3.09375 -1.21875 3.875 -3.5q0.78125 -2.296875 0.78125 -5.765625l0.1875 -6.65625l3.515625 0l-0.1875 5.125q-0.140625 3.703125 -0.3125 5.203125q-0.171875 1.484375 -0.953125 3.28125q-0.765625 1.796875 -2.265625 3.125q-1.5 1.3125 -4.390625 2.40625q-2.875 1.0937424 -8.234375 1.9843674l-0.5 -3.0156174q3.265625 -0.484375 5.3125 -1.109375z" fill-rule="nonzero"/><path fill="#000000" d="m863.0177 99.872986l0 19.34375l-3.546875 0l0 -19.34375l3.546875 0zm8.595093 17.0l-3.359375 -17.0l3.65625 0l2.875 15.921875q3.09375 -1.21875 3.875 -3.5q0.78125 -2.296875 0.78125 -5.765625l0.1875 -6.65625l3.515625 0l-0.1875 5.125q-0.140625 3.703125 -0.3125 5.203125q-0.171875 1.484375 -0.953125 3.28125q-0.765625 1.796875 -2.265625 3.125q-1.5 1.3125 -4.390625 2.40625q-2.875 1.0937424 -8.234375 1.9843674l-0.5 -3.0156174q3.265625 -0.484375 5.3125 -1.109375zm20.367004 -17.0l0 10.015625l-3.546875 0l0 -10.015625l3.546875 0zm5.048218 0.640625q3.15625 -0.96875 6.609375 -0.96875q4.234375 0 7.078125 2.5q2.84375 2.5 2.84375 7.234375q0 4.6875 -2.921875 7.46875q-2.90625 2.765625 -8.125 2.765625q-3.546875 0 -5.609375 -1.296875l0.84375 -2.875q1.78125 1.140625 4.53125 1.140625q3.125 0 5.375 -1.765625q2.25 -1.78125 2.25 -5.359375q0 -3.140625 -1.765625 -5.046875q-1.765625 -1.90625 -4.71875 -1.90625q-1.53125 0 -3.03125 0.359375l0 3.53125q0 2.234375 2.234375 2.234375q0.921875 0 1.53125 -0.21875l0.375 2.546875q-1.0625 0.453125 -2.46875 0.453125q-2.359375 0 -3.703125 -1.28125q-1.328125 -1.296875 -1.328125 -3.8125l0 -5.703125zm24.551819 -0.640625l0 19.34375l-3.546875 0l0 -19.34375l3.546875 0zm9.204468 0l0 10.015625l-3.546875 0l0 -10.015625l3.546875 0z" fill-rule="nonzero"/><path fill="#000000" d="m948.42773 99.872986l0 10.015625l-3.546875 0l0 -10.015625l3.546875 0zm9.204468 0l0 19.34375l-3.546875 0l0 -19.34375l3.546875 0zm4.470093 9.75q0 -4.625 2.484375 -7.4375q2.484375 -2.828125 6.59375 -2.828125q2.4375 0 4.40625 1.0625q1.96875 1.0625 3.3125 3.40625q1.359375 2.328125 1.359375 5.796875q0 2.875 -1.03125 5.140625q-1.015625 2.25 -3.078125 3.640625q-2.046875 1.3749924 -4.96875 1.3749924q-4.109375 0 -6.59375 -2.7812424q-2.484375 -2.78125 -2.484375 -7.375zm3.8125 0q0 3.4375 1.375 5.34375q1.390625 1.90625 3.890625 1.90625q2.703125 0 4.0 -2.0625q1.296875 -2.0625 1.296875 -5.21875q0 -3.5 -1.40625 -5.453125q-1.390625 -1.953125 -3.890625 -1.953125q-2.640625 0 -3.953125 2.109375q-1.3125 2.109375 -1.3125 5.328125zm22.356323 -9.75l0 10.015625l-3.546875 0l0 -10.015625l3.546875 0zm13.251343 19.34375l-9.328125 0l0 -2.921875l5.84375 0l0 -9.46875q0 -1.578125 -0.234375 -2.375q-0.234375 -0.8125 -1.015625 -1.296875q-0.765625 -0.5 -2.0625 -0.5q-1.109375 0 -1.984375 0.171875l-0.25 -2.765625q1.21875 -0.40625 2.984375 -0.40625q2.484375 0 3.796875 0.9375q1.3125 0.921875 1.78125 2.28125q0.46875 1.359375 0.46875 3.84375l0 12.5zm19.065918 -2.921875l3.078125 0l0 2.921875l-18.5 0l0 -2.921875l11.9375 0l0 -6.59375q0 -2.703125 -0.609375 -4.046875q-0.59375 -1.359375 -2.171875 -2.15625q-1.5625 -0.8125 -4.90625 -0.8125q-1.1875 0 -3.65625 0.25l-0.296875 -2.875q2.453125 -0.40625 5.234375 -0.40625q5.203125 0 7.546875 2.265625q2.34375 2.265625 2.34375 6.859375l0 7.515625z" fill-rule="nonzero"/><path fill="#000000" d="m1035.665 99.872986l15.78125 0l0 4.8125q0 2.0625 -0.375 3.3125q-0.375 1.25 -1.328125 2.5625l-0.96875 1.3125q-1.5 2.0 -1.5 4.25l0 3.09375l-3.484375 0l0 -2.609375q0 -1.984375 0.359375 -3.203125q0.359375 -1.234375 1.484375 -2.65625l1.078125 -1.390625q0.78125 -1.0 1.03125 -1.8125q0.25 -0.8125 0.25 -2.140625l0 -2.609375l-12.328125 0l0 -2.921875zm0.296875 26.781242l0 -18.343742l3.328125 0l0 18.343742l-3.328125 0zm22.054443 -26.781242l10.71875 0l0 4.8125q0 2.046875 -0.390625 3.3125q-0.375 1.265625 -1.328125 2.5625l-0.984375 1.3125q-1.484375 1.984375 -1.484375 4.25l0 3.09375l-3.46875 0l0 -2.609375q0 -2.34375 0.453125 -3.53125q0.46875 -1.1875 1.359375 -2.328125l1.09375 -1.390625q0.8125 -1.015625 1.03125 -1.828125q0.234375 -0.828125 0.234375 -2.125l0 -2.609375l-10.703125 0l0 -10.296875l3.46875 0l0 7.375zm32.419434 19.34375l-3.484375 0l0 -10.484375q0 -2.125 -0.46875 -3.34375q-0.46875 -1.234375 -1.890625 -1.96875q-1.421875 -0.734375 -4.09375 -0.734375q-1.546875 0 -3.453125 0.25l0 16.28125l-3.484375 0l0 -18.921875q3.890625 -0.640625 7.15625 -0.640625q3.578125 0 5.75 1.046875q2.1875 1.046875 3.078125 2.796875q0.890625 1.75 0.890625 4.890625l0 10.828125z" fill-rule="nonzero"/><path fill="#000000" d="m1114.5189 99.872986l10.71875 0l0 4.8125q0 2.046875 -0.390625 3.3125q-0.375 1.265625 -1.328125 2.5625l-0.984375 1.3125q-1.484375 1.984375 -1.484375 4.25l0 3.09375l-3.46875 0l0 -2.609375q0 -2.34375 0.453125 -3.53125q0.46875 -1.1875 1.359375 -2.328125l1.09375 -1.390625q0.8125 -1.015625 1.03125 -1.828125q0.234375 -0.828125 0.234375 -2.125l0 -2.609375l-10.703125 0l0 -10.296875l3.46875 0l0 7.375zm14.169434 19.09375l0.484375 -3.140625q1.703125 0.546875 3.515625 0.546875q2.0625 0 3.453125 -0.84375q1.40625 -0.84375 2.15625 -2.390625q0.765625 -1.5625 0.765625 -3.578125q0 -3.046875 -1.65625 -4.953125q-1.640625 -1.921875 -4.71875 -1.921875q-1.828125 0 -3.515625 0.546875l-0.484375 -3.140625q2.140625 -0.546875 3.8125 -0.546875q4.84375 0 7.5625 2.828125q2.734375 2.828125 2.734375 7.1875q0 2.84375 -1.171875 5.03125q-1.171875 2.1875 -3.421875 3.5625q-2.234375 1.359375 -5.703125 1.359375q-1.6875 0 -3.8125 -0.546875zm32.080933 -2.671875l3.078125 0l0 2.921875l-18.5 0l0 -2.921875l11.9375 0l0 -6.59375q0 -2.703125 -0.609375 -4.046875q-0.59375 -1.359375 -2.171875 -2.15625q-1.5625 -0.8125 -4.90625 -0.8125q-1.1875 0 -3.65625 0.25l-0.296875 -2.875q2.453125 -0.40625 5.234375 -0.40625q5.203125 0 7.546875 2.265625q2.34375 2.265625 2.34375 6.859375l0 7.515625z" fill-rule="nonzero"/><path fill="#000000" d="m342.3973 157.89902q0 1.296875 -0.4375 1.71875q-0.421875 0.421875 -1.546875 0.421875q-1.09375 0 -1.515625 -0.40625q-0.421875 -0.421875 -0.421875 -1.6875q0 -1.28125 0.421875 -1.703125q0.4375 -0.4375 1.5625 -0.4375q1.09375 0 1.515625 0.421875q0.421875 0.40625 0.421875 1.671875z" fill-rule="nonzero"/><path fill="#000000" d="m347.88297 140.53964l15.78125 0l0 4.8125q0 2.0625 -0.375 3.3125q-0.375 1.25 -1.328125 2.5625l-0.96875 1.3125q-1.5 2.0 -1.5 4.25l0 3.09375l-3.484375 0l0 -2.609375q0 -1.984375 0.359375 -3.203125q0.359375 -1.234375 1.484375 -2.65625l1.078125 -1.390625q0.78125 -1.0 1.03125 -1.8125q0.25 -0.8125 0.25 -2.140625l0 -2.609375l-12.328125 0l0 -2.921875zm0.296875 26.78125l0 -18.34375l3.328125 0l0 18.34375l-3.328125 0zm23.866943 -26.78125l0 19.34375l-3.546875 0l0 -19.34375l3.546875 0zm3.5638123 0.1875q2.796875 -0.40625 5.15625 -0.40625q5.859375 0 8.171875 2.28125q2.3125 2.265625 2.3125 6.84375l0 10.4375l-3.46875 0l0 -9.515625q0 -2.640625 -0.5625 -3.984375q-0.5625 -1.359375 -2.171875 -2.1875q-1.609375 -0.84375 -4.484375 -0.84375q-1.953125 0 -4.671875 0.359375l-0.28125 -2.984375zm24.651001 -0.1875l0 10.015625l-3.546875 0l0 -10.015625l3.546875 0z" fill-rule="nonzero"/><path fill="#000000" d="m417.29562 157.53964l-3.359375 -17.0l3.65625 0l2.875 15.921875q3.09375 -1.21875 3.875 -3.5q0.78125 -2.296875 0.78125 -5.765625l0.1875 -6.65625l3.515625 0l-0.1875 5.125q-0.140625 3.703125 -0.3125 5.203125q-0.171875 1.484375 -0.953125 3.28125q-0.765625 1.796875 -2.265625 3.125q-1.5 1.3125 -4.390625 2.40625q-2.875 1.09375 -8.234375 1.984375l-0.5 -3.015625q3.265625 -0.484375 5.3125 -1.109375zm20.367035 -17.0l0 19.34375l-3.546875 0l0 -19.34375l3.546875 0zm19.157562 16.421875l3.078125 0l0 2.921875l-18.5 0l0 -2.921875l11.9375 0l0 -6.59375q0 -2.703125 -0.609375 -4.046875q-0.59375 -1.359375 -2.171875 -2.15625q-1.5625 -0.8125 -4.90625 -0.8125q-1.1875 0 -3.65625 0.25l-0.296875 -2.875q2.453125 -0.40625 5.234375 -0.40625q5.203125 0 7.546875 2.265625q2.34375 2.265625 2.34375 6.859375l0 7.515625zm10.278442 -16.421875l0 10.015625l-3.546875 0l0 -10.015625l3.546875 0zm3.5638428 0.1875q2.796875 -0.40625 5.15625 -0.40625q5.859375 0 8.171875 2.28125q2.3125 2.265625 2.3125 6.84375l0 10.4375l-3.46875 0l0 -9.515625q0 -2.640625 -0.5625 -3.984375q-0.5625 -1.359375 -2.171875 -2.1875q-1.609375 -0.84375 -4.484375 -0.84375q-1.953125 0 -4.671875 0.359375l-0.28125 -2.984375z" fill-rule="nonzero"/><path fill="#000000" d="m504.14307 157.27402q0 0.5625 -0.0625 1.046875q-0.046875 0.46875 -0.1875 0.890625q-0.125 0.421875 -0.328125 0.828125q-0.203125 0.40625 -0.515625 0.859375l-2.5 3.765625q-0.09375 0.125 -0.21875 0.203125q-0.109375 0.09375 -0.28125 0.171875q-0.171875 0.078125 -0.40625 0.09375q-0.21875 0.03125 -0.578125 0.03125q-0.296875 0 -0.515625 -0.03125q-0.203125 -0.015625 -0.296875 -0.078125q-0.09375 -0.0625 -0.109375 -0.171875q0 -0.109375 0.078125 -0.265625l2.421875 -5.0l0 -2.34375q0 -0.484375 0.09375 -0.78125q0.109375 -0.296875 0.328125 -0.4375q0.21875 -0.140625 0.546875 -0.1875q0.328125 -0.0625 0.796875 -0.0625q0.453125 0 0.78125 0.0625q0.328125 0.046875 0.53125 0.1875q0.21875 0.140625 0.3125 0.4375q0.109375 0.296875 0.109375 0.78125z" fill-rule="nonzero"/><path fill="#000000" d="m513.0662 140.53964l0 26.78125l-3.5468445 0l0 -26.78125l3.5468445 0zm19.157593 16.421875l3.078125 0l0 2.921875l-18.5 0l0 -2.921875l11.9375 0l0 -6.59375q0 -2.703125 -0.609375 -4.046875q-0.59375 -1.359375 -2.171875 -2.15625q-1.5625 -0.8125 -4.90625 -0.8125q-1.1875 0 -3.65625 0.25l-0.296875 -2.875q2.453125 -0.40625 5.234375 -0.40625q5.203125 0 7.546875 2.265625q2.34375 2.265625 2.34375 6.859375l0 7.515625zm8.465942 -16.421875l10.71875 0l0 4.8125q0 2.046875 -0.390625 3.3125q-0.375 1.265625 -1.328125 2.5625l-0.984375 1.3125q-1.484375 1.984375 -1.484375 4.25l0 3.09375l-3.46875 0l0 -2.609375q0 -2.34375 0.453125 -3.53125q0.46875 -1.1875 1.359375 -2.328125l1.09375 -1.390625q0.8125 -1.015625 1.03125 -1.828125q0.234375 -0.828125 0.234375 -2.125l0 -2.609375l-10.703125 0l0 -10.296875l3.46875 0l0 7.375z" fill-rule="nonzero"/><path fill="#000000" d="m567.6106 157.53964l-3.359375 -17.0l3.65625 0l2.875 15.921875q3.09375 -1.21875 3.875 -3.5q0.78125 -2.296875 0.78125 -5.765625l0.1875 -6.65625l3.515625 0l-0.1875 5.125q-0.140625 3.703125 -0.3125 5.203125q-0.171875 1.484375 -0.953125 3.28125q-0.765625 1.796875 -2.265625 3.125q-1.5 1.3125 -4.390625 2.40625q-2.875 1.09375 -8.234375 1.984375l-0.5 -3.015625q3.265625 -0.484375 5.3125 -1.109375zm20.367065 -17.0l0 19.34375l-3.546875 0l0 -19.34375l3.546875 0zm19.157532 16.421875l3.078125 0l0 2.921875l-18.5 0l0 -2.921875l11.9375 0l0 -6.59375q0 -2.703125 -0.609375 -4.046875q-0.59375 -1.359375 -2.171875 -2.15625q-1.5625 -0.8125 -4.90625 -0.8125q-1.1875 0 -3.65625 0.25l-0.296875 -2.875q2.453125 -0.40625 5.234375 -0.40625q5.203125 0 7.546875 2.265625q2.34375 2.265625 2.34375 6.859375l0 7.515625zm10.278442 -16.421875l0 10.015625l-3.546875 0l0 -10.015625l3.546875 0zm3.5638428 0.1875q2.796875 -0.40625 5.15625 -0.40625q5.859375 0 8.171875 2.28125q2.3125 2.265625 2.3125 6.84375l0 10.4375l-3.46875 0l0 -9.515625q0 -2.640625 -0.5625 -3.984375q-0.5625 -1.359375 -2.171875 -2.1875q-1.609375 -0.84375 -4.484375 -0.84375q-1.953125 0 -4.671875 0.359375l-0.28125 -2.984375z" fill-rule="nonzero"/><path fill="#000000" d="m654.458 157.27402q0 0.5625 -0.0625 1.046875q-0.046875 0.46875 -0.1875 0.890625q-0.125 0.421875 -0.328125 0.828125q-0.203125 0.40625 -0.515625 0.859375l-2.5 3.765625q-0.09375 0.125 -0.21875 0.203125q-0.109375 0.09375 -0.28125 0.171875q-0.171875 0.078125 -0.40625 0.09375q-0.21875 0.03125 -0.578125 0.03125q-0.296875 0 -0.515625 -0.03125q-0.203125 -0.015625 -0.296875 -0.078125q-0.09375 -0.0625 -0.109375 -0.171875q0 -0.109375 0.078125 -0.265625l2.421875 -5.0l0 -2.34375q0 -0.484375 0.09375 -0.78125q0.109375 -0.296875 0.328125 -0.4375q0.21875 -0.140625 0.546875 -0.1875q0.328125 -0.0625 0.796875 -0.0625q0.453125 0 0.78125 0.0625q0.328125 0.046875 0.53125 0.1875q0.21875 0.140625 0.3125 0.4375q0.109375 0.296875 0.109375 0.78125z" fill-rule="nonzero"/><path fill="#000000" d="m676.70935 159.88339l-16.875 0l0 -18.921875q3.890625 -0.640625 7.15625 -0.640625q3.578125 0 5.75 1.046875q2.1875 1.046875 3.078125 2.796875q0.890625 1.75 0.890625 4.890625l0 10.828125zm-3.484375 -2.921875l0 -7.5625q0 -2.125 -0.46875 -3.34375q-0.46875 -1.234375 -1.890625 -1.96875q-1.421875 -0.734375 -4.09375 -0.734375q-1.546875 0 -3.453125 0.25l0 13.359375l9.90625 0zm12.502075 -16.421875l0 19.34375l-3.546875 0l0 -19.34375l3.546875 0zm20.985718 2.921875l-3.296875 0l0 16.421875l-3.46875 0l0 -16.421875l-10.578125 0l0 -2.921875l17.34375 0l0 2.921875zm20.833313 16.421875l-4.296875 0l-7.390625 -10.4375q-1.71875 0.921875 -2.015625 3.75l-0.796875 6.6875l-3.609375 0l0.796875 -6.6875q0.546875 -4.671875 3.78125 -6.3125l-4.5 -6.34375l4.28125 0l6.203125 8.65625q1.125 -0.734375 1.5625 -1.671875q0.453125 -0.953125 0.71875 -3.09375l0.453125 -3.890625l3.609375 0l-0.4375 4.0q-0.296875 2.5625 -1.171875 4.21875q-0.859375 1.640625 -2.984375 2.9375l5.796875 8.1875z" fill-rule="nonzero"/><path fill="#000000" d="m742.7503 157.53964l-3.359375 -17.0l3.65625 0l2.875 15.921875q3.09375 -1.21875 3.875 -3.5q0.78125 -2.296875 0.78125 -5.765625l0.1875 -6.65625l3.515625 0l-0.1875 5.125q-0.140625 3.703125 -0.3125 5.203125q-0.171875 1.484375 -0.953125 3.28125q-0.765625 1.796875 -2.265625 3.125q-1.5 1.3125 -4.390625 2.40625q-2.875 1.09375 -8.234375 1.984375l-0.5 -3.015625q3.265625 -0.484375 5.3125 -1.109375zm20.367004 -17.0l0 19.34375l-3.546875 0l0 -19.34375l3.546875 0zm19.157593 16.421875l3.078125 0l0 2.921875l-18.5 0l0 -2.921875l11.9375 0l0 -6.59375q0 -2.703125 -0.609375 -4.046875q-0.59375 -1.359375 -2.171875 -2.15625q-1.5625 -0.8125 -4.90625 -0.8125q-1.1875 0 -3.65625 0.25l-0.296875 -2.875q2.453125 -0.40625 5.234375 -0.40625q5.203125 0 7.546875 2.265625q2.34375 2.265625 2.34375 6.859375l0 7.515625zm10.278442 -16.421875l0 10.015625l-3.546875 0l0 -10.015625l3.546875 0zm3.5638428 0.1875q2.796875 -0.40625 5.15625 -0.40625q5.859375 0 8.171875 2.28125q2.3125 2.265625 2.3125 6.84375l0 10.4375l-3.46875 0l0 -9.515625q0 -2.640625 -0.5625 -3.984375q-0.5625 -1.359375 -2.171875 -2.1875q-1.609375 -0.84375 -4.484375 -0.84375q-1.953125 0 -4.671875 0.359375l-0.28125 -2.984375z" fill-rule="nonzero"/><path fill="#000000" d="m829.5978 157.27402q0 0.5625 -0.0625 1.046875q-0.046875 0.46875 -0.1875 0.890625q-0.125 0.421875 -0.328125 0.828125q-0.203125 0.40625 -0.515625 0.859375l-2.5 3.765625q-0.09375 0.125 -0.21875 0.203125q-0.109375 0.09375 -0.28125 0.171875q-0.171875 0.078125 -0.40625 0.09375q-0.21875 0.03125 -0.578125 0.03125q-0.296875 0 -0.515625 -0.03125q-0.203125 -0.015625 -0.296875 -0.078125q-0.09375 -0.0625 -0.109375 -0.171875q0 -0.109375 0.078125 -0.265625l2.421875 -5.0l0 -2.34375q0 -0.484375 0.09375 -0.78125q0.109375 -0.296875 0.328125 -0.4375q0.21875 -0.140625 0.546875 -0.1875q0.328125 -0.0625 0.796875 -0.0625q0.453125 0 0.78125 0.0625q0.328125 0.046875 0.53125 0.1875q0.21875 0.140625 0.3125 0.4375q0.109375 0.296875 0.109375 0.78125z" fill-rule="nonzero"/><path fill="#000000" d="m851.84906 159.88339l-16.875 0l0 -18.921875q3.890625 -0.640625 7.15625 -0.640625q3.578125 0 5.75 1.046875q2.1875 1.046875 3.078125 2.796875q0.890625 1.75 0.890625 4.890625l0 10.828125zm-3.484375 -2.921875l0 -7.5625q0 -2.125 -0.46875 -3.34375q-0.46875 -1.234375 -1.890625 -1.96875q-1.421875 -0.734375 -4.09375 -0.734375q-1.546875 0 -3.453125 0.25l0 13.359375l9.90625 0zm12.502075 -16.421875l0 19.34375l-3.546875 0l0 -19.34375l3.546875 0zm20.985718 2.921875l-3.296875 0l0 16.421875l-3.46875 0l0 -16.421875l-10.578125 0l0 -2.921875l17.34375 0l0 2.921875zm20.833313 16.421875l-4.296875 0l-7.390625 -10.4375q-1.71875 0.921875 -2.015625 3.75l-0.796875 6.6875l-3.609375 0l0.796875 -6.6875q0.546875 -4.671875 3.78125 -6.3125l-4.5 -6.34375l4.28125 0l6.203125 8.65625q1.125 -0.734375 1.5625 -1.671875q0.453125 -0.953125 0.71875 -3.09375l0.453125 -3.890625l3.609375 0l-0.4375 4.0q-0.296875 2.5625 -1.171875 4.21875q-0.859375 1.640625 -2.984375 2.9375l5.796875 8.1875z" fill-rule="nonzero"/><path fill="#000000" d="m917.8901 157.53964l-3.359375 -17.0l3.65625 0l2.875 15.921875q3.09375 -1.21875 3.875 -3.5q0.78125 -2.296875 0.78125 -5.765625l0.1875 -6.65625l3.515625 0l-0.1875 5.125q-0.140625 3.703125 -0.3125 5.203125q-0.171875 1.484375 -0.953125 3.28125q-0.765625 1.796875 -2.265625 3.125q-1.5 1.3125 -4.390625 2.40625q-2.875 1.09375 -8.234375 1.984375l-0.5 -3.015625q3.265625 -0.484375 5.3125 -1.109375zm20.367004 -17.0l0 19.34375l-3.546875 0l0 -19.34375l3.546875 0zm19.157593 16.421875l3.078125 0l0 2.921875l-18.5 0l0 -2.921875l11.9375 0l0 -6.59375q0 -2.703125 -0.609375 -4.046875q-0.59375 -1.359375 -2.171875 -2.15625q-1.5625 -0.8125 -4.90625 -0.8125q-1.1875 0 -3.65625 0.25l-0.296875 -2.875q2.453125 -0.40625 5.234375 -0.40625q5.203125 0 7.546875 2.265625q2.34375 2.265625 2.34375 6.859375l0 7.515625zm10.278442 -16.421875l0 10.015625l-3.546875 0l0 -10.015625l3.546875 0zm3.5638428 0.1875q2.796875 -0.40625 5.15625 -0.40625q5.859375 0 8.171875 2.28125q2.3125 2.265625 2.3125 6.84375l0 10.4375l-3.46875 0l0 -9.515625q0 -2.640625 -0.5625 -3.984375q-0.5625 -1.359375 -2.171875 -2.1875q-1.609375 -0.84375 -4.484375 -0.84375q-1.953125 0 -4.671875 0.359375l-0.28125 -2.984375z" fill-rule="nonzero"/><path fill="#000000" d="m1004.73755 157.27402q0 0.5625 -0.0625 1.046875q-0.046875 0.46875 -0.1875 0.890625q-0.125 0.421875 -0.328125 0.828125q-0.203125 0.40625 -0.515625 0.859375l-2.5 3.765625q-0.09375 0.125 -0.21875 0.203125q-0.109375 0.09375 -0.28125 0.171875q-0.171875 0.078125 -0.40625 0.09375q-0.21875 0.03125 -0.578125 0.03125q-0.296875 0 -0.515625 -0.03125q-0.203125 -0.015625 -0.296875 -0.078125q-0.09375 -0.0625 -0.109375 -0.171875q0 -0.109375 0.078125 -0.265625l2.421875 -5.0l0 -2.34375q0 -0.484375 0.09375 -0.78125q0.109375 -0.296875 0.328125 -0.4375q0.21875 -0.140625 0.546875 -0.1875q0.328125 -0.0625 0.796875 -0.0625q0.453125 0 0.78125 0.0625q0.328125 0.046875 0.53125 0.1875q0.21875 0.140625 0.3125 0.4375q0.109375 0.296875 0.109375 0.78125z" fill-rule="nonzero"/><path fill="#000000" d="m1026.9889 159.88339l-16.875061 0l0 -18.921875q3.890625 -0.640625 7.15625 -0.640625q3.578125 0 5.75 1.046875q2.187561 1.046875 3.078186 2.796875q0.890625 1.75 0.890625 4.890625l0 10.828125zm-3.484436 -2.921875l0 -7.5625q0 -2.125 -0.46875 -3.34375q-0.46875 -1.234375 -1.890625 -1.96875q-1.421875 -0.734375 -4.09375 -0.734375q-1.546875 0 -3.453125 0.25l0 13.359375l9.90625 0zm12.502136 -16.421875l0 19.34375l-3.546875 0l0 -19.34375l3.546875 0zm20.985718 2.921875l-3.296875 0l0 16.421875l-3.46875 0l0 -16.421875l-10.578125 0l0 -2.921875l17.34375 0l0 2.921875zm20.833252 16.421875l-4.296875 0l-7.390625 -10.4375q-1.71875 0.921875 -2.015625 3.75l-0.796875 6.6875l-3.609375 0l0.796875 -6.6875q0.546875 -4.671875 3.78125 -6.3125l-4.5 -6.34375l4.28125 0l6.203125 8.65625q1.125 -0.734375 1.5625 -1.671875q0.453125 -0.953125 0.71875 -3.09375l0.453125 -3.890625l3.609375 0l-0.4375 4.0q-0.296875 2.5625 -1.171875 4.21875q-0.859375 1.640625 -2.984375 2.9375l5.796875 8.1875z" fill-rule="nonzero"/><path fill="#000000" d="m1093.0299 157.53964l-3.359375 -17.0l3.65625 0l2.875 15.921875q3.09375 -1.21875 3.875 -3.5q0.78125 -2.296875 0.78125 -5.765625l0.1875 -6.65625l3.515625 0l-0.1875 5.125q-0.140625 3.703125 -0.3125 5.203125q-0.171875 1.484375 -0.953125 3.28125q-0.765625 1.796875 -2.265625 3.125q-1.5 1.3125 -4.390625 2.40625q-2.875 1.09375 -8.234375 1.984375l-0.5 -3.015625q3.265625 -0.484375 5.3125 -1.109375zm20.366943 -17.0l0 19.34375l-3.546875 0l0 -19.34375l3.546875 0zm19.157593 16.421875l3.078125 0l0 2.921875l-18.5 0l0 -2.921875l11.9375 0l0 -6.59375q0 -2.703125 -0.609375 -4.046875q-0.59375 -1.359375 -2.171875 -2.15625q-1.5625 -0.8125 -4.90625 -0.8125q-1.1875 0 -3.65625 0.25l-0.296875 -2.875q2.453125 -0.40625 5.234375 -0.40625q5.203125 0 7.546875 2.265625q2.34375 2.265625 2.34375 6.859375l0 7.515625zm10.278442 -16.421875l0 10.015625l-3.546875 0l0 -10.015625l3.546875 0zm3.5638428 0.1875q2.796875 -0.40625 5.15625 -0.40625q5.859375 0 8.171875 2.28125q2.3125 2.265625 2.3125 6.84375l0 10.4375l-3.46875 0l0 -9.515625q0 -2.640625 -0.5625 -3.984375q-0.5625 -1.359375 -2.171875 -2.1875q-1.609375 -0.84375 -4.484375 -0.84375q-1.953125 0 -4.671875 0.359375l-0.28125 -2.984375z" fill-rule="nonzero"/><path fill="#000000" d="m387.6724 265.23236q0 1.296875 -0.4375 1.71875q-0.421875 0.421875 -1.546875 0.421875q-1.09375 0 -1.515625 -0.40625q-0.421875 -0.421875 -0.421875 -1.6875q0 -1.28125 0.421875 -1.703125q0.4375 -0.4375 1.5625 -0.4375q1.09375 0 1.515625 0.421875q0.421875 0.40625 0.421875 1.671875z" fill-rule="nonzero"/><path fill="#000000" d="m396.79868 247.87297l0 26.781265l-3.546875 0l0 -26.781265l3.546875 0zm19.157593 16.42189l3.078125 0l0 2.921875l-18.5 0l0 -2.921875l11.9375 0l0 -6.59375q0 -2.7031403 -0.609375 -4.0468903q-0.59375 -1.359375 -2.171875 -2.15625q-1.5625 -0.8125 -4.90625 -0.8125q-1.1875 0 -3.65625 0.25l-0.296875 -2.875q2.453125 -0.40625 5.234375 -0.40625q5.203125 0 7.546875 2.265625q2.34375 2.265625 2.34375 6.8593903l0 7.515625zm8.465912 -16.42189l10.71875 0l0 4.8125q0 2.046875 -0.390625 3.3125q-0.375 1.2656403 -1.328125 2.5625153l-0.984375 1.3125q-1.484375 1.984375 -1.484375 4.25l0 3.09375l-3.46875 0l0 -2.609375q0 -2.34375 0.453125 -3.53125q0.46875 -1.1875 1.359375 -2.328125l1.09375 -1.390625q0.8125 -1.015625 1.03125 -1.8281403q0.234375 -0.828125 0.234375 -2.125l0 -2.609375l-10.703125 0l0 -10.296875l3.46875 0l0 7.375zm15.450714 0.359375q3.296875 -0.578125 6.421875 -0.578125q6.046875 0 8.359375 2.25q2.3125 2.234375 2.3125 6.8750153l0 10.4375l-3.484375 0l0 -9.515625q0 -2.8906403 -0.671875 -4.2500153q-0.671875 -1.359375 -2.328125 -2.0625q-1.640625 -0.703125 -4.796875 -0.703125q-2.484375 0 -5.515625 0.515625l-0.296875 -2.96875zm3.703125 8.07814l0 10.90625l-3.484375 0l0 -10.90625l3.484375 0z" fill-rule="nonzero"/><path fill="#000000" d="m473.81653 264.873l-3.359375 -17.000015l3.65625 0l2.875 15.92189q3.09375 -1.21875 3.875 -3.5q0.78125 -2.296875 0.78125 -5.7656403l0.1875 -6.65625l3.515625 0l-0.1875 5.125q-0.140625 3.7031403 -0.3125 5.2031403q-0.171875 1.484375 -0.953125 3.28125q-0.765625 1.796875 -2.265625 3.125q-1.5 1.3125 -4.390625 2.40625q-2.875 1.09375 -8.234375 1.984375l-0.5 -3.015625q3.265625 -0.484375 5.3125 -1.109375zm20.367035 -17.000015l0 19.343765l-3.546875 0l0 -19.343765l3.546875 0zm19.157562 16.42189l3.078125 0l0 2.921875l-18.49997 0l0 -2.921875l11.9375 0l0 -6.59375q0 -2.7031403 -0.609375 -4.0468903q-0.59375 -1.359375 -2.171875 -2.15625q-1.5625 -0.8125 -4.90625 -0.8125q-1.1875 0 -3.65625 0.25l-0.296875 -2.875q2.453125 -0.40625 5.234375 -0.40625q5.203125 0 7.546875 2.265625q2.3437195 2.265625 2.3437195 6.8593903l0 7.515625zm10.278442 -16.42189l0 10.01564l-3.546875 0l0 -10.01564l3.546875 0zm3.5637817 0.1875q2.796875 -0.40625 5.15625 -0.40625q5.859375 0 8.171875 2.28125q2.3125 2.265625 2.3125 6.8437653l0 10.4375l-3.46875 0l0 -9.515625q0 -2.6406403 -0.5625 -3.9843903q-0.5625 -1.359375 -2.171875 -2.1875q-1.609375 -0.84375 -4.484375 -0.84375q-1.953125 0 -4.671875 0.359375l-0.28125 -2.984375zm21.010376 0.171875q3.296875 -0.578125 6.421875 -0.578125q6.046875 0 8.359375 2.25q2.3125 2.234375 2.3125 6.8750153l0 10.4375l-3.484375 0l0 -9.515625q0 -2.8906403 -0.671875 -4.2500153q-0.671875 -1.359375 -2.328125 -2.0625q-1.640625 -0.703125 -4.796875 -0.703125q-2.484375 0 -5.515625 0.515625l-0.296875 -2.96875zm3.703125 8.07814l0 10.90625l-3.484375 0l0 -10.90625l3.484375 0z" fill-rule="nonzero"/><path fill="#000000" d="m577.10614 266.7636l0.59375 -2.609375q0.953125 0.328125 2.0625 0.328125q1.25 0 1.71875 -0.546875q0.48431396 -0.5625 0.48431396 -2.015625l0 -11.156265q-1.562439 0 -3.843689 0.328125l-0.3125 -2.90625q4.156189 -0.53125 8.437439 -0.53125q4.34375 0 6.671875 0.734375q2.328125 0.734375 3.5625 2.671875q1.234375 1.9375 1.234375 5.7187653l0 10.4375l-3.484375 0l0 -9.515625q0 -2.8281403 -0.4375 -4.1406403q-0.421875 -1.3125 -1.859375 -2.125q-1.4375 -0.828125 -4.75 -0.828125l-1.75 0.046875l0 11.718765q0 1.8125 -0.34375 2.78125q-0.328125 0.96875 -1.40625 1.59375q-1.0625 0.609375 -3.171814 0.609375q-1.71875 0 -3.40625 -0.59375zm29.017456 -1.890625l-3.359375 -17.000015l3.65625 0l2.875 15.92189q3.09375 -1.21875 3.875 -3.5q0.78125 -2.296875 0.78125 -5.7656403l0.1875 -6.65625l3.515625 0l-0.1875 5.125q-0.140625 3.7031403 -0.3125 5.2031403q-0.171875 1.484375 -0.953125 3.28125q-0.765625 1.796875 -2.265625 3.125q-1.5 1.3125 -4.390625 2.40625q-2.875 1.09375 -8.234375 1.984375l-0.5 -3.015625q3.265625 -0.484375 5.3125 -1.109375zm16.210754 -16.35939q3.15625 -0.96875 6.609375 -0.96875q4.234375 0 7.078125 2.5q2.84375 2.5 2.84375 7.2343903q0 4.6875 -2.921875 7.46875q-2.90625 2.765625 -8.125 2.765625q-3.546875 0 -5.609375 -1.296875l0.84375 -2.875q1.78125 1.140625 4.53125 1.140625q3.125 0 5.375 -1.765625q2.25 -1.78125 2.25 -5.359375q0 -3.1406403 -1.765625 -5.0468903q-1.765625 -1.90625 -4.71875 -1.90625q-1.53125 0 -3.03125 0.359375l0 3.53125q0 2.2343903 2.234375 2.2343903q0.921875 0 1.53125 -0.21875l0.375 2.546875q-1.0625 0.453125 -2.46875 0.453125q-2.359375 0 -3.703125 -1.28125q-1.328125 -1.296875 -1.328125 -3.8125153l0 -5.703125zm24.55188 -0.640625l0 19.343765l-3.546875 0l0 -19.343765l3.546875 0zm5.563843 0.359375q3.296875 -0.578125 6.421875 -0.578125q6.046875 0 8.359375 2.25q2.3125 2.234375 2.3125 6.8750153l0 10.4375l-3.484375 0l0 -9.515625q0 -2.8906403 -0.671875 -4.2500153q-0.671875 -1.359375 -2.328125 -2.0625q-1.640625 -0.703125 -4.796875 -0.703125q-2.484375 0 -5.515625 0.515625l-0.296875 -2.96875zm3.703125 8.07814l0 10.90625l-3.484375 0l0 -10.90625l3.484375 0z" fill-rule="nonzero"/><path fill="#000000" d="m681.3624 248.06047q2.796875 -0.40625 5.15625 -0.40625q5.859375 0 8.171875 2.28125q2.3125 2.265625 2.3125 6.8437653l0 10.4375l-3.46875 0l0 -9.515625q0 -2.6406403 -0.5625 -3.9843903q-0.5625 -1.359375 -2.171875 -2.1875q-1.609375 -0.84375 -4.484375 -0.84375q-1.953125 0 -4.671875 0.359375l-0.28125 -2.984375zm37.979126 19.156265l-3.484375 0l0 -10.484375q0 -2.1250153 -0.46875 -3.3437653q-0.46875 -1.234375 -1.890625 -1.96875q-1.421875 -0.734375 -4.09375 -0.734375q-1.546875 0 -3.453125 0.25l0 16.281265l-3.484375 0l0 -18.92189q3.890625 -0.640625 7.15625 -0.640625q3.578125 0 5.75 1.046875q2.1875 1.046875 3.078125 2.796875q0.890625 1.75 0.890625 4.8906403l0 10.828125zm22.658325 0l-4.296875 0l-7.390625 -10.4375q-1.71875 0.921875 -2.015625 3.75l-0.796875 6.6875l-3.609375 0l0.796875 -6.6875q0.546875 -4.6718903 3.78125 -6.3125153l-4.5 -6.34375l4.28125 0l6.203125 8.656265q1.125 -0.73439026 1.5625 -1.6718903q0.453125 -0.953125 0.71875 -3.09375l0.453125 -3.890625l3.609375 0l-0.4375 4.0q-0.296875 2.5625 -1.171875 4.2187653q-0.859375 1.640625 -2.984375 2.9375l5.796875 8.1875zm5.562195 -19.343765l10.71875 0l0 4.8125q0 2.046875 -0.390625 3.3125q-0.375 1.2656403 -1.328125 2.5625153l-0.984375 1.3125q-1.484375 1.984375 -1.484375 4.25l0 3.09375l-3.46875 0l0 -2.609375q0 -2.34375 0.453125 -3.53125q0.46875 -1.1875 1.359375 -2.328125l1.09375 -1.390625q0.8125 -1.015625 1.03125 -1.8281403q0.234375 -0.828125 0.234375 -2.125l0 -2.609375l-10.703125 0l0 -10.296875l3.46875 0l0 7.375z" fill-rule="nonzero"/><path fill="#000000" d="m771.4517 247.87297l15.78125 0l0 4.8125q0 2.0625 -0.375 3.3125q-0.375 1.2500153 -1.328125 2.5625153l-0.96875 1.3125q-1.5 2.0 -1.5 4.25l0 3.09375l-3.484375 0l0 -2.609375q0 -1.984375 0.359375 -3.203125q0.359375 -1.234375 1.484375 -2.65625l1.078125 -1.390625q0.78125 -1.0 1.03125 -1.8125153q0.25 -0.8125 0.25 -2.140625l0 -2.609375l-12.328125 0l0 -2.921875zm0.296875 26.781265l0 -18.34375l3.328125 0l0 18.34375l-3.328125 0zm18.226318 -26.593765q2.796875 -0.40625 5.15625 -0.40625q5.859375 0 8.171875 2.28125q2.3125 2.265625 2.3125 6.8437653l0 10.4375l-3.46875 0l0 -9.515625q0 -2.6406403 -0.5625 -3.9843903q-0.5625 -1.359375 -2.171875 -2.1875q-1.609375 -0.84375 -4.484375 -0.84375q-1.953125 0 -4.671875 0.359375l-0.28125 -2.984375z" fill-rule="nonzero"/><path fill="#000000" d="m834.84607 250.79485l-3.296875 0l0 16.42189l-3.46875 0l0 -16.42189l-10.578125 0l0 -2.921875l17.34375 0l0 2.921875zm7.192688 -2.921875l0 10.01564l-3.546875 0l0 -10.01564l3.546875 0zm7.2825317 8.078125l-3.0 -8.078125l3.40625 0l1.421875 4.265625q0.859375 -1.875 2.6875 -3.171875q1.828125 -1.3125 3.921875 -1.3125q2.21875 0 3.828125 1.140625q1.625 1.140625 2.34375 3.328125q0.734375 2.1875 0.734375 6.5781403l0 8.515625l-9.96875 0l0 -2.921875l6.453125 0l0 -5.65625q0 -3.2187653 -0.21875 -4.6875153q-0.203125 -1.46875 -1.078125 -2.375q-0.859375 -0.921875 -2.171875 -0.921875q-2.046875 0 -3.484375 2.109375q-1.421875 2.09375 -2.421875 7.2968903l-1.359375 7.15625l-3.53125 0l1.53125 -7.546875q0.21875 -1.078125 0.90625 -3.7187653zm18.718262 10.812515l0.59375 -2.609375q0.953125 0.328125 2.0625 0.328125q1.25 0 1.71875 -0.546875q0.484375 -0.5625 0.484375 -2.015625l0 -11.156265q-1.5625 0 -3.84375 0.328125l-0.3125 -2.90625q4.15625 -0.53125 8.4375 -0.53125q4.34375 0 6.671875 0.734375q2.328125 0.734375 3.5625 2.671875q1.234375 1.9375 1.234375 5.7187653l0 10.4375l-3.484375 0l0 -9.515625q0 -2.8281403 -0.4375 -4.1406403q-0.421875 -1.3125 -1.859375 -2.125q-1.4375 -0.828125 -4.75 -0.828125l-1.75 0.046875l0 11.718765q0 1.8125 -0.34375 2.78125q-0.328125 0.96875 -1.40625 1.59375q-1.0625 0.609375 -3.171875 0.609375q-1.71875 0 -3.40625 -0.59375z" fill-rule="nonzero"/><path fill="#000000" d="m905.496 264.873l-3.359375 -17.000015l3.65625 0l2.875 15.92189q3.09375 -1.21875 3.875 -3.5q0.78125 -2.296875 0.78125 -5.7656403l0.1875 -6.65625l3.515625 0l-0.1875 5.125q-0.140625 3.7031403 -0.3125 5.2031403q-0.171875 1.484375 -0.953125 3.28125q-0.765625 1.796875 -2.265625 3.125q-1.5 1.3125 -4.390625 2.40625q-2.875 1.09375 -8.234375 1.984375l-0.5 -3.015625q3.265625 -0.484375 5.3125 -1.109375zm20.367065 -17.000015l0 10.01564l-3.546875 0l0 -10.01564l3.546875 0zm5.0481567 0.640625q3.15625 -0.96875 6.609375 -0.96875q4.234375 0 7.078125 2.5q2.84375 2.5 2.84375 7.2343903q0 4.6875 -2.921875 7.46875q-2.90625 2.765625 -8.125 2.765625q-3.546875 0 -5.609375 -1.296875l0.84375 -2.875q1.78125 1.140625 4.53125 1.140625q3.125 0 5.375 -1.765625q2.25 -1.78125 2.25 -5.359375q0 -3.1406403 -1.765625 -5.0468903q-1.765625 -1.90625 -4.71875 -1.90625q-1.53125 0 -3.03125 0.359375l0 3.53125q0 2.2343903 2.234375 2.2343903q0.921875 0 1.53125 -0.21875l0.375 2.546875q-1.0625 0.453125 -2.46875 0.453125q-2.359375 0 -3.703125 -1.28125q-1.328125 -1.296875 -1.328125 -3.8125153l0 -5.703125zm24.55188 -0.640625l0 19.343765l-3.546875 0l0 -19.343765l3.546875 0zm9.204407 0l0 10.01564l-3.546875 0l0 -10.01564l3.546875 0z" fill-rule="nonzero"/><path fill="#000000" d="m978.6703 247.87297l15.78125 0l0 4.8125q0 2.0625 -0.375 3.3125q-0.375 1.2500153 -1.328125 2.5625153l-0.96875 1.3125q-1.5 2.0 -1.5 4.25l0 3.09375l-3.484375 0l0 -2.609375q0 -1.984375 0.359375 -3.203125q0.359375 -1.234375 1.484375 -2.65625l1.078125 -1.390625q0.78125 -1.0 1.03125 -1.8125153q0.25 -0.8125 0.25 -2.140625l0 -2.609375l-12.328125 0l0 -2.921875zm0.296875 26.781265l0 -18.34375l3.328125 0l0 18.34375l-3.328125 0zm23.866943 -26.781265l0 19.343765l-3.546875 0l0 -19.343765l3.546875 0zm3.5638428 0.1875q2.796875 -0.40625 5.15625 -0.40625q5.859375 0 8.171875 2.28125q2.3125 2.265625 2.3125 6.8437653l0 10.4375l-3.46875 0l0 -9.515625q0 -2.6406403 -0.5625 -3.9843903q-0.5625 -1.359375 -2.171875 -2.1875q-1.609375 -0.84375 -4.484375 -0.84375q-1.953125 0 -4.671875 0.359375l-0.28125 -2.984375zm24.651001 -0.1875l0 10.01564l-3.546875 0l0 -10.01564l3.546875 0zm5.563843 0.359375q3.296875 -0.578125 6.421875 -0.578125q6.046875 0 8.359375 2.25q2.3125 2.234375 2.3125 6.8750153l0 10.4375l-3.484375 0l0 -9.515625q0 -2.8906403 -0.671875 -4.2500153q-0.671875 -1.359375 -2.328125 -2.0625q-1.640625 -0.703125 -4.796875 -0.703125q-2.484375 0 -5.515625 0.515625l-0.296875 -2.96875zm3.703125 8.07814l0 10.90625l-3.484375 0l0 -10.90625l3.484375 0z" fill-rule="nonzero"/><path fill="#000000" d="m1070.5564 264.873l-3.359375 -17.000015l3.65625 0l2.875 15.92189q3.09375 -1.21875 3.875 -3.5q0.78125 -2.296875 0.78125 -5.7656403l0.1875 -6.65625l3.515625 0l-0.1875 5.125q-0.140625 3.7031403 -0.3125 5.2031403q-0.171875 1.484375 -0.953125 3.28125q-0.765625 1.796875 -2.265625 3.125q-1.5 1.3125 -4.390625 2.40625q-2.875 1.09375 -8.234375 1.984375l-0.5 -3.015625q3.265625 -0.484375 5.3125 -1.109375zm20.367065 -17.000015l0 19.343765l-3.546875 0l0 -19.343765l3.546875 0zm19.157593 16.42189l3.078125 0l0 2.921875l-18.5 0l0 -2.921875l11.9375 0l0 -6.59375q0 -2.7031403 -0.609375 -4.0468903q-0.59375 -1.359375 -2.171875 -2.15625q-1.5625 -0.8125 -4.90625 -0.8125q-1.1875 0 -3.65625 0.25l-0.296875 -2.875q2.453125 -0.40625 5.234375 -0.40625q5.203125 0 7.546875 2.265625q2.34375 2.265625 2.34375 6.8593903l0 7.515625zm10.278442 -16.42189l0 10.01564l-3.546875 0l0 -10.01564l3.546875 0zm3.5637207 0.1875q2.796875 -0.40625 5.15625 -0.40625q5.859375 0 8.171875 2.28125q2.3125 2.265625 2.3125 6.8437653l0 10.4375l-3.46875 0l0 -9.515625q0 -2.6406403 -0.5625 -3.9843903q-0.5625 -1.359375 -2.171875 -2.1875q-1.609375 -0.84375 -4.484375 -0.84375q-1.953125 0 -4.671875 0.359375l-0.28125 -2.984375zm21.010376 0.171875q3.296875 -0.578125 6.421875 -0.578125q6.046875 0 8.359375 2.25q2.3125 2.234375 2.3125 6.8750153l0 10.4375l-3.484375 0l0 -9.515625q0 -2.8906403 -0.671875 -4.2500153q-0.671875 -1.359375 -2.328125 -2.0625q-1.640625 -0.703125 -4.796875 -0.703125q-2.484375 0 -5.515625 0.515625l-0.296875 -2.96875zm3.703125 8.07814l0 10.90625l-3.484375 0l0 -10.90625l3.484375 0z" fill-rule="nonzero"/><path fill="#000000" d="m119.303375 373.2324q0 1.296875 -0.4375 1.71875q-0.421875 0.421875 -1.546875 0.421875q-1.09375 0 -1.515625 -0.40625q-0.421875 -0.421875 -0.421875 -1.6875q0 -1.28125 0.421875 -1.703125q0.4375 -0.4375 1.5625 -0.4375q1.09375 0 1.515625 0.421875q0.421875 0.40625 0.421875 1.671875z" fill-rule="nonzero"/><path fill="#000000" d="m124.78905 355.87302l15.78125 0l0 4.8125q0 2.0625 -0.375 3.3125q-0.375 1.25 -1.328125 2.5625l-0.96875 1.3125q-1.5 2.0 -1.5 4.25l0 3.09375l-3.484375 0l0 -2.609375q0 -1.984375 0.359375 -3.203125q0.359375 -1.234375 1.484375 -2.65625l1.078125 -1.390625q0.78125 -1.0 1.03125 -1.8125q0.25 -0.8125 0.25 -2.140625l0 -2.609375l-12.328125 0l0 -2.921875zm0.296875 26.78125l0 -18.34375l3.328125 0l0 18.34375l-3.328125 0zm23.866928 -26.78125l0 19.34375l-3.546875 0l0 -19.34375l3.546875 0zm3.5638275 0.1875q2.796875 -0.40625 5.15625 -0.40625q5.859375 0 8.171875 2.28125q2.3125 2.265625 2.3125 6.84375l0 10.4375l-3.46875 0l0 -9.515625q0 -2.640625 -0.5625 -3.984375q-0.5625 -1.359375 -2.171875 -2.1875q-1.609375 -0.84375 -4.484375 -0.84375q-1.953125 0 -4.671875 0.359375l-0.28125 -2.984375zm24.651001 -0.1875l0 10.015625l-3.546875 0l0 -10.015625l3.546875 0zm5.5638275 0.359375q3.296875 -0.578125 6.421875 -0.578125q6.046875 0 8.359375 2.25q2.3125 2.234375 2.3125 6.875l0 10.4375l-3.484375 0l0 -9.515625q0 -2.890625 -0.671875 -4.25q-0.671875 -1.359375 -2.328125 -2.0625q-1.640625 -0.703125 -4.796875 -0.703125q-2.484375 0 -5.515625 0.515625l-0.296875 -2.96875zm3.703125 8.078125l0 10.90625l-3.484375 0l0 -10.90625l3.484375 0z" fill-rule="nonzero"/><path fill="#000000" d="m216.67513 372.87302l-3.359375 -17.0l3.65625 0l2.875 15.921875q3.09375 -1.21875 3.875 -3.5q0.78125 -2.296875 0.78125 -5.765625l0.1875 -6.65625l3.515625 0l-0.1875 5.125q-0.140625 3.703125 -0.3125 5.203125q-0.171875 1.484375 -0.953125 3.28125q-0.765625 1.796875 -2.265625 3.125q-1.5 1.3125 -4.390625 2.40625q-2.875 1.09375 -8.234375 1.984375l-0.5 -3.015625q3.265625 -0.484375 5.3125 -1.109375zm20.367035 -17.0l0 19.34375l-3.546875 0l0 -19.34375l3.546875 0zm19.157578 16.421875l3.078125 0l0 2.921875l-18.5 0l0 -2.921875l11.9375 0l0 -6.59375q0 -2.703125 -0.609375 -4.046875q-0.59375 -1.359375 -2.171875 -2.15625q-1.5625 -0.8125 -4.90625 -0.8125q-1.1875 0 -3.65625 0.25l-0.296875 -2.875q2.453125 -0.40625 5.234375 -0.40625q5.203125 0 7.546875 2.265625q2.34375 2.265625 2.34375 6.859375l0 7.515625zm10.278412 -16.421875l0 10.015625l-3.546875 0l0 -10.015625l3.546875 0zm3.5638428 0.1875q2.796875 -0.40625 5.15625 -0.40625q5.859375 0 8.171875 2.28125q2.3125 2.265625 2.3125 6.84375l0 10.4375l-3.46875 0l0 -9.515625q0 -2.640625 -0.5625 -3.984375q-0.5625 -1.359375 -2.171875 -2.1875q-1.609375 -0.84375 -4.484375 -0.84375q-1.953125 0 -4.671875 0.359375l-0.28125 -2.984375zm21.010376 0.171875q3.296875 -0.578125 6.421875 -0.578125q6.046875 0 8.359375 2.25q2.3125 2.234375 2.3125 6.875l0 10.4375l-3.484375 0l0 -9.515625q0 -2.890625 -0.671875 -4.25q-0.671875 -1.359375 -2.328125 -2.0625q-1.640625 -0.703125 -4.796875 -0.703125q-2.484375 0 -5.515625 0.515625l-0.296875 -2.96875zm3.703125 8.078125l0 10.90625l-3.484375 0l0 -10.90625l3.484375 0z" fill-rule="nonzero"/><path fill="#000000" d="m319.96472 374.76364l0.59375 -2.609375q0.953125 0.328125 2.0625 0.328125q1.25 0 1.71875 -0.546875q0.484375 -0.5625 0.484375 -2.015625l0 -11.15625q-1.5625 0 -3.84375 0.328125l-0.3125 -2.90625q4.15625 -0.53125 8.4375305 -0.53125q4.34375 0 6.671875 0.734375q2.328125 0.734375 3.5625 2.671875q1.234375 1.9375 1.234375 5.71875l0 10.4375l-3.484375 0l0 -9.515625q0 -2.828125 -0.4375 -4.140625q-0.421875 -1.3125 -1.859375 -2.125q-1.4375 -0.828125 -4.75 -0.828125l-1.75 0.046875l0 11.71875q0 1.8125 -0.34375 2.78125q-0.328125 0.96875 -1.40625 1.59375q-1.0625305 0.609375 -3.1719055 0.609375q-1.71875 0 -3.40625 -0.59375zm29.017487 -1.890625l-3.359375 -17.0l3.65625 0l2.875 15.921875q3.09375 -1.21875 3.875 -3.5q0.78125 -2.296875 0.78125 -5.765625l0.1875 -6.65625l3.515625 0l-0.1875 5.125q-0.140625 3.703125 -0.3125 5.203125q-0.171875 1.484375 -0.953125 3.28125q-0.765625 1.796875 -2.265625 3.125q-1.5 1.3125 -4.390625 2.40625q-2.875 1.09375 -8.234375 1.984375l-0.5 -3.015625q3.265625 -0.484375 5.3125 -1.109375zm16.210815 -16.359375q3.15625 -0.96875 6.609375 -0.96875q4.234375 0 7.078125 2.5q2.84375 2.5 2.84375 7.234375q0 4.6875 -2.921875 7.46875q-2.90625 2.765625 -8.125 2.765625q-3.546875 0 -5.609375 -1.296875l0.84375 -2.875q1.78125 1.140625 4.53125 1.140625q3.125 0 5.375 -1.765625q2.25 -1.78125 2.25 -5.359375q0 -3.140625 -1.765625 -5.046875q-1.765625 -1.90625 -4.71875 -1.90625q-1.53125 0 -3.03125 0.359375l0 3.53125q0 2.234375 2.234375 2.234375q0.921875 0 1.53125 -0.21875l0.375 2.546875q-1.0625 0.453125 -2.46875 0.453125q-2.359375 0 -3.703125 -1.28125q-1.328125 -1.296875 -1.328125 -3.8125l0 -5.703125zm24.551819 -0.640625l0 19.34375l-3.546875 0l0 -19.34375l3.546875 0zm5.563843 0.359375q3.296875 -0.578125 6.421875 -0.578125q6.046875 0 8.359375 2.25q2.3125 2.234375 2.3125 6.875l0 10.4375l-3.484375 0l0 -9.515625q0 -2.890625 -0.671875 -4.25q-0.671875 -1.359375 -2.328125 -2.0625q-1.640625 -0.703125 -4.796875 -0.703125q-2.484375 0 -5.515625 0.515625l-0.296875 -2.96875zm3.703125 8.078125l0 10.90625l-3.484375 0l0 -10.90625l3.484375 0z" fill-rule="nonzero"/><path fill="#000000" d="m424.22107 356.06052q2.796875 -0.40625 5.15625 -0.40625q5.859375 0 8.171875 2.28125q2.3125 2.265625 2.3125 6.84375l0 10.4375l-3.46875 0l0 -9.515625q0 -2.640625 -0.5625 -3.984375q-0.5625 -1.359375 -2.171875 -2.1875q-1.609375 -0.84375 -4.484375 -0.84375q-1.953125 0 -4.671875 0.359375l-0.28125 -2.984375zm37.979126 19.15625l-3.484375 0l0 -10.484375q0 -2.125 -0.46875 -3.34375q-0.46875 -1.234375 -1.890625 -1.96875q-1.421875 -0.734375 -4.09375 -0.734375q-1.546875 0 -3.453125 0.25l0 16.28125l-3.484375 0l0 -18.921875q3.890625 -0.640625 7.15625 -0.640625q3.578125 0 5.75 1.046875q2.1875 1.046875 3.078125 2.796875q0.890625 1.75 0.890625 4.890625l0 10.828125zm22.658356 0l-4.296875 0l-7.390625 -10.4375q-1.71875 0.921875 -2.015625 3.75l-0.796875 6.6875l-3.609375 0l0.796875 -6.6875q0.546875 -4.671875 3.78125 -6.3125l-4.5 -6.34375l4.28125 0l6.203125 8.65625q1.125 -0.734375 1.5625 -1.671875q0.453125 -0.953125 0.71875 -3.09375l0.453125 -3.890625l3.609375 0l-0.4375 4.0q-0.296875 2.5625 -1.171875 4.21875q-0.859375 1.640625 -2.984375 2.9375l5.796875 8.1875zm5.5621643 -19.34375l10.71875 0l0 4.8125q0 2.046875 -0.390625 3.3125q-0.375 1.265625 -1.328125 2.5625l-0.984375 1.3125q-1.484375 1.984375 -1.484375 4.25l0 3.09375l-3.46875 0l0 -2.609375q0 -2.34375 0.453125 -3.53125q0.46875 -1.1875 1.359375 -2.328125l1.09375 -1.390625q0.8125 -1.015625 1.03125 -1.828125q0.234375 -0.828125 0.234375 -2.125l0 -2.609375l-10.703125 0l0 -10.296875l3.46875 0l0 7.375z" fill-rule="nonzero"/><path fill="#010000" fill-opacity="0.0" d="m511.576 341.4246l81.637024 0l0 42.923706l-81.637024 0l0 -42.923706z" fill-rule="nonzero"/><path fill="#000000" d="m512.31036 356.06052q2.796875 -0.40625 5.15625 -0.40625q5.859375 0 8.171875 2.28125q2.3125 2.265625 2.3125 6.84375l0 10.4375l-3.46875 0l0 -9.515625q0 -2.640625 -0.5625 -3.984375q-0.5625 -1.359375 -2.171875 -2.1875q-1.609375 -0.84375 -4.484375 -0.84375q-1.953125 0 -4.671875 0.359375l-0.28125 -2.984375zm19.010376 18.703125l0.59375 -2.609375q0.953125 0.328125 2.0625 0.328125q1.25 0 1.71875 -0.546875q0.484375 -0.5625 0.484375 -2.015625l0 -11.15625q-1.5625 0 -3.84375 0.328125l-0.3125 -2.90625q4.15625 -0.53125 8.4375 -0.53125q4.34375 0 6.671875 0.734375q2.328125 0.734375 3.5625 2.671875q1.234375 1.9375 1.234375 5.71875l0 10.4375l-3.484375 0l0 -9.515625q0 -2.828125 -0.4375 -4.140625q-0.421875 -1.3125 -1.859375 -2.125q-1.4375 -0.828125 -4.75 -0.828125l-1.75 0.046875l0 11.71875q0 1.8125 -0.34375 2.78125q-0.328125 0.96875 -1.40625 1.59375q-1.0625 0.609375 -3.171875 0.609375q-1.71875 0 -3.40625 -0.59375zm29.626831 -18.890625l0 19.34375l-3.546875 0l0 -19.34375l3.546875 0zm9.204468 0l0 10.015625l-3.546875 0l0 -10.015625l3.546875 0zm19.157532 16.421875l3.078125 0l0 2.921875l-18.499939 0l0 -2.921875l11.937439 0l0 -6.59375q0 -2.703125 -0.609375 -4.046875q-0.59375 -1.359375 -2.171875 -2.15625q-1.562439 -0.8125 -4.906189 -0.8125q-1.1875 0 -3.65625 0.25l-0.296875 -2.875q2.453125 -0.40625 5.234375 -0.40625q5.203064 0 7.546814 2.265625q2.34375 2.265625 2.34375 6.859375l0 7.515625z" fill-rule="nonzero"/><path fill="#010000" fill-opacity="0.0" d="m593.213 347.22067l8.438965 0l0 45.56656l-8.438965 0l0 -45.56656z" fill-rule="nonzero"/><path fill="#010000" fill-opacity="0.0" d="m601.652 341.4246l95.598694 0l0 42.923706l-95.598694 0l0 -42.923706z" fill-rule="nonzero"/><path fill="#000000" d="m602.38635 356.06052q2.796875 -0.40625 5.15625 -0.40625q5.859375 0 8.171875 2.28125q2.3125 2.265625 2.3125 6.84375l0 10.4375l-3.46875 0l0 -9.515625q0 -2.640625 -0.5625 -3.984375q-0.5625 -1.359375 -2.171875 -2.1875q-1.609375 -0.84375 -4.484375 -0.84375q-1.953125 0 -4.671875 0.359375l-0.28125 -2.984375zm24.651001 -0.1875l0 10.015625l-3.546875 0l0 -10.015625l3.546875 0zm5.563843 0.359375q3.296875 -0.578125 6.421875 -0.578125q6.046875 0 8.359375 2.25q2.3125 2.234375 2.3125 6.875l0 10.4375l-3.484375 0l0 -9.515625q0 -2.890625 -0.671875 -4.25q-0.671875 -1.359375 -2.328125 -2.0625q-1.640625 -0.703125 -4.796875 -0.703125q-2.484375 0 -5.515625 0.515625l-0.296875 -2.96875zm3.703125 8.078125l0 10.90625l-3.484375 0l0 -10.90625l3.484375 0zm20.489014 -0.359375l-3.0 -8.078125l3.40625 0l1.421875 4.265625q0.859375 -1.875 2.6875 -3.171875q1.828125 -1.3125 3.921875 -1.3125q2.21875 0 3.828125 1.140625q1.625 1.140625 2.34375 3.328125q0.734375 2.1875 0.734375 6.578125l0 8.515625l-9.96875 0l0 -2.921875l6.453125 0l0 -5.65625q0 -3.21875 -0.21875 -4.6875q-0.203125 -1.46875 -1.078125 -2.375q-0.859375 -0.921875 -2.171875 -0.921875q-2.046875 0 -3.484375 2.109375q-1.421875 2.09375 -2.421875 7.296875l-1.359375 7.15625l-3.53125 0l1.53125 -7.546875q0.21875 -1.078125 0.90625 -3.71875zm20.718262 -7.71875q3.296875 -0.578125 6.421875 -0.578125q6.046875 0 8.359375 2.25q2.3125 2.234375 2.3125 6.875l0 10.4375l-3.484375 0l0 -9.515625q0 -2.890625 -0.671875 -4.25q-0.671875 -1.359375 -2.328125 -2.0625q-1.640625 -0.703125 -4.796875 -0.703125q-2.484375 0 -5.515625 0.515625l-0.296875 -2.96875zm3.703125 8.078125l0 10.90625l-3.484375 0l0 -10.90625l3.484375 0z" fill-rule="nonzero"/><path fill="#010000" fill-opacity="0.0" d="m697.2506 347.22067l8.438965 0l0 45.56656l-8.438965 0l0 -45.56656z" fill-rule="nonzero"/><path fill="#010000" fill-opacity="0.0" d="m705.6896 341.4246l80.05139 0l0 42.923706l-80.05139 0l0 -42.923706z" fill-rule="nonzero"/><path fill="#000000" d="m712.0646 355.87302l0 26.78125l-3.546875 0l0 -26.78125l3.546875 0zm5.048218 0.640625q3.15625 -0.96875 6.609375 -0.96875q4.234375 0 7.078125 2.5q2.84375 2.5 2.84375 7.234375q0 4.6875 -2.921875 7.46875q-2.90625 2.765625 -8.125 2.765625q-3.546875 0 -5.609375 -1.296875l0.84375 -2.875q1.78125 1.140625 4.53125 1.140625q3.125 0 5.375 -1.765625q2.25 -1.78125 2.25 -5.359375q0 -3.140625 -1.765625 -5.046875q-1.765625 -1.90625 -4.71875 -1.90625q-1.53125 0 -3.03125 0.359375l0 3.53125q0 2.234375 2.234375 2.234375q0.921875 0 1.53125 -0.21875l0.375 2.546875q-1.0625 0.453125 -2.46875 0.453125q-2.359375 0 -3.703125 -1.28125q-1.328125 -1.296875 -1.328125 -3.8125l0 -5.703125zm24.551819 -0.640625l0 19.34375l-3.546875 0l0 -19.34375l3.546875 0zm22.845093 19.34375l-4.296875 0l-7.390625 -10.4375q-1.71875 0.921875 -2.015625 3.75l-0.796875 6.6875l-3.609375 0l0.796875 -6.6875q0.546875 -4.671875 3.78125 -6.3125l-4.5 -6.34375l4.28125 0l6.203125 8.65625q1.125 -0.734375 1.5625 -1.671875q0.453125 -0.953125 0.71875 -3.09375l0.453125 -3.890625l3.609375 0l-0.4375 4.0q-0.296875 2.5625 -1.171875 4.21875q-0.859375 1.640625 -2.984375 2.9375l5.796875 8.1875zm17.32782 -2.921875l3.078125 0l0 2.921875l-18.5 0l0 -2.921875l11.9375 0l0 -6.59375q0 -2.703125 -0.609375 -4.046875q-0.59375 -1.359375 -2.171875 -2.15625q-1.5625 -0.8125 -4.90625 -0.8125q-1.1875 0 -3.65625 0.25l-0.296875 -2.875q2.453125 -0.40625 5.234375 -0.40625q5.203125 0 7.546875 2.265625q2.34375 2.265625 2.34375 6.859375l0 7.515625z" fill-rule="nonzero"/><path fill="#000000" d="m813.88306 375.21677l-3.484375 0l0 -10.484375q0 -2.125 -0.46875 -3.34375q-0.46875 -1.234375 -1.890625 -1.96875q-1.421875 -0.734375 -4.09375 -0.734375q-1.546875 0 -3.453125 0.25l0 16.28125l-3.484375 0l0 -18.921875q3.890625 -0.640625 7.15625 -0.640625q3.578125 0 5.75 1.046875q2.1875 1.046875 3.078125 2.796875q0.890625 1.75 0.890625 4.890625l0 10.828125zm9.0177 -19.34375l0 19.34375l-3.546875 0l0 -19.34375l3.546875 0zm9.204468 0l0 19.34375l-3.546875 0l0 -19.34375l3.546875 0zm3.5638428 0.1875q2.796875 -0.40625 5.15625 -0.40625q5.859375 0 8.171875 2.28125q2.3125 2.265625 2.3125 6.84375l0 10.4375l-3.46875 0l0 -9.515625q0 -2.640625 -0.5625 -3.984375q-0.5625 -1.359375 -2.171875 -2.1875q-1.609375 -0.84375 -4.484375 -0.84375q-1.953125 0 -4.671875 0.359375l-0.28125 -2.984375zm21.010376 0.171875q3.296875 -0.578125 6.421875 -0.578125q6.046875 0 8.359375 2.25q2.3125 2.234375 2.3125 6.875l0 10.4375l-3.484375 0l0 -9.515625q0 -2.890625 -0.671875 -4.25q-0.671875 -1.359375 -2.328125 -2.0625q-1.640625 -0.703125 -4.796875 -0.703125q-2.484375 0 -5.515625 0.515625l-0.296875 -2.96875zm3.703125 8.078125l0 10.90625l-3.484375 0l0 -10.90625l3.484375 0z" fill-rule="nonzero"/><path fill="#000000" d="m890.2168 355.87302l0.078125 3.140625q0.109375 4.828125 0.40625 6.6875q1.9375 0 3.484375 -0.96875q1.546875 -0.96875 1.546875 -3.65625l0.390625 -5.203125l3.5 0l-0.4375 6.09375q-0.109375 1.546875 -0.34375 2.359375q-0.234375 0.796875 -0.984375 1.6875q-0.734375 0.890625 -2.328125 1.5625q-1.59375 0.65625 -4.296875 0.875q0.453125 1.96875 2.109375 3.15625q1.671875 1.1875 4.09375 1.1875q2.234375 0 3.84375 -1.0625q1.609375 -1.078125 2.375 -2.75q0.765625 -1.6875 1.015625 -4.8125l0.78125 -8.296875l3.5 0l-0.65625 7.171875q-0.375 4.03125 -1.359375 6.71875q-0.984375 2.671875 -3.421875 4.328125q-2.4375 1.65625 -6.28125 1.65625q-3.40625 0 -5.71875 -1.640625q-2.296875 -1.65625 -3.4375 -4.71875q-1.140625 -3.0625 -1.140625 -8.171875l-0.25 -5.34375l3.53125 0zm23.293274 0l15.78125 0l0 4.8125q0 2.0625 -0.375 3.3125q-0.375 1.25 -1.328125 2.5625l-0.96875 1.3125q-1.5 2.0 -1.5 4.25l0 3.09375l-3.484375 0l0 -2.609375q0 -1.984375 0.359375 -3.203125q0.359375 -1.234375 1.484375 -2.65625l1.078125 -1.390625q0.78125 -1.0 1.03125 -1.8125q0.25 -0.8125 0.25 -2.140625l0 -2.609375l-12.328125 0l0 -2.921875zm0.296875 26.78125l0 -18.34375l3.328125 0l0 18.34375l-3.328125 0zm21.945007 -18.703125l-3.0 -8.078125l3.40625 0l1.421875 4.265625q0.859375 -1.875 2.6875 -3.171875q1.828125 -1.3125 3.921875 -1.3125q2.21875 0 3.828125 1.140625q1.625 1.140625 2.34375 3.328125q0.734375 2.1875 0.734375 6.578125l0 8.515625l-9.96875 0l0 -2.921875l6.453125 0l0 -5.65625q0 -3.21875 -0.21875 -4.6875q-0.203125 -1.46875 -1.078125 -2.375q-0.859375 -0.921875 -2.171875 -0.921875q-2.046875 0 -3.484375 2.109375q-1.421875 2.09375 -2.421875 7.296875l-1.359375 7.15625l-3.53125 0l1.53125 -7.546875q0.21875 -1.078125 0.90625 -3.71875z" fill-rule="nonzero"/><path fill="#000000" d="m966.7373 355.87302l10.71875 0l0 4.8125q0 2.046875 -0.390625 3.3125q-0.375 1.265625 -1.328125 2.5625l-0.984375 1.3125q-1.484375 1.984375 -1.484375 4.25l0 3.09375l-3.46875 0l0 -2.609375q0 -2.34375 0.453125 -3.53125q0.46875 -1.1875 1.359375 -2.328125l1.09375 -1.390625q0.8125 -1.015625 1.03125 -1.828125q0.234375 -0.828125 0.234375 -2.125l0 -2.609375l-10.703125 0l0 -10.296875l3.46875 0l0 7.375zm18.481934 17.0l-3.359375 -17.0l3.65625 0l2.875 15.921875q3.09375 -1.21875 3.875 -3.5q0.78125 -2.296875 0.78125 -5.765625l0.1875 -6.65625l3.515625 0l-0.1875 5.125q-0.140625 3.703125 -0.3125 5.203125q-0.171875 1.484375 -0.953125 3.28125q-0.765625 1.796875 -2.265625 3.125q-1.5 1.3125 -4.390625 2.40625q-2.875 1.09375 -8.234375 1.984375l-0.5 -3.015625q3.265625 -0.484375 5.3125 -1.109375z" fill-rule="nonzero"/><path fill="#000000" d="m1013.9315 382.65427l0 -14.75l-5.828125 -12.03125l3.703125 0l4.671875 9.640625q1.4375 -0.84375 2.015625 -1.890625q0.578125 -1.0625 0.765625 -2.828125l0.53125 -4.921875l3.625 0l-0.59375 5.59375q-0.53125 4.921875 -5.453125 6.84375l0 14.34375l-3.4375 0zm17.317993 -26.78125l0 19.34375l-3.546875 0l0 -19.34375l3.546875 0zm22.53247 19.34375l-3.484375 0l0 -10.484375q0 -2.125 -0.46875 -3.34375q-0.46875 -1.234375 -1.890625 -1.96875q-1.421875 -0.734375 -4.09375 -0.734375q-1.546875 0 -3.453125 0.25l0 16.28125l-3.484375 0l0 -18.921875q3.890625 -0.640625 7.15625 -0.640625q3.578125 0 5.75 1.046875q2.1875 1.046875 3.078125 2.796875q0.890625 1.75 0.890625 4.890625l0 10.828125zm7.2053223 -19.34375l10.71875 0l0 4.8125q0 2.046875 -0.390625 3.3125q-0.375 1.265625 -1.328125 2.5625l-0.984375 1.3125q-1.484375 1.984375 -1.484375 4.25l0 3.09375l-3.46875 0l0 -2.609375q0 -2.34375 0.453125 -3.53125q0.46875 -1.1875 1.359375 -2.328125l1.09375 -1.390625q0.8125 -1.015625 1.03125 -1.828125q0.234375 -0.828125 0.234375 -2.125l0 -2.609375l-10.703125 0l0 -10.296875l3.46875 0l0 7.375zm17.278809 0l10.71875 0l0 4.8125q0 2.046875 -0.390625 3.3125q-0.375 1.265625 -1.328125 2.5625l-0.984375 1.3125q-1.484375 1.984375 -1.484375 4.25l0 3.09375l-3.46875 0l0 -2.609375q0 -2.34375 0.453125 -3.53125q0.46875 -1.1875 1.359375 -2.328125l1.09375 -1.390625q0.8125 -1.015625 1.03125 -1.828125q0.234375 -0.828125 0.234375 -2.125l0 -2.609375l-10.703125 0l0 -10.296875l3.46875 0l0 7.375z" fill-rule="nonzero"/><path fill="#000000" d="m1100.1558 356.06052q2.796875 -0.40625 5.140625 -0.40625q5.421875 0 7.953125 2.078125q2.546875 2.0625 2.546875 7.046875l0 17.875l-3.484375 0l0 -16.953125q0 -3.15625 -0.8125 -4.484375q-0.8125 -1.328125 -2.5 -1.921875q-1.671875 -0.609375 -3.890625 -0.609375q-1.96875 0 -4.671875 0.359375l-0.28125 -2.984375zm24.651001 -0.1875l0 10.015625l-3.546875 0l0 -10.015625l3.546875 0zm7.391968 0l10.71875 0l0 4.8125q0 2.046875 -0.390625 3.3125q-0.375 1.265625 -1.328125 2.5625l-0.984375 1.3125q-1.484375 1.984375 -1.484375 4.25l0 3.09375l-3.46875 0l0 -2.609375q0 -2.34375 0.453125 -3.53125q0.46875 -1.1875 1.359375 -2.328125l1.09375 -1.390625q0.8125 -1.015625 1.03125 -1.828125q0.234375 -0.828125 0.234375 -2.125l0 -2.609375l-10.703125 0l0 -10.296875l3.46875 0l0 7.375zm18.481934 17.0l-3.359375 -17.0l3.65625 0l2.875 15.921875q3.09375 -1.21875 3.875 -3.5q0.78125 -2.296875 0.78125 -5.765625l0.1875 -6.65625l3.515625 0l-0.1875 5.125q-0.140625 3.703125 -0.3125 5.203125q-0.171875 1.484375 -0.953125 3.28125q-0.765625 1.796875 -2.265625 3.125q-1.5 1.3125 -4.390625 2.40625q-2.875 1.09375 -8.234375 1.984375l-0.5 -3.015625q3.265625 -0.484375 5.3125 -1.109375z" fill-rule="nonzero"/><path fill="#000000" d="m511.576 377.64343l274.16498 0l0 3.3599854l-274.16498 0l0 -3.3599854z" fill-rule="nonzero"/><path fill="#000000" d="m290.87082 481.2324q0 1.296875 -0.4375 1.71875q-0.421875 0.421875 -1.546875 0.421875q-1.09375 0 -1.515625 -0.40625q-0.421875 -0.421875 -0.421875 -1.6875q0 -1.28125 0.421875 -1.703125q0.4375 -0.4375 1.5625 -0.4375q1.09375 0 1.515625 0.421875q0.421875 0.40625 0.421875 1.671875z" fill-rule="nonzero"/><path fill="#000000" d="m296.35648 463.87302l15.78125 0l0 4.8125q0 2.0625 -0.375 3.3125q-0.375 1.25 -1.328125 2.5625l-0.96875 1.3125q-1.5 2.0 -1.5 4.25l0 3.09375l-3.484375 0l0 -2.609375q0 -1.984375 0.359375 -3.203125q0.359375 -1.234375 1.484375 -2.65625l1.078125 -1.390625q0.78125 -1.0 1.03125 -1.8125q0.25 -0.8125 0.25 -2.140625l0 -2.609375l-12.328125 0l0 -2.921875zm0.296875 26.78125l0 -18.34375l3.328125 0l0 18.34375l-3.328125 0zm23.866943 -26.78125l0 19.34375l-3.546875 0l0 -19.34375l3.546875 0zm3.5638123 0.1875q2.7969055 -0.40625 5.1562805 -0.40625q5.859375 0 8.171875 2.28125q2.3125 2.265625 2.3125 6.84375l0 10.4375l-3.46875 0l0 -9.515625q0 -2.640625 -0.5625 -3.984375q-0.5625 -1.359375 -2.171875 -2.1875q-1.609375 -0.84375 -4.484375 -0.84375q-1.953125 0 -4.6719055 0.359375l-0.28125 -2.984375zm24.651031 -0.1875l0 10.015625l-3.546875 0l0 -10.015625l3.546875 0zm5.5638123 0.359375q3.296875 -0.578125 6.421875 -0.578125q6.046875 0 8.359375 2.25q2.3125 2.234375 2.3125 6.875l0 10.4375l-3.484375 0l0 -9.515625q0 -2.890625 -0.671875 -4.25q-0.671875 -1.359375 -2.328125 -2.0625q-1.640625 -0.703125 -4.796875 -0.703125q-2.484375 0 -5.515625 0.515625l-0.296875 -2.96875zm3.703125 8.078125l0 10.90625l-3.484375 0l0 -10.90625l3.484375 0z" fill-rule="nonzero"/><path fill="#000000" d="m388.24258 480.87302l-3.359375 -17.0l3.65625 0l2.875 15.921875q3.09375 -1.21875 3.875 -3.5q0.78125 -2.296875 0.78125 -5.765625l0.1875 -6.65625l3.515625 0l-0.1875 5.125q-0.140625 3.703125 -0.3125 5.203125q-0.171875 1.484375 -0.953125 3.28125q-0.765625 1.796875 -2.265625 3.125q-1.5 1.3125 -4.390625 2.40625q-2.875 1.09375 -8.234375 1.984375l-0.5 -3.015625q3.265625 -0.484375 5.3125 -1.109375zm20.367035 -17.0l0 19.34375l-3.546875 0l0 -19.34375l3.546875 0zm19.157562 16.421875l3.078125 0l0 2.921875l-18.5 0l0 -2.921875l11.9375 0l0 -6.59375q0 -2.703125 -0.609375 -4.046875q-0.59375 -1.359375 -2.171875 -2.15625q-1.5625 -0.8125 -4.90625 -0.8125q-1.1875 0 -3.65625 0.25l-0.296875 -2.875q2.453125 -0.40625 5.234375 -0.40625q5.203125 0 7.546875 2.265625q2.34375 2.265625 2.34375 6.859375l0 7.515625zm10.278442 -16.421875l0 10.015625l-3.546875 0l0 -10.015625l3.546875 0zm3.5638428 0.1875q2.796875 -0.40625 5.15625 -0.40625q5.859375 0 8.171875 2.28125q2.3125 2.265625 2.3125 6.84375l0 10.4375l-3.46875 0l0 -9.515625q0 -2.640625 -0.5625 -3.984375q-0.5625 -1.359375 -2.171875 -2.1875q-1.609375 -0.84375 -4.484375 -0.84375q-1.953125 0 -4.671875 0.359375l-0.28125 -2.984375zm21.010376 0.171875q3.296875 -0.578125 6.421875 -0.578125q6.046875 0 8.359375 2.25q2.3125 2.234375 2.3125 6.875l0 10.4375l-3.484375 0l0 -9.515625q0 -2.890625 -0.671875 -4.25q-0.671875 -1.359375 -2.328125 -2.0625q-1.640625 -0.703125 -4.796875 -0.703125q-2.484375 0 -5.515625 0.515625l-0.296875 -2.96875zm3.703125 8.078125l0 10.90625l-3.484375 0l0 -10.90625l3.484375 0z" fill-rule="nonzero"/><path fill="#000000" d="m491.5322 482.76364l0.59375 -2.609375q0.953125 0.328125 2.0625 0.328125q1.25 0 1.71875 -0.546875q0.484375 -0.5625 0.484375 -2.015625l0 -11.15625q-1.5625 0 -3.84375 0.328125l-0.3125 -2.90625q4.15625 -0.53125 8.4375 -0.53125q4.34375 0 6.671875 0.734375q2.328125 0.734375 3.5625 2.671875q1.2343445 1.9375 1.2343445 5.71875l0 10.4375l-3.4843445 0l0 -9.515625q0 -2.828125 -0.4375 -4.140625q-0.421875 -1.3125 -1.859375 -2.125q-1.4375 -0.828125 -4.75 -0.828125l-1.75 0.046875l0 11.71875q0 1.8125 -0.34375 2.78125q-0.328125 0.96875 -1.40625 1.59375q-1.0625 0.609375 -3.171875 0.609375q-1.71875 0 -3.40625 -0.59375zm29.017487 -1.890625l-3.359375 -17.0l3.65625 0l2.875 15.921875q3.09375 -1.21875 3.875 -3.5q0.78125 -2.296875 0.78125 -5.765625l0.1875 -6.65625l3.515625 0l-0.1875 5.125q-0.140625 3.703125 -0.3125 5.203125q-0.171875 1.484375 -0.953125 3.28125q-0.765625 1.796875 -2.265625 3.125q-1.5 1.3125 -4.390625 2.40625q-2.875 1.09375 -8.234375 1.984375l-0.5 -3.015625q3.265625 -0.484375 5.3125 -1.109375zm16.210754 -16.359375q3.15625 -0.96875 6.609375 -0.96875q4.234375 0 7.078125 2.5q2.84375 2.5 2.84375 7.234375q0 4.6875 -2.921875 7.46875q-2.90625 2.765625 -8.125 2.765625q-3.546875 0 -5.609375 -1.296875l0.84375 -2.875q1.78125 1.140625 4.53125 1.140625q3.125 0 5.375 -1.765625q2.25 -1.78125 2.25 -5.359375q0 -3.140625 -1.765625 -5.046875q-1.765625 -1.90625 -4.71875 -1.90625q-1.53125 0 -3.03125 0.359375l0 3.53125q0 2.234375 2.234375 2.234375q0.921875 0 1.53125 -0.21875l0.375 2.546875q-1.0625 0.453125 -2.46875 0.453125q-2.359375 0 -3.703125 -1.28125q-1.328125 -1.296875 -1.328125 -3.8125l0 -5.703125zm24.55188 -0.640625l0 19.34375l-3.546875 0l0 -19.34375l3.546875 0zm5.5637817 0.359375q3.296875 -0.578125 6.421875 -0.578125q6.046875 0 8.359375 2.25q2.3125 2.234375 2.3125 6.875l0 10.4375l-3.484375 0l0 -9.515625q0 -2.890625 -0.671875 -4.25q-0.671875 -1.359375 -2.328125 -2.0625q-1.640625 -0.703125 -4.796875 -0.703125q-2.484375 0 -5.515625 0.515625l-0.296875 -2.96875zm3.703125 8.078125l0 10.90625l-3.484375 0l0 -10.90625l3.484375 0z" fill-rule="nonzero"/><path fill="#000000" d="m595.78845 464.06052q2.796875 -0.40625 5.15625 -0.40625q5.859375 0 8.171875 2.28125q2.3125 2.265625 2.3125 6.84375l0 10.4375l-3.46875 0l0 -9.515625q0 -2.640625 -0.5625 -3.984375q-0.5625 -1.359375 -2.171875 -2.1875q-1.609375 -0.84375 -4.484375 -0.84375q-1.953125 0 -4.671875 0.359375l-0.28125 -2.984375zm37.979126 19.15625l-3.484375 0l0 -10.484375q0 -2.125 -0.46875 -3.34375q-0.46875 -1.234375 -1.890625 -1.96875q-1.421875 -0.734375 -4.09375 -0.734375q-1.546875 0 -3.453125 0.25l0 16.28125l-3.484375 0l0 -18.921875q3.890625 -0.640625 7.15625 -0.640625q3.578125 0 5.75 1.046875q2.1875 1.046875 3.078125 2.796875q0.890625 1.75 0.890625 4.890625l0 10.828125zm22.658325 0l-4.296875 0l-7.390625 -10.4375q-1.71875 0.921875 -2.015625 3.75l-0.796875 6.6875l-3.609375 0l0.796875 -6.6875q0.546875 -4.671875 3.78125 -6.3125l-4.5 -6.34375l4.28125 0l6.203125 8.65625q1.125 -0.734375 1.5625 -1.671875q0.453125 -0.953125 0.71875 -3.09375l0.453125 -3.890625l3.609375 0l-0.4375 4.0q-0.296875 2.5625 -1.171875 4.21875q-0.859375 1.640625 -2.984375 2.9375l5.796875 8.1875zm5.562195 -19.34375l10.71875 0l0 4.8125q0 2.046875 -0.390625 3.3125q-0.375 1.265625 -1.328125 2.5625l-0.984375 1.3125q-1.484375 1.984375 -1.484375 4.25l0 3.09375l-3.46875 0l0 -2.609375q0 -2.34375 0.453125 -3.53125q0.46875 -1.1875 1.359375 -2.328125l1.09375 -1.390625q0.8125 -1.015625 1.03125 -1.828125q0.234375 -0.828125 0.234375 -2.125l0 -2.609375l-10.703125 0l0 -10.296875l3.46875 0l0 7.375z" fill-rule="nonzero"/><path fill="#000000" d="m685.8778 463.87302l15.78125 0l0 4.8125q0 2.0625 -0.375 3.3125q-0.375 1.25 -1.328125 2.5625l-0.96875 1.3125q-1.5 2.0 -1.5 4.25l0 3.09375l-3.484375 0l0 -2.609375q0 -1.984375 0.359375 -3.203125q0.359375 -1.234375 1.484375 -2.65625l1.078125 -1.390625q0.78125 -1.0 1.03125 -1.8125q0.25 -0.8125 0.25 -2.140625l0 -2.609375l-12.328125 0l0 -2.921875zm0.296875 26.78125l0 -18.34375l3.328125 0l0 18.34375l-3.328125 0zm18.226318 -26.59375q2.796875 -0.40625 5.15625 -0.40625q5.859375 0 8.171875 2.28125q2.3125 2.265625 2.3125 6.84375l0 10.4375l-3.46875 0l0 -9.515625q0 -2.640625 -0.5625 -3.984375q-0.5625 -1.359375 -2.171875 -2.1875q-1.609375 -0.84375 -4.484375 -0.84375q-1.953125 0 -4.671875 0.359375l-0.28125 -2.984375z" fill-rule="nonzero"/><path fill="#000000" d="m736.4752 463.87302l0.078125 3.140625q0.109375 4.828125 0.40625 6.6875q1.9375 0 3.484375 -0.96875q1.546875 -0.96875 1.546875 -3.65625l0.390625 -5.203125l3.5 0l-0.4375 6.09375q-0.109375 1.546875 -0.34375 2.359375q-0.234375 0.796875 -0.984375 1.6875q-0.734375 0.890625 -2.328125 1.5625q-1.59375 0.65625 -4.296875 0.875q0.453125 1.96875 2.109375 3.15625q1.671875 1.1875 4.09375 1.1875q2.234375 0 3.84375 -1.0625q1.609375 -1.078125 2.375 -2.75q0.765625 -1.6875 1.015625 -4.8125l0.78125 -8.296875l3.5 0l-0.65625 7.171875q-0.375 4.03125 -1.359375 6.71875q-0.984375 2.671875 -3.421875 4.328125q-2.4375 1.65625 -6.28125 1.65625q-3.40625 0 -5.71875 -1.640625q-2.296875 -1.65625 -3.4375 -4.71875q-1.140625 -3.0625 -1.140625 -8.171875l-0.25 -5.34375l3.53125 0zm23.293274 0l15.78125 0l0 4.8125q0 2.0625 -0.375 3.3125q-0.375 1.25 -1.328125 2.5625l-0.96875 1.3125q-1.5 2.0 -1.5 4.25l0 3.09375l-3.484375 0l0 -2.609375q0 -1.984375 0.359375 -3.203125q0.359375 -1.234375 1.484375 -2.65625l1.078125 -1.390625q0.78125 -1.0 1.03125 -1.8125q0.25 -0.8125 0.25 -2.140625l0 -2.609375l-12.328125 0l0 -2.921875zm0.296875 26.78125l0 -18.34375l3.328125 0l0 18.34375l-3.328125 0zm21.945007 -18.703125l-3.0 -8.078125l3.40625 0l1.421875 4.265625q0.859375 -1.875 2.6875 -3.171875q1.828125 -1.3125 3.921875 -1.3125q2.21875 0 3.828125 1.140625q1.625 1.140625 2.34375 3.328125q0.734375 2.1875 0.734375 6.578125l0 8.515625l-9.96875 0l0 -2.921875l6.453125 0l0 -5.65625q0 -3.21875 -0.21875 -4.6875q-0.203125 -1.46875 -1.078125 -2.375q-0.859375 -0.921875 -2.171875 -0.921875q-2.046875 0 -3.484375 2.109375q-1.421875 2.09375 -2.421875 7.296875l-1.359375 7.15625l-3.53125 0l1.53125 -7.546875q0.21875 -1.078125 0.90625 -3.71875zm20.718262 -7.71875q3.296875 -0.578125 6.421875 -0.578125q6.046875 0 8.359375 2.25q2.3125 2.234375 2.3125 6.875l0 10.4375l-3.484375 0l0 -9.515625q0 -2.890625 -0.671875 -4.25q-0.671875 -1.359375 -2.328125 -2.0625q-1.640625 -0.703125 -4.796875 -0.703125q-2.484375 0 -5.515625 0.515625l-0.296875 -2.96875zm3.703125 8.078125l0 10.90625l-3.484375 0l0 -10.90625l3.484375 0z" fill-rule="nonzero"/><path fill="#000000" d="m835.4692 463.87302l10.71875 0l0 4.8125q0 2.046875 -0.390625 3.3125q-0.375 1.265625 -1.328125 2.5625l-0.984375 1.3125q-1.484375 1.984375 -1.484375 4.25l0 3.09375l-3.46875 0l0 -2.609375q0 -2.34375 0.453125 -3.53125q0.46875 -1.1875 1.359375 -2.328125l1.09375 -1.390625q0.8125 -1.015625 1.03125 -1.828125q0.234375 -0.828125 0.234375 -2.125l0 -2.609375l-10.703125 0l0 -10.296875l3.46875 0l0 7.375zm18.481995 17.0l-3.359375 -17.0l3.65625 0l2.875 15.921875q3.09375 -1.21875 3.875 -3.5q0.78125 -2.296875 0.78125 -5.765625l0.1875 -6.65625l3.515625 0l-0.1875 5.125q-0.140625 3.703125 -0.3125 5.203125q-0.171875 1.484375 -0.953125 3.28125q-0.765625 1.796875 -2.265625 3.125q-1.5 1.3125 -4.390625 2.40625q-2.875 1.09375 -8.234375 1.984375l-0.5 -3.015625q3.265625 -0.484375 5.3125 -1.109375z" fill-rule="nonzero"/><path fill="#000000" d="m882.6634 490.65427l0 -14.75l-5.828125 -12.03125l3.703125 0l4.671875 9.640625q1.4375 -0.84375 2.015625 -1.890625q0.578125 -1.0625 0.765625 -2.828125l0.53125 -4.921875l3.625 0l-0.59375 5.59375q-0.53125 4.921875 -5.453125 6.84375l0 14.34375l-3.4375 0zm17.317932 -26.78125l0 19.34375l-3.546875 0l0 -19.34375l3.546875 0zm22.532593 19.34375l-3.484375 0l0 -10.484375q0 -2.125 -0.46875 -3.34375q-0.46875 -1.234375 -1.890625 -1.96875q-1.421875 -0.734375 -4.09375 -0.734375q-1.546875 0 -3.453125 0.25l0 16.28125l-3.484375 0l0 -18.921875q3.890625 -0.640625 7.15625 -0.640625q3.578125 0 5.75 1.046875q2.1875 1.046875 3.078125 2.796875q0.890625 1.75 0.890625 4.890625l0 10.828125zm7.2052 -19.34375l10.71875 0l0 4.8125q0 2.046875 -0.390625 3.3125q-0.375 1.265625 -1.328125 2.5625l-0.984375 1.3125q-1.484375 1.984375 -1.484375 4.25l0 3.09375l-3.46875 0l0 -2.609375q0 -2.34375 0.453125 -3.53125q0.46875 -1.1875 1.359375 -2.328125l1.09375 -1.390625q0.8125 -1.015625 1.03125 -1.828125q0.234375 -0.828125 0.234375 -2.125l0 -2.609375l-10.703125 0l0 -10.296875l3.46875 0l0 7.375zm17.278809 0l10.71875 0l0 4.8125q0 2.046875 -0.390625 3.3125q-0.375 1.265625 -1.328125 2.5625l-0.984375 1.3125q-1.484375 1.984375 -1.484375 4.25l0 3.09375l-3.46875 0l0 -2.609375q0 -2.34375 0.453125 -3.53125q0.46875 -1.1875 1.359375 -2.328125l1.09375 -1.390625q0.8125 -1.015625 1.03125 -1.828125q0.234375 -0.828125 0.234375 -2.125l0 -2.609375l-10.703125 0l0 -10.296875l3.46875 0l0 7.375z" fill-rule="nonzero"/><path fill="#000000" d="m973.51263 463.87302l0.078125 3.140625q0.109375 4.828125 0.40625 6.6875q1.9375 0 3.484375 -0.96875q1.546875 -0.96875 1.546875 -3.65625l0.390625 -5.203125l3.5 0l-0.4375 6.09375q-0.109375 1.546875 -0.34375 2.359375q-0.234375 0.796875 -0.984375 1.6875q-0.734375 0.890625 -2.328125 1.5625q-1.59375 0.65625 -4.296875 0.875q0.453125 1.96875 2.109375 3.15625q1.671875 1.1875 4.09375 1.1875q2.234375 0 3.84375 -1.0625q1.609375 -1.078125 2.375 -2.75q0.765625 -1.6875 1.015625 -4.8125l0.78125 -8.296875l3.5 0l-0.65625 7.171875q-0.375 4.03125 -1.359375 6.71875q-0.984375 2.671875 -3.421875 4.328125q-2.4375 1.65625 -6.28125 1.65625q-3.40625 0 -5.71875 -1.640625q-2.296875 -1.65625 -3.4375 -4.71875q-1.140625 -3.0625 -1.140625 -8.171875l-0.25 -5.34375l3.53125 0zm26.933899 0l0 10.015625l-3.546875 0l0 -10.015625l3.546875 0zm8.188843 0l0.078125 3.140625q0.109375 4.828125 0.40625 6.6875q1.9375 0 3.484375 -0.96875q1.546875 -0.96875 1.546875 -3.65625l0.390625 -5.203125l3.5 0l-0.4375 6.09375q-0.109375 1.546875 -0.34375 2.359375q-0.234375 0.796875 -0.984375 1.6875q-0.734375 0.890625 -2.328125 1.5625q-1.59375 0.65625 -4.296875 0.875q0.453125 1.96875 2.109375 3.15625q1.671875 1.1875 4.09375 1.1875q2.234375 0 3.84375 -1.0625q1.609375 -1.078125 2.375 -2.75q0.765625 -1.6875 1.015625 -4.8125l0.78125 -8.296875l3.5 0l-0.65625 7.171875q-0.375 4.03125 -1.359375 6.71875q-0.984375 2.671875 -3.421875 4.328125q-2.4375 1.65625 -6.28125 1.65625q-3.40625 0 -5.71875 -1.640625q-2.296875 -1.65625 -3.4375 -4.71875q-1.140625 -3.0625 -1.140625 -8.171875l-0.25 -5.34375l3.53125 0z" fill-rule="nonzero"/><path fill="#000000" d="m1053.9613 480.2949l3.078125 0l0 2.921875l-18.5 0l0 -2.921875l11.9375 0l0 -6.59375q0 -2.703125 -0.609375 -4.046875q-0.59375 -1.359375 -2.171875 -2.15625q-1.5625 -0.8125 -4.90625 -0.8125q-1.1875 0 -3.65625 0.25l-0.296875 -2.875q2.453125 -0.40625 5.234375 -0.40625q5.203125 0 7.546875 2.265625q2.34375 2.265625 2.34375 6.859375l0 7.515625zm8.465942 -16.421875l10.71875 0l0 4.8125q0 2.046875 -0.390625 3.3125q-0.375 1.265625 -1.328125 2.5625l-0.984375 1.3125q-1.484375 1.984375 -1.484375 4.25l0 3.09375l-3.46875 0l0 -2.609375q0 -2.34375 0.453125 -3.53125q0.46875 -1.1875 1.359375 -2.328125l1.09375 -1.390625q0.8125 -1.015625 1.03125 -1.828125q0.234375 -0.828125 0.234375 -2.125l0 -2.609375l-10.703125 0l0 -10.296875l3.46875 0l0 7.375z" fill-rule="nonzero"/><path fill="#000000" d="m1089.9575 463.87302l0 10.015625l-3.546875 0l0 -10.015625l3.546875 0z" fill-rule="nonzero"/><path fill="#000000" d="m1095.8495 487.6074q-0.078125 0.234375 -0.203125 0.375q-0.109375 0.140625 -0.296875 0.203125q-0.171875 0.078125 -0.4375 0.109375q-0.265625 0.046875 -0.65625 0.046875q-0.453125 0 -0.75 -0.0625q-0.296875 -0.0625 -0.46875 -0.1875q-0.15625 -0.125 -0.203125 -0.296875q-0.03125 -0.171875 0.078125 -0.40625l11.03125 -30.234375q0.078125 -0.234375 0.1875 -0.375q0.125 -0.140625 0.296875 -0.21875q0.171875 -0.078125 0.4375 -0.109375q0.28125 -0.03125 0.65625 -0.03125q0.46875 0 0.75 0.0625q0.296875 0.0625 0.453125 0.171875q0.171875 0.109375 0.203125 0.296875q0.046875 0.1875 -0.046875 0.421875l-11.03125 30.234375z" fill-rule="nonzero"/><path fill="#000000" d="m1126.9073 483.21677l-16.875 0l0 -18.921875q3.890625 -0.640625 7.15625 -0.640625q3.578125 0 5.75 1.046875q2.1875 1.046875 3.078125 2.796875q0.890625 1.75 0.890625 4.890625l0 10.828125zm-3.484375 -2.921875l0 -7.5625q0 -2.125 -0.46875 -3.34375q-0.46875 -1.234375 -1.890625 -1.96875q-1.421875 -0.734375 -4.09375 -0.734375q-1.546875 0 -3.453125 0.25l0 13.359375l9.90625 0zm12.502075 -16.421875l0 10.015625l-3.546875 0l0 -10.015625l3.546875 0zm8.188843 0l0.078125 3.140625q0.109375 4.828125 0.40625 6.6875q1.9375 0 3.484375 -0.96875q1.546875 -0.96875 1.546875 -3.65625l0.390625 -5.203125l3.5 0l-0.4375 6.09375q-0.109375 1.546875 -0.34375 2.359375q-0.234375 0.796875 -0.984375 1.6875q-0.734375 0.890625 -2.328125 1.5625q-1.59375 0.65625 -4.296875 0.875q0.453125 1.96875 2.109375 3.15625q1.671875 1.1875 4.09375 1.1875q2.234375 0 3.84375 -1.0625q1.609375 -1.078125 2.375 -2.75q0.765625 -1.6875 1.015625 -4.8125l0.78125 -8.296875l3.5 0l-0.65625 7.171875q-0.375 4.03125 -1.359375 6.71875q-0.984375 2.671875 -3.421875 4.328125q-2.4375 1.65625 -6.28125 1.65625q-3.40625 0 -5.71875 -1.640625q-2.296875 -1.65625 -3.4375 -4.71875q-1.140625 -3.0625 -1.140625 -8.171875l-0.25 -5.34375l3.53125 0z" fill-rule="nonzero"/><path fill="#000000" d="m706.00055 589.2323q0 1.296875 -0.4375 1.71875q-0.421875 0.421875 -1.546875 0.421875q-1.09375 0 -1.515625 -0.40625q-0.421875 -0.421875 -0.421875 -1.6875q0 -1.28125 0.421875 -1.703125q0.4375 -0.4375 1.5625 -0.4375q1.09375 0 1.515625 0.421875q0.421875 0.40625 0.421875 1.671875z" fill-rule="nonzero"/><path fill="#000000" d="m728.45496 591.2167l-3.484375 0l0 -10.484375q0 -2.125 -0.46875 -3.34375q-0.46875 -1.234375 -1.890625 -1.96875q-1.421875 -0.734375 -4.09375 -0.734375q-1.546875 0 -3.453125 0.25l0 16.28125l-3.484375 0l0 -18.921875q3.890625 -0.640625 7.15625 -0.640625q3.578125 0 5.75 1.046875q2.1875 1.046875 3.078125 2.796875q0.890625 1.75 0.890625 4.890625l0 10.828125zm9.0177 -19.34375l0 19.34375l-3.546875 0l0 -19.34375l3.546875 0zm9.204468 0l0 19.34375l-3.546875 0l0 -19.34375l3.546875 0zm3.5638428 0.1875q2.796875 -0.40625 5.15625 -0.40625q5.859375 0 8.171875 2.28125q2.3125 2.265625 2.3125 6.84375l0 10.4375l-3.46875 0l0 -9.515625q0 -2.640625 -0.5625 -3.984375q-0.5625 -1.359375 -2.171875 -2.1875q-1.609375 -0.84375 -4.484375 -0.84375q-1.953125 0 -4.671875 0.359375l-0.28125 -2.984375zm21.010376 0.171875q3.296875 -0.578125 6.421875 -0.578125q6.046875 0 8.359375 2.25q2.3125 2.234375 2.3125 6.875l0 10.4375l-3.484375 0l0 -9.515625q0 -2.890625 -0.671875 -4.25q-0.671875 -1.359375 -2.328125 -2.0625q-1.640625 -0.703125 -4.796875 -0.703125q-2.484375 0 -5.515625 0.515625l-0.296875 -2.96875zm3.703125 8.078125l0 10.90625l-3.484375 0l0 -10.90625l3.484375 0z" fill-rule="nonzero"/><path fill="#000000" d="m804.7887 571.8729l0.078125 3.140625q0.109375 4.828125 0.40625 6.6875q1.9375 0 3.484375 -0.96875q1.546875 -0.96875 1.546875 -3.65625l0.390625 -5.203125l3.5 0l-0.4375 6.09375q-0.109375 1.546875 -0.34375 2.359375q-0.234375 0.796875 -0.984375 1.6875q-0.734375 0.890625 -2.328125 1.5625q-1.59375 0.65625 -4.296875 0.875q0.453125 1.96875 2.109375 3.15625q1.671875 1.1875 4.09375 1.1875q2.234375 0 3.84375 -1.0625q1.609375 -1.078125 2.375 -2.75q0.765625 -1.6875 1.015625 -4.8125l0.78125 -8.296875l3.5 0l-0.65625 7.171875q-0.375 4.03125 -1.359375 6.71875q-0.984375 2.671875 -3.421875 4.328125q-2.4375 1.65625 -6.28125 1.65625q-3.40625 0 -5.71875 -1.640625q-2.296875 -1.65625 -3.4375 -4.71875q-1.140625 -3.0625 -1.140625 -8.171875l-0.25 -5.34375l3.53125 0zm23.293274 0l15.78125 0l0 4.8125q0 2.0625 -0.375 3.3125q-0.375 1.25 -1.328125 2.5625l-0.96875 1.3125q-1.5 2.0 -1.5 4.25l0 3.09375l-3.484375 0l0 -2.609375q0 -1.984375 0.359375 -3.203125q0.359375 -1.234375 1.484375 -2.65625l1.078125 -1.390625q0.78125 -1.0 1.03125 -1.8125q0.25 -0.8125 0.25 -2.140625l0 -2.609375l-12.328125 0l0 -2.921875zm0.296875 26.78125l0 -18.34375l3.328125 0l0 18.34375l-3.328125 0zm21.945007 -18.703125l-3.0 -8.078125l3.40625 0l1.421875 4.265625q0.859375 -1.875 2.6875 -3.171875q1.828125 -1.3125 3.921875 -1.3125q2.21875 0 3.828125 1.140625q1.625 1.140625 2.34375 3.328125q0.734375 2.1875 0.734375 6.578125l0 8.515625l-9.96875 0l0 -2.921875l6.453125 0l0 -5.65625q0 -3.21875 -0.21875 -4.6875q-0.203125 -1.46875 -1.078125 -2.375q-0.859375 -0.921875 -2.171875 -0.921875q-2.046875 0 -3.484375 2.109375q-1.421875 2.09375 -2.421875 7.296875l-1.359375 7.15625l-3.53125 0l1.53125 -7.546875q0.21875 -1.078125 0.90625 -3.71875z" fill-rule="nonzero"/><path fill="#000000" d="m881.3092 571.8729l10.71875 0l0 4.8125q0 2.046875 -0.390625 3.3125q-0.375 1.265625 -1.328125 2.5625l-0.984375 1.3125q-1.484375 1.984375 -1.484375 4.25l0 3.09375l-3.46875 0l0 -2.609375q0 -2.34375 0.453125 -3.53125q0.46875 -1.1875 1.359375 -2.328125l1.09375 -1.390625q0.8125 -1.015625 1.03125 -1.828125q0.234375 -0.828125 0.234375 -2.125l0 -2.609375l-10.703125 0l0 -10.296875l3.46875 0l0 7.375zm18.481934 17.0l-3.359375 -17.0l3.65625 0l2.875 15.921875q3.09375 -1.21875 3.875 -3.5q0.78125 -2.296875 0.78125 -5.765625l0.1875 -6.65625l3.515625 0l-0.1875 5.125q-0.140625 3.703125 -0.3125 5.203125q-0.171875 1.484375 -0.953125 3.28125q-0.765625 1.796875 -2.265625 3.125q-1.5 1.3125 -4.390625 2.40625q-2.875 1.09375 -8.234375 1.984375l-0.5 -3.015625q3.265625 -0.484375 5.3125 -1.109375z" fill-rule="nonzero"/><path fill="#000000" d="m928.50336 598.6542l0 -14.75l-5.828125 -12.03125l3.703125 0l4.671875 9.640625q1.4375 -0.84375 2.015625 -1.890625q0.578125 -1.0625 0.765625 -2.828125l0.53125 -4.921875l3.625 0l-0.59375 5.59375q-0.53125 4.921875 -5.453125 6.84375l0 14.34375l-3.4375 0zm17.317932 -26.78125l0 19.34375l-3.546875 0l0 -19.34375l3.546875 0zm22.532593 19.34375l-3.484375 0l0 -10.484375q0 -2.125 -0.46875 -3.34375q-0.46875 -1.234375 -1.890625 -1.96875q-1.421875 -0.734375 -4.09375 -0.734375q-1.546875 0 -3.453125 0.25l0 16.28125l-3.484375 0l0 -18.921875q3.890625 -0.640625 7.15625 -0.640625q3.578125 0 5.75 1.046875q2.1875 1.046875 3.078125 2.796875q0.890625 1.75 0.890625 4.890625l0 10.828125zm7.2052 -19.34375l10.71875 0l0 4.8125q0 2.046875 -0.390625 3.3125q-0.375 1.265625 -1.328125 2.5625l-0.984375 1.3125q-1.484375 1.984375 -1.484375 4.25l0 3.09375l-3.46875 0l0 -2.609375q0 -2.34375 0.453125 -3.53125q0.46875 -1.1875 1.359375 -2.328125l1.09375 -1.390625q0.8125 -1.015625 1.03125 -1.828125q0.234375 -0.828125 0.234375 -2.125l0 -2.609375l-10.703125 0l0 -10.296875l3.46875 0l0 7.375zm17.278809 0l10.71875 0l0 4.8125q0 2.046875 -0.390625 3.3125q-0.375 1.265625 -1.328125 2.5625l-0.984375 1.3125q-1.484375 1.984375 -1.484375 4.25l0 3.09375l-3.46875 0l0 -2.609375q0 -2.34375 0.453125 -3.53125q0.46875 -1.1875 1.359375 -2.328125l1.09375 -1.390625q0.8125 -1.015625 1.03125 -1.828125q0.234375 -0.828125 0.234375 -2.125l0 -2.609375l-10.703125 0l0 -10.296875l3.46875 0l0 7.375z" fill-rule="nonzero"/><path fill="#000000" d="m1019.35254 571.8729l0.078125 3.140625q0.109375 4.828125 0.40625 6.6875q1.9375 0 3.484375 -0.96875q1.546875 -0.96875 1.546875 -3.65625l0.390625 -5.203125l3.5 0l-0.4375 6.09375q-0.109375 1.546875 -0.34375 2.359375q-0.234375 0.796875 -0.984375 1.6875q-0.734375 0.890625 -2.328125 1.5625q-1.59375 0.65625 -4.296875 0.875q0.453125 1.96875 2.109375 3.15625q1.671875 1.1875 4.09375 1.1875q2.234375 0 3.84375 -1.0625q1.609375 -1.078125 2.375 -2.75q0.765625 -1.6875 1.015625 -4.8125l0.78125 -8.296875l3.5 0l-0.65625 7.171875q-0.375 4.03125 -1.359375 6.71875q-0.984375 2.671875 -3.421875 4.328125q-2.4375 1.65625 -6.28125 1.65625q-3.40625 0 -5.71875 -1.640625q-2.296875 -1.65625 -3.4375 -4.71875q-1.140625 -3.0625 -1.140625 -8.171875l-0.25 -5.34375l3.53125 0zm26.93396 0l0 10.015625l-3.546875 0l0 -10.015625l3.546875 0z" fill-rule="nonzero"/><path fill="#000000" d="m1058.2892 572.0604q2.796875 -0.40625 5.140625 -0.40625q5.421875 0 7.953125 2.078125q2.546875 2.0625 2.546875 7.046875l0 17.875l-3.484375 0l0 -16.953125q0 -3.15625 -0.8125 -4.484375q-0.8125 -1.328125 -2.5 -1.921875q-1.671875 -0.609375 -3.890625 -0.609375q-1.96875 0 -4.671875 0.359375l-0.28125 -2.984375zm23.635376 -0.1875l0.078125 3.140625q0.109375 4.828125 0.40625 6.6875q1.9375 0 3.484375 -0.96875q1.546875 -0.96875 1.546875 -3.65625l0.390625 -5.203125l3.5 0l-0.4375 6.09375q-0.109375 1.546875 -0.34375 2.359375q-0.234375 0.796875 -0.984375 1.6875q-0.734375 0.890625 -2.328125 1.5625q-1.59375 0.65625 -4.296875 0.875q0.453125 1.96875 2.109375 3.15625q1.671875 1.1875 4.09375 1.1875q2.234375 0 3.84375 -1.0625q1.609375 -1.078125 2.375 -2.75q0.765625 -1.6875 1.015625 -4.8125l0.78125 -8.296875l3.5 0l-0.65625 7.171875q-0.375 4.03125 -1.359375 6.71875q-0.984375 2.671875 -3.421875 4.328125q-2.4375 1.65625 -6.28125 1.65625q-3.40625 0 -5.71875 -1.640625q-2.296875 -1.65625 -3.4375 -4.71875q-1.140625 -3.0625 -1.140625 -8.171875l-0.25 -5.34375l3.53125 0zm25.011963 8.078125l-3.0 -8.078125l3.40625 0l1.421875 4.265625q0.859375 -1.875 2.6875 -3.171875q1.828125 -1.3125 3.921875 -1.3125q2.21875 0 3.828125 1.140625q1.625 1.140625 2.34375 3.328125q0.734375 2.1875 0.734375 6.578125l0 8.515625l-9.96875 0l0 -2.921875l6.453125 0l0 -5.65625q0 -3.21875 -0.21875 -4.6875q-0.203125 -1.46875 -1.078125 -2.375q-0.859375 -0.921875 -2.171875 -0.921875q-2.046875 0 -3.484375 2.109375q-1.421875 2.09375 -2.421875 7.296875l-1.359375 7.15625l-3.53125 0l1.53125 -7.546875q0.21875 -1.078125 0.90625 -3.71875zm20.718262 -7.71875q3.296875 -0.578125 6.421875 -0.578125q6.046875 0 8.359375 2.25q2.3125 2.234375 2.3125 6.875l0 10.4375l-3.484375 0l0 -9.515625q0 -2.890625 -0.671875 -4.25q-0.671875 -1.359375 -2.328125 -2.0625q-1.640625 -0.703125 -4.796875 -0.703125q-2.484375 0 -5.515625 0.515625l-0.296875 -2.96875zm3.703125 8.078125l0 10.90625l-3.484375 0l0 -10.90625l3.484375 0zm20.59851 -8.4375l10.71875 0l0 4.8125q0 2.046875 -0.390625 3.3125q-0.375 1.265625 -1.328125 2.5625l-0.984375 1.3125q-1.484375 1.984375 -1.484375 4.25l0 3.09375l-3.46875 0l0 -2.609375q0 -2.34375 0.453125 -3.53125q0.46875 -1.1875 1.359375 -2.328125l1.09375 -1.390625q0.8125 -1.015625 1.03125 -1.828125q0.234375 -0.828125 0.234375 -2.125l0 -2.609375l-10.703125 0l0 -10.296875l3.46875 0l0 7.375z" fill-rule="nonzero"/></g></svg>