<svg version="1.1" viewBox="0.0 0.0 1280.0 720.0" fill="none" stroke="none" stroke-linecap="square" stroke-miterlimit="10" xmlns:xlink="http://www.w3.org/1999/xlink" xmlns="http://www.w3.org/2000/svg"><clipPath id="p4.0"><path d="m0 0l1280.0 0l0 720.0l-1280.0 0l0 -720.0z" clip-rule="nonzero"/></clipPath><g clip-path="url(#p4.0)"><path fill="#4b4b4b" d="m0 0l1280.0 0l0 720.0l-1280.0 0z" fill-rule="evenodd"/><path fill="#000000" fill-opacity="0.0" d="m88.0 191.66667l1104.0 0l0 456.83337l-1104.0 0z" fill-rule="evenodd"/><path fill="#000000" d="m210.70703 339.51886q1.4375 0.46875 2.5625 0.46875q1.40625 0 1.84375 -0.6875q0.453125 -0.6875 0.453125 -2.609375l0 -11.90625q-1.640625 0 -5.0 0.390625l-0.515625 -5.078125q6.046875 -0.78125 12.5625 -0.78125q5.515625 0 8.71875 0.96875q3.21875 0.953125 4.84375 3.515625q1.625 2.546875 1.625 7.234375l0 13.4375l-6.578125 0l0 -12.234375q0 -4.734375 -1.578125 -6.203125q-1.5625 -1.484375 -7.5 -1.484375l0 12.4375q0 3.171875 -0.484375 4.546875q-0.46875 1.359375 -1.96875 2.25q-1.5 0.875 -4.265625 0.875q-3.0 0 -5.71875 -0.875l1.0 -4.265625zm42.757812 0.046875q2.640625 -1.0 3.4375 -2.796875q0.796875 -1.8125 0.875 -5.40625l0.28125 -11.765625l6.53125 0l-0.34375 8.9375q-0.140625 4.078125 -0.4375 6.171875q-0.296875 2.09375 -1.34375 4.15625q-1.03125 2.0625 -3.234375 3.734375q-2.1875 1.65625 -6.671875 3.125q-4.484375 1.46875 -10.53125 2.453125l-0.828125 -5.390625q3.75 -0.5625 6.5 -1.25l-4.3125 -21.9375l6.65625 0l3.421875 19.96875zm16.570312 -19.1875q4.421875 -1.203125 9.015625 -1.203125q6.546875 0 10.421875 3.4375q3.875 3.4375 3.875 8.890625q0 6.359375 -4.21875 9.859375q-4.21875 3.484375 -11.03125 3.484375q-4.296875 0 -8.703125 -1.578125l1.296875 -4.421875q3.5625 1.359375 6.765625 1.359375q4.109375 0 6.5625 -2.125q2.46875 -2.125 2.46875 -6.296875q0 -3.8125 -2.0 -5.984375q-1.984375 -2.1875 -5.59375 -2.1875q-1.3125 0 -2.671875 0.25l0 2.890625q0 3.421875 2.734375 3.421875q0.375 0 0.84375 -0.046875l1.109375 4.078125q-1.671875 0.703125 -3.640625 0.703125q-1.828125 0 -3.4375 -0.65625q-1.59375 -0.65625 -2.703125 -2.3125q-1.09375 -1.671875 -1.09375 -5.75l0 -5.8125zm35.125 -0.78125l0 24.875l-6.765625 0l0 -24.875l6.765625 0zm29.726562 24.875l-6.5625 0l0 -11.71875q0 -4.578125 -2.265625 -6.3125q-2.265625 -1.75 -6.8125 -1.75q-3.390625 0 -7.40625 0.578125l-0.46875 -5.265625q3.828125 -0.6875 9.03125 -0.6875q5.640625 0 8.734375 1.640625q3.09375 1.625 4.421875 4.078125q1.328125 2.4375 1.328125 6.75l0 12.6875zm-16.640625 -12.921875l0 12.921875l-6.59375 0l0 -12.921875l6.59375 0z" fill-rule="nonzero"/><path fill="#000000" d="m350.72266 339.51886q1.4375 0.46875 2.5625 0.46875q1.40625 0 1.84375 -0.6875q0.453125 -0.6875 0.453125 -2.609375l0 -11.90625q-1.640625 0 -5.0 0.390625l-0.515625 -5.078125q6.046875 -0.78125 12.5625 -0.78125q5.515625 0 8.71875 0.96875q3.21875 0.953125 4.84375 3.515625q1.625 2.546875 1.625 7.234375l0 13.4375l-6.578125 0l0 -12.234375q0 -4.734375 -1.578125 -6.203125q-1.5625 -1.484375 -7.5 -1.484375l0 12.4375q0 3.171875 -0.484375 4.546875q-0.46875 1.359375 -1.96875 2.25q-1.5 0.875 -4.265625 0.875q-3.0 0 -5.71875 -0.875l1.0 -4.265625zm50.132812 -5.625l7.5 10.578125l-7.734375 0l-8.6875 -12.28125q-1.640625 1.609375 -2.0625 7.328125l-0.375 4.953125l-6.375 0l0.46875 -5.28125q0.46875 -5.359375 1.828125 -7.703125q1.359375 -2.34375 3.4375 -3.640625l-5.78125 -8.25l7.703125 0l7.203125 10.171875q1.828125 -1.328125 2.21875 -6.09375l0.328125 -4.078125l6.09375 0l-0.28125 3.03125q-0.484375 5.265625 -1.828125 7.515625q-1.328125 2.234375 -3.65625 3.75z" fill-rule="nonzero"/><path fill="#000000" d="m421.85547 339.51886q1.4375 0.46875 2.5625 0.46875q1.40625 0 1.84375 -0.6875q0.453125 -0.6875 0.453125 -2.609375l0 -11.90625q-1.640625 0 -5.0 0.390625l-0.515625 -5.078125q6.046875 -0.78125 12.5625 -0.78125q5.515625 0 8.71875 0.96875q3.21875 0.953125 4.84375 3.515625q1.625 2.546875 1.625 7.234375l0 13.4375l-6.578125 0l0 -12.234375q0 -4.734375 -1.578125 -6.203125q-1.5625 -1.484375 -7.5 -1.484375l0 12.4375q0 3.171875 -0.484375 4.546875q-0.46875 1.359375 -1.96875 2.25q-1.5 0.875 -4.265625 0.875q-3.0 0 -5.71875 -0.875l1.0 -4.265625zm40.195312 -19.921875l0 24.875l-6.765625 0l0 -24.875l6.765625 0zm6.1484375 0.78125q4.421875 -1.203125 9.015625 -1.203125q6.546875 0 10.421875 3.4375q3.875 3.4375 3.875 8.890625q0 6.359375 -4.21875 9.859375q-4.21875 3.484375 -11.03125 3.484375q-4.296875 0 -8.703125 -1.578125l1.296875 -4.421875q3.5625 1.359375 6.765625 1.359375q4.109375 0 6.5625 -2.125q2.46875 -2.125 2.46875 -6.296875q0 -3.8125 -2.0 -5.984375q-1.984375 -2.1875 -5.59375 -2.1875q-1.3125 0 -2.671875 0.25l0 2.890625q0 3.421875 2.734375 3.421875q0.375 0 0.84375 -0.046875l1.109375 4.078125q-1.671875 0.703125 -3.640625 0.703125q-1.828125 0 -3.4375 -0.65625q-1.59375 -0.65625 -2.703125 -2.3125q-1.09375 -1.671875 -1.09375 -5.75l0 -5.8125zm47.40625 -0.78125l-0.234375 3.84375l-0.15625 2.1875q-0.078125 1.046875 -0.390625 2.125q-0.296875 1.078125 -0.96875 2.15625q-0.65625 1.0625 -1.6875 1.984375q-1.03125 0.90625 -2.46875 1.671875l5.09375 7.96875l0 2.9375l-19.734375 0l0 -5.671875l11.078125 0l-12.515625 -19.203125l7.109375 0l6.234375 9.65625q1.140625 -0.328125 1.5 -1.171875q0.375 -0.859375 0.5625 -4.546875l0.203125 -3.9375l6.375 0zm23.703125 0l0 6.40625q0 3.515625 -0.3125 5.15625q-0.296875 1.640625 -1.28125 3.046875l-1.0625 1.515625q-0.984375 1.453125 -1.34375 2.359375q-0.34375 0.90625 -0.34375 2.265625l0 4.125l-6.5625 0l0 -4.453125q0 -1.921875 0.5 -3.25q0.515625 -1.34375 1.984375 -3.390625l0.640625 -0.859375q1.1875 -1.671875 1.1875 -4.125l0 -3.125l-13.234375 0l0 -15.15625l6.5625 0l0 9.484375l13.265625 0z" fill-rule="nonzero"/><path fill="#000000" d="m562.5508 319.597l0 13.875l-6.765625 0l0 -13.875l6.765625 0zm28.382812 5.671875l-3.859375 0l0 19.203125l-6.59375 0l0 -19.203125l-13.59375 0l0 -5.671875l24.046875 0l0 5.671875zm2.9375 18.828125l0.90625 -5.15625q2.34375 0.8125 4.40625 0.8125q3.5625 0 5.625 -2.078125q2.0625 -2.09375 2.0625 -5.625q0 -3.5625 -2.03125 -5.640625q-2.015625 -2.09375 -5.65625 -2.09375q-2.125 0 -4.40625 0.8125l-0.90625 -5.125q2.453125 -0.78125 5.859375 -0.78125q4.46875 0 7.4375 1.453125q2.96875 1.453125 4.796875 4.203125q1.828125 2.734375 1.828125 7.171875q0 4.234375 -1.71875 6.96875q-1.703125 2.734375 -4.734375 4.28125q-3.015625 1.546875 -7.609375 1.546875q-3.328125 0 -5.859375 -0.75zm43.867188 -5.296875l4.5 0l0 5.671875l-24.75 0l0 -5.671875l13.671875 0l0 -6.5625q0 -4.078125 -1.765625 -5.765625q-1.75 -1.6875 -6.046875 -1.6875q-2.53125 0 -5.671875 0.484375l-0.484375 -5.171875q3.65625 -0.78125 7.3125 -0.78125q6.8125 0 10.015625 2.8125q3.21875 2.796875 3.21875 8.90625l0 7.765625z" fill-rule="nonzero"/><path fill="#000000" d="m666.64453 339.56573q2.640625 -1.0 3.4375 -2.796875q0.796875 -1.8125 0.875 -5.40625l0.28125 -11.765625l6.53125 0l-0.34375 8.9375q-0.140625 4.078125 -0.4375 6.171875q-0.296875 2.09375 -1.34375 4.15625q-1.03125 2.0625 -3.234375 3.734375q-2.1875 1.65625 -6.671875 3.125q-4.484375 1.46875 -10.53125 2.453125l-0.828125 -5.390625q3.75 -0.5625 6.5 -1.25l-4.3125 -21.9375l6.65625 0l3.421875 19.96875zm23.523438 -19.96875l0 24.875l-6.765625 0l0 -24.875l6.765625 0zm25.242188 19.203125l4.5 0l0 5.671875l-24.75 0l0 -5.671875l13.671875 0l0 -6.5625q0 -4.078125 -1.765625 -5.765625q-1.75 -1.6875 -6.046875 -1.6875q-2.53125 0 -5.671875 0.484375l-0.484375 -5.171875q3.65625 -0.78125 7.3125 -0.78125q6.8125 0 10.015625 2.8125q3.21875 2.796875 3.21875 8.90625l0 7.765625zm8.6015625 -13.53125l0 -5.671875l21.984375 0l0 6.40625q0 3.515625 -0.3125 5.15625q-0.296875 1.640625 -1.28125 3.046875l-1.046875 1.515625q-1.125 1.671875 -1.40625 2.578125q-0.265625 0.890625 -0.265625 2.046875l0 4.125l-6.578125 0l0 -4.453125q0 -1.921875 0.5 -3.25q0.5 -1.34375 1.984375 -3.390625l0.625 -0.859375q1.203125 -1.671875 1.203125 -4.125l0 -3.125l-15.40625 0zm0 28.765625l0 -22.484375l6.5625 0l0 22.484375l-6.5625 0zm51.007812 -9.5625l-6.5625 0l0 -11.71875q0 -4.578125 -2.265625 -6.3125q-2.265625 -1.75 -6.8125 -1.75q-3.390625 0 -7.40625 0.578125l-0.46875 -5.265625q3.828125 -0.6875 9.03125 -0.6875q5.640625 0 8.734375 1.640625q3.09375 1.625 4.421875 4.078125q1.328125 2.4375 1.328125 6.75l0 12.6875zm-16.640625 -12.921875l0 12.921875l-6.59375 0l0 -12.921875l6.59375 0z" fill-rule="nonzero"/><path fill="#000000" d="m810.8711 338.8001l4.5 0l0 5.671875l-24.75 0l0 -5.671875l13.671875 0l0 -6.5625q0 -4.078125 -1.765625 -5.765625q-1.75 -1.6875 -6.046875 -1.6875q-2.53125 0 -5.671875 0.484375l-0.484375 -5.171875q3.65625 -0.78125 7.3125 -0.78125q6.8125 0 10.015625 2.8125q3.21875 2.796875 3.21875 8.90625l0 7.765625zm27.773438 -19.203125l-0.234375 3.84375l-0.15625 2.1875q-0.078125 1.046875 -0.390625 2.125q-0.296875 1.078125 -0.96875 2.15625q-0.65625 1.0625 -1.6875 1.984375q-1.03125 0.90625 -2.46875 1.671875l5.09375 7.96875l0 2.9375l-19.734375 0l0 -5.671875l11.078125 0l-12.515625 -19.203125l7.109375 0l6.234375 9.65625q1.140625 -0.328125 1.5 -1.171875q0.375 -0.859375 0.5625 -4.546875l0.203125 -3.9375l6.375 0zm5.390625 5.671875l0 -5.671875l21.984375 0l0 6.40625q0 3.515625 -0.3125 5.15625q-0.296875 1.640625 -1.28125 3.046875l-1.046875 1.515625q-1.125 1.671875 -1.40625 2.578125q-0.265625 0.890625 -0.265625 2.046875l0 4.125l-6.578125 0l0 -4.453125q0 -1.921875 0.5 -3.25q0.5 -1.34375 1.984375 -3.390625l0.625 -0.859375q1.203125 -1.671875 1.203125 -4.125l0 -3.125l-15.40625 0zm0 28.765625l0 -22.484375l6.5625 0l0 22.484375l-6.5625 0zm33.164062 -29.109375q3.703125 -5.609375 8.984375 -5.609375q4.40625 0 7.0 3.515625q2.609375 3.5 2.609375 11.328125l0 10.3125l-12.6875 0l0 -5.671875l6.09375 0l0 -5.0q0 -4.890625 -0.828125 -6.84375q-0.8125 -1.96875 -2.84375 -1.96875q-2.15625 0 -3.5625 2.34375q-1.40625 2.328125 -2.578125 8.75l-1.5 8.390625l-6.96875 0l1.15625 -5.421875q1.03125 -4.796875 1.875 -7.046875l-4.171875 -12.40625l5.953125 0l1.46875 5.328125zm43.59375 13.875l4.5 0l0 5.671875l-24.75 0l0 -5.671875l13.671875 0l0 -6.5625q0 -4.078125 -1.765625 -5.765625q-1.75 -1.6875 -6.046875 -1.6875q-2.53125 0 -5.671875 0.484375l-0.484375 -5.171875q3.65625 -0.78125 7.3125 -0.78125q6.8125 0 10.015625 2.8125q3.21875 2.796875 3.21875 8.90625l0 7.765625z" fill-rule="nonzero"/><path fill="#000000" d="m947.1367 319.597l0 13.875l-6.765625 0l0 -13.875l6.765625 0z" fill-rule="nonzero"/><path fill="#000000" d="m956.20703 350.5501q-0.109375 0.296875 -0.296875 0.484375q-0.1875 0.1875 -0.53125 0.296875q-0.34375 0.125 -0.84375 0.1875q-0.5 0.0625 -1.28125 0.0625q-0.953125 0 -1.5625 -0.09375q-0.609375 -0.09375 -0.9375 -0.28125q-0.3125 -0.1875 -0.359375 -0.484375q-0.046875 -0.296875 0.09375 -0.6875l14.015625 -39.359375q0.09375 -0.3125 0.28125 -0.5q0.1875 -0.203125 0.515625 -0.3125q0.328125 -0.125 0.859375 -0.1875q0.53125 -0.0625 1.28125 -0.0625q0.984375 0 1.578125 0.09375q0.59375 0.09375 0.890625 0.28125q0.3125 0.1875 0.359375 0.484375q0.046875 0.296875 -0.0625 0.6875l-14.0 39.390625z" fill-rule="nonzero"/><path fill="#000000" d="m993.03516 344.472l-6.5625 0l0 -12.234375q0 -3.984375 -1.984375 -5.6875q-1.984375 -1.71875 -6.296875 -1.71875q-2.203125 0 -5.828125 0.4375l-0.5 -5.171875q3.375 -0.78125 7.78125 -0.78125q6.6875 0 10.03125 2.796875q3.359375 2.78125 3.359375 8.921875l0 13.4375zm21.9375 -20.15625q-3.265625 0 -5.21875 1.484375q-1.9375 1.484375 -1.9375 4.703125q0 0.890625 0.1875 2.390625q0.59375 4.328125 0.59375 7.828125l0 3.75l-6.125 0l0 -3.171875q0 -3.203125 -0.375 -7.234375q-0.140625 -1.484375 -0.140625 -2.46875q0 -4.21875 2.984375 -6.328125l-6.875 0l0 -5.671875l16.90625 0l0 4.71875zm13.3125 15.25q2.640625 -1.0 3.4375 -2.796875q0.796875 -1.8125 0.875 -5.40625l0.28125 -11.765625l6.53125 0l-0.34375 8.9375q-0.140625 4.078125 -0.4375 6.171875q-0.296875 2.09375 -1.34375 4.15625q-1.03125 2.0625 -3.234375 3.734375q-2.1875 1.65625 -6.671875 3.125q-4.484375 1.46875 -10.53125 2.453125l-0.828125 -5.390625q3.75 -0.5625 6.5 -1.25l-4.3125 -21.9375l6.65625 0l3.421875 19.96875zm40.148438 4.90625l-6.5625 0l0 -11.71875q0 -4.578125 -2.265625 -6.3125q-2.265625 -1.75 -6.8125 -1.75q-3.390625 0 -7.40625 0.578125l-0.46875 -5.265625q3.828125 -0.6875 9.03125 -0.6875q5.640625 0 8.734375 1.640625q3.09375 1.625 4.421875 4.078125q1.328125 2.4375 1.328125 6.75l0 12.6875zm-16.640625 -12.921875l0 12.921875l-6.59375 0l0 -12.921875l6.59375 0z" fill-rule="nonzero"/><path fill="#000000" d="m516.73047 406.097q0 2.171875 -0.765625 2.9375q-0.75 0.75 -2.71875 0.75q-1.96875 0 -2.71875 -0.734375q-0.75 -0.75 -0.75 -2.8125q0 -2.203125 0.75 -2.953125q0.765625 -0.75 2.765625 -0.75q1.9375 0 2.6875 0.734375q0.75 0.734375 0.75 2.828125z" fill-rule="nonzero"/><path fill="#000000" d="m522.70703 390.26886l0 -5.671875l21.984375 0l0 6.40625q0 3.515625 -0.3125 5.15625q-0.296875 1.640625 -1.28125 3.046875l-1.046875 1.515625q-1.125 1.671875 -1.40625 2.578125q-0.265625 0.890625 -0.265625 2.046875l0 4.125l-6.578125 0l0 -4.453125q0 -1.921875 0.5 -3.25q0.5 -1.34375 1.984375 -3.390625l0.625 -0.859375q1.203125 -1.671875 1.203125 -4.125l0 -3.125l-15.40625 0zm0 28.765625l0 -22.484375l6.5625 0l0 22.484375l-6.5625 0zm34.382812 -34.4375l0 24.875l-6.765625 0l0 -24.875l6.765625 0zm25.273438 24.875l-6.5625 0l0 -12.234375q0 -3.984375 -1.984375 -5.6875q-1.984375 -1.71875 -6.296875 -1.71875q-2.203125 0 -5.828125 0.4375l-0.5 -5.171875q3.375 -0.78125 7.78125 -0.78125q6.6875 0 10.03125 2.796875q3.359375 2.78125 3.359375 8.921875l0 13.4375zm12.859375 -24.875l0 13.875l-6.765625 0l0 -13.875l6.765625 0zm29.726562 24.875l-6.5625 0l0 -11.71875q0 -4.578125 -2.265625 -6.3125q-2.265625 -1.75 -6.8125 -1.75q-3.390625 0 -7.40625 0.578125l-0.46875 -5.265625q3.828125 -0.6875 9.03125 -0.6875q5.640625 0 8.734375 1.640625q3.09375 1.625 4.421875 4.078125q1.328125 2.4375 1.328125 6.75l0 12.6875zm-16.640625 -12.921875l0 12.921875l-6.59375 0l0 -12.921875l6.59375 0z" fill-rule="nonzero"/><path fill="#000000" d="m651.22266 404.56573q2.640625 -1.0 3.4375 -2.796875q0.796875 -1.8125 0.875 -5.40625l0.28125 -11.765625l6.53125 0l-0.34375 8.9375q-0.140625 4.078125 -0.4375 6.171875q-0.296875 2.09375 -1.34375 4.15625q-1.03125 2.0625 -3.234375 3.734375q-2.1875 1.65625 -6.671875 3.125q-4.484375 1.46875 -10.53125 2.453125l-0.828125 -5.390625q3.75 -0.5625 6.5 -1.25l-4.3125 -21.9375l6.65625 0l3.421875 19.96875zm23.523438 -19.96875l0 24.875l-6.765625 0l0 -24.875l6.765625 0zm25.242188 19.203125l4.5 0l0 5.671875l-24.75 0l0 -5.671875l13.671875 0l0 -6.5625q0 -4.078125 -1.765625 -5.765625q-1.75 -1.6875 -6.046875 -1.6875q-2.53125 0 -5.671875 0.484375l-0.484375 -5.171875q3.65625 -0.78125 7.3125 -0.78125q6.8125 0 10.015625 2.8125q3.21875 2.796875 3.21875 8.90625l0 7.765625zm15.4921875 -19.203125l0 13.875l-6.765625 0l0 -13.875l6.765625 0zm25.273438 24.875l-6.5625 0l0 -12.234375q0 -3.984375 -1.984375 -5.6875q-1.984375 -1.71875 -6.296875 -1.71875q-2.203125 0 -5.828125 0.4375l-0.5 -5.171875q3.375 -0.78125 7.78125 -0.78125q6.6875 0 10.03125 2.796875q3.359375 2.78125 3.359375 8.921875l0 13.4375zm29.484375 0l-6.5625 0l0 -11.71875q0 -4.578125 -2.265625 -6.3125q-2.265625 -1.75 -6.8125 -1.75q-3.390625 0 -7.40625 0.578125l-0.46875 -5.265625q3.828125 -0.6875 9.03125 -0.6875q5.640625 0 8.734375 1.640625q3.09375 1.625 4.421875 4.078125q1.328125 2.4375 1.328125 6.75l0 12.6875zm-16.640625 -12.921875l0 12.921875l-6.59375 0l0 -12.921875l6.59375 0z" fill-rule="nonzero"/><path fill="#000000" d="m349.38672 536.9095q0 1.671875 -0.546875 2.234375q-0.546875 0.546875 -2.0 0.546875q-1.40625 0 -1.953125 -0.546875q-0.53125 -0.546875 -0.53125 -2.15625q0 -1.671875 0.546875 -2.21875q0.546875 -0.546875 2.0 -0.546875q1.40625 0 1.9375 0.546875q0.546875 0.53125 0.546875 2.140625z" fill-rule="nonzero"/><path fill="#000000" d="m378.26953 539.472l-4.484375 0l0 -13.484375q0 -2.734375 -0.609375 -4.296875q-0.609375 -1.578125 -2.4375 -2.53125q-1.828125 -0.953125 -5.25 -0.953125q-1.984375 0 -4.453125 0.328125l0 20.9375l-4.46875 0l0 -24.328125q5.015625 -0.828125 9.203125 -0.828125q4.59375 0 7.390625 1.359375q2.8125 1.34375 3.953125 3.59375q1.15625 2.25 1.15625 6.28125l0 13.921875zm11.59375 -24.875l0 24.875l-4.5625 0l0 -24.875l4.5625 0zm11.8359375 0l0 24.875l-4.5625 0l0 -24.875l4.5625 0zm4.5703125 0.234375q3.609375 -0.515625 6.640625 -0.515625q7.546875 0 10.5 2.921875q2.96875 2.921875 2.96875 8.796875l0 13.4375l-4.453125 0l0 -12.234375q0 -3.40625 -0.734375 -5.140625q-0.71875 -1.734375 -2.78125 -2.8125q-2.0625 -1.078125 -5.765625 -1.078125q-2.5 0 -6.0 0.46875l-0.375 -3.84375zm27.023438 0.21875q4.25 -0.734375 8.25 -0.734375q7.78125 0 10.75 2.890625q2.984375 2.875 2.984375 8.828125l0 13.4375l-4.46875 0l0 -12.234375q0 -3.734375 -0.875 -5.46875q-0.859375 -1.75 -2.984375 -2.65625q-2.125 -0.90625 -6.171875 -0.90625q-3.1875 0 -7.109375 0.65625l-0.375 -3.8125zm4.765625 10.40625l0 14.015625l-4.484375 0l0 -14.015625l4.484375 0z" fill-rule="nonzero"/><path fill="#000000" d="m476.41797 514.597l0.09375 4.03125q0.140625 6.21875 0.546875 8.609375q2.484375 0 4.46875 -1.234375q2.0 -1.25 2.0 -4.71875l0.484375 -6.6875l4.5 0l-0.5625 7.828125q-0.140625 2.0 -0.453125 3.03125q-0.296875 1.03125 -1.25 2.1875q-0.9375 1.140625 -3.0 2.0q-2.046875 0.84375 -5.515625 1.125q0.59375 2.53125 2.71875 4.0625q2.140625 1.515625 5.25 1.515625q2.890625 0 4.953125 -1.359375q2.0625 -1.375 3.046875 -3.546875q0.984375 -2.171875 1.3125 -6.171875l1.0 -10.671875l4.5 0l-0.84375 9.21875q-0.484375 5.171875 -1.75 8.625q-1.265625 3.4375 -4.40625 5.578125q-3.125 2.140625 -8.0625 2.140625q-4.390625 0 -7.359375 -2.125q-2.953125 -2.125 -4.421875 -6.0625q-1.46875 -3.9375 -1.46875 -10.5l-0.328125 -6.875l4.546875 0zm29.953125 0l20.296875 0l0 6.1875q0 2.65625 -0.484375 4.265625q-0.46875 1.59375 -1.71875 3.28125l-1.234375 1.6875q-1.921875 2.578125 -1.921875 5.46875l0 3.984375l-4.484375 0l0 -3.359375q0 -2.546875 0.453125 -4.125q0.46875 -1.59375 1.921875 -3.421875l1.375 -1.78125q1.015625 -1.28125 1.328125 -2.328125q0.3125 -1.046875 0.3125 -2.75l0 -3.359375l-15.84375 0l0 -3.75zm0.375 34.4375l0 -23.578125l4.296875 0l0 23.578125l-4.296875 0zm28.21875 -24.046875l-3.84375 -10.390625l4.390625 0l1.828125 5.484375q1.09375 -2.40625 3.4375 -4.078125q2.34375 -1.6875 5.046875 -1.6875q2.859375 0 4.921875 1.46875q2.078125 1.46875 3.015625 4.28125q0.9375 2.8125 0.9375 8.453125l0 10.953125l-12.8125 0l0 -3.75l8.296875 0l0 -7.296875q0 -4.125 -0.28125 -6.0q-0.265625 -1.890625 -1.375 -3.078125q-1.109375 -1.1875 -2.796875 -1.1875q-2.625 0 -4.46875 2.71875q-1.84375 2.703125 -3.125 9.375l-1.765625 9.21875l-4.515625 0l1.96875 -9.703125q0.28125 -1.390625 1.140625 -4.78125z" fill-rule="nonzero"/><path fill="#000000" d="m574.8086 514.597l13.78125 0l0 6.1875q0 2.625 -0.5 4.265625q-0.484375 1.625 -1.703125 3.28125l-1.265625 1.6875q-1.890625 2.5625 -1.890625 5.46875l0 3.984375l-4.484375 0l0 -3.359375q0 -3.015625 0.59375 -4.53125q0.609375 -1.53125 1.75 -3.015625l1.40625 -1.78125q1.03125 -1.3125 1.328125 -2.359375q0.296875 -1.0625 0.296875 -2.71875l0 -3.359375l-13.765625 0l0 -13.234375l4.453125 0l0 9.484375zm23.765625 21.84375l-4.3125 -21.84375l4.71875 0l3.671875 20.46875q3.984375 -1.578125 4.984375 -4.515625q1.015625 -2.9375 1.015625 -7.390625l0.234375 -8.5625l4.53125 0l-0.234375 6.59375q-0.1875 4.75 -0.421875 6.671875q-0.21875 1.921875 -1.21875 4.234375q-0.984375 2.3125 -2.90625 4.015625q-1.921875 1.6875 -5.640625 3.109375q-3.71875 1.40625 -10.609375 2.546875l-0.625 -3.890625q4.1875 -0.609375 6.8125 -1.4375z" fill-rule="nonzero"/><path fill="#000000" d="m635.51953 549.0345l0 -18.96875l-7.5 -15.46875l4.75 0l6.0 12.40625q1.859375 -1.109375 2.609375 -2.453125q0.75 -1.34375 0.984375 -3.625l0.671875 -6.328125l4.671875 0l-0.78125 7.203125q-0.671875 6.328125 -7.0 8.78125l0 18.453125l-4.40625 0zm22.257812 -34.4375l0 24.875l-4.5625 0l0 -24.875l4.5625 0zm28.976562 24.875l-4.484375 0l0 -13.484375q0 -2.734375 -0.609375 -4.296875q-0.609375 -1.578125 -2.4375 -2.53125q-1.828125 -0.953125 -5.25 -0.953125q-1.984375 0 -4.453125 0.328125l0 20.9375l-4.46875 0l0 -24.328125q5.015625 -0.828125 9.203125 -0.828125q4.59375 0 7.390625 1.359375q2.8125 1.34375 3.953125 3.59375q1.15625 2.25 1.15625 6.28125l0 13.921875zm9.25 -24.875l13.78125 0l0 6.1875q0 2.625 -0.5 4.265625q-0.484375 1.625 -1.703125 3.28125l-1.265625 1.6875q-1.890625 2.5625 -1.890625 5.46875l0 3.984375l-4.484375 0l0 -3.359375q0 -3.015625 0.59375 -4.53125q0.609375 -1.53125 1.75 -3.015625l1.40625 -1.78125q1.03125 -1.3125 1.328125 -2.359375q0.296875 -1.0625 0.296875 -2.71875l0 -3.359375l-13.765625 0l0 -13.234375l4.453125 0l0 9.484375zm22.21875 0l13.78125 0l0 6.1875q0 2.625 -0.5 4.265625q-0.484375 1.625 -1.703125 3.28125l-1.265625 1.6875q-1.890625 2.5625 -1.890625 5.46875l0 3.984375l-4.484375 0l0 -3.359375q0 -3.015625 0.59375 -4.53125q0.609375 -1.53125 1.75 -3.015625l1.40625 -1.78125q1.03125 -1.3125 1.328125 -2.359375q0.296875 -1.0625 0.296875 -2.71875l0 -3.359375l-13.765625 0l0 -13.234375l4.453125 0l0 9.484375z" fill-rule="nonzero"/><path fill="#000000" d="m752.3242 514.597l0.09375 4.03125q0.140625 6.21875 0.546875 8.609375q2.484375 0 4.46875 -1.234375q2.0 -1.25 2.0 -4.71875l0.484375 -6.6875l4.5 0l-0.5625 7.828125q-0.140625 2.0 -0.453125 3.03125q-0.296875 1.03125 -1.25 2.1875q-0.9375 1.140625 -3.0 2.0q-2.046875 0.84375 -5.515625 1.125q0.59375 2.53125 2.71875 4.0625q2.140625 1.515625 5.25 1.515625q2.890625 0 4.953125 -1.359375q2.0625 -1.375 3.046875 -3.546875q0.984375 -2.171875 1.3125 -6.171875l1.0 -10.671875l4.5 0l-0.84375 9.21875q-0.484375 5.171875 -1.75 8.625q-1.265625 3.4375 -4.40625 5.578125q-3.125 2.140625 -8.0625 2.140625q-4.390625 0 -7.359375 -2.125q-2.953125 -2.125 -4.421875 -6.0625q-1.46875 -3.9375 -1.46875 -10.5l-0.328125 -6.875l4.546875 0zm34.640625 0l0 12.875l-4.5625 0l0 -12.875l4.5625 0z" fill-rule="nonzero"/><path fill="#000000" d="m802.3867 514.83136q3.609375 -0.515625 6.609375 -0.515625q6.984375 0 10.234375 2.671875q3.265625 2.65625 3.265625 9.046875l0 23.0l-4.46875 0l0 -21.796875q0 -4.0625 -1.046875 -5.765625q-1.046875 -1.71875 -3.203125 -2.484375q-2.15625 -0.78125 -5.015625 -0.78125q-2.53125 0 -6.0 0.46875l-0.375 -3.84375zm30.398438 -0.234375l0.09375 4.03125q0.140625 6.21875 0.546875 8.609375q2.484375 0 4.46875 -1.234375q2.0 -1.25 2.0 -4.71875l0.484375 -6.6875l4.5 0l-0.5625 7.828125q-0.140625 2.0 -0.453125 3.03125q-0.296875 1.03125 -1.25 2.1875q-0.9375 1.140625 -3.0 2.0q-2.046875 0.84375 -5.515625 1.125q0.59375 2.53125 2.71875 4.0625q2.140625 1.515625 5.25 1.515625q2.890625 0 4.953125 -1.359375q2.0625 -1.375 3.046875 -3.546875q0.984375 -2.171875 1.3125 -6.171875l1.0 -10.671875l4.5 0l-0.84375 9.21875q-0.484375 5.171875 -1.75 8.625q-1.265625 3.4375 -4.40625 5.578125q-3.125 2.140625 -8.0625 2.140625q-4.390625 0 -7.359375 -2.125q-2.953125 -2.125 -4.421875 -6.0625q-1.46875 -3.9375 -1.46875 -10.5l-0.328125 -6.875l4.546875 0zm32.15625 10.390625l-3.84375 -10.390625l4.390625 0l1.828125 5.484375q1.09375 -2.40625 3.4375 -4.078125q2.34375 -1.6875 5.046875 -1.6875q2.859375 0 4.921875 1.46875q2.078125 1.46875 3.015625 4.28125q0.9375 2.8125 0.9375 8.453125l0 10.953125l-12.8125 0l0 -3.75l8.296875 0l0 -7.296875q0 -4.125 -0.28125 -6.0q-0.265625 -1.890625 -1.375 -3.078125q-1.109375 -1.1875 -2.796875 -1.1875q-2.625 0 -4.46875 2.71875q-1.84375 2.703125 -3.125 9.375l-1.765625 9.21875l-4.515625 0l1.96875 -9.703125q0.28125 -1.390625 1.140625 -4.78125zm26.648438 -9.9375q4.25 -0.734375 8.25 -0.734375q7.78125 0 10.75 2.890625q2.984375 2.875 2.984375 8.828125l0 13.4375l-4.46875 0l0 -12.234375q0 -3.734375 -0.875 -5.46875q-0.859375 -1.75 -2.984375 -2.65625q-2.125 -0.90625 -6.171875 -0.90625q-3.1875 0 -7.109375 0.65625l-0.375 -3.8125zm4.765625 10.40625l0 14.015625l-4.484375 0l0 -14.015625l4.484375 0zm26.476562 -10.859375l13.78125 0l0 6.1875q0 2.625 -0.5 4.265625q-0.484375 1.625 -1.703125 3.28125l-1.265625 1.6875q-1.890625 2.5625 -1.890625 5.46875l0 3.984375l-4.484375 0l0 -3.359375q0 -3.015625 0.59375 -4.53125q0.609375 -1.53125 1.75 -3.015625l1.40625 -1.78125q1.03125 -1.3125 1.328125 -2.359375q0.296875 -1.0625 0.296875 -2.71875l0 -3.359375l-13.765625 0l0 -13.234375l4.453125 0l0 9.484375z" fill-rule="nonzero"/></g></svg>